<?xml version="1.0" encoding="utf-8"?>
<!-- Generator: Adobe Illustrator 15.0.0, SVG Export Plug-In . SVG Version: 6.00 Build 0)  -->
<!DOCTYPE svg PUBLIC "-//W3C//DTD SVG 1.1//EN" "http://www.w3.org/Graphics/SVG/1.1/DTD/svg11.dtd">
<svg version="1.1" id="Layer_1" xmlns="http://www.w3.org/2000/svg" xmlns:xlink="http://www.w3.org/1999/xlink" x="0px" y="0px"
	 width="720px" height="720px" viewBox="0 0 720 720" enable-background="new 0 0 720 720" xml:space="preserve">
<g>
	<polygon fill-rule="evenodd" clip-rule="evenodd" fill="#5C9ACB" points="592.132,160.523 712.03,160.523 652.082,9.108 	"/>
	<polygon fill-rule="evenodd" clip-rule="evenodd" fill="#5C9ACB" points="649.691,333.127 637.841,326.28 635.554,330.25 
		654.277,341.083 654.277,310.282 649.691,310.282 	"/>
	<path fill-rule="evenodd" clip-rule="evenodd" fill="#5C9ACB" d="M698.849,711.016c6.892,0,13.155-3.757,13.182-11.27V165.109
		H592.132v534.598c0,7.535,6.286,11.309,13.193,11.309 M643.152,236.025c0-10.902,0.279-12.719,2.533-16.424
		c2.725-4.466,6.585-3.997,6.585-3.997s3.85-0.469,6.579,3.997c2.264,3.705,2.548,5.522,2.548,16.424v49.943h-18.245V236.025z
		 M620.324,236.025c0-10.902,0.28-12.719,2.528-16.424c2.729-4.466,6.589-3.997,6.589-3.997s3.85-0.469,6.581,3.997
		c2.264,3.705,2.545,5.522,2.545,16.424v49.943h-18.243V236.025z M651.928,367.644c-17.646,0-31.944-14.301-31.944-31.956
		c0-17.637,14.299-31.944,31.944-31.944s31.946,14.308,31.946,31.944C683.874,353.343,669.573,367.644,651.928,367.644z
		 M684.234,285.814h-18.255v-49.942c0-10.893,0.291-12.721,2.535-16.424c2.734-4.459,6.583-3.988,6.583-3.988
		s3.852-0.472,6.582,3.988c2.263,3.704,2.555,5.531,2.555,16.424V285.814z"/>
	<path fill-rule="evenodd" clip-rule="evenodd" fill="#5C9ACB" d="M116.837,581.029H23.321c-6.915,0-13.198,3.773-13.198,11.313
		v107.365c0,7.535,6.283,11.309,13.198,11.309h93.516c6.907,0,13.189-3.773,13.189-11.309V592.342
		C130.026,584.803,123.744,581.029,116.837,581.029z"/>
	<path fill-rule="evenodd" clip-rule="evenodd" fill="#5C9ACB" d="M275.49,488.351c0-7.53-6.282-11.307-13.196-11.307h-93.518
		c-6.906,0-13.189,3.776-13.189,11.307l0,0h-0.008v211.356c0,7.535,6.284,11.309,13.198,11.309h93.518
		c6.905,0,13.19-3.773,13.19-11.309"/>
	<path fill-rule="evenodd" clip-rule="evenodd" fill="#5C9ACB" d="M407.75,373.064h-93.517c-6.905,0-13.191,3.772-13.191,11.303
		v315.34c0,7.535,6.286,11.309,13.191,11.309h93.517c6.914,0,13.196-3.773,13.196-11.309v-315.34
		C420.946,376.837,414.664,373.064,407.75,373.064z"/>
	<path fill-rule="evenodd" clip-rule="evenodd" fill="#5C9ACB" d="M553.203,269.082h-93.515c-6.906,0-13.19,3.765-13.19,11.303
		v419.322c0,7.535,6.284,11.309,13.19,11.309h93.515c6.918,0,13.202-3.773,13.202-11.309V280.385
		C566.405,272.847,560.121,269.082,553.203,269.082z"/>
</g>
</svg>
