<?xml version="1.0" encoding="UTF-8" standalone="no"?>
<svg width="85px" height="59px" viewBox="0 0 85 59" version="1.1" xmlns="http://www.w3.org/2000/svg" xmlns:xlink="http://www.w3.org/1999/xlink">
    <!-- Generator: Sketch 3.7.2 (28276) - http://www.bohemiancoding.com/sketch -->
    <title>Group 54</title>
    <desc>Created with Sketch.</desc>
    <defs></defs>
    <g id="Welcome" stroke="none" stroke-width="1" fill="none" fill-rule="evenodd">
        <g id="Group-54" fill="#FFFFFF">
            <path d="M0,7.69438976 L85,7.69438976 L85,49.0012193 C85,54.5233934 80.5199202,59 74.9994691,59 L10.0005309,59 C4.47739019,59 0,54.5143483 0,49.0012193 L0,7.69438976 Z M34.431088,32.8520886 C38.8874251,36.108192 46.1143545,36.1068918 50.568912,32.8520886 L85,7.69438976 L0,7.69438976 L34.431088,32.8520886 Z" id="Combined-Shape"></path>
            <path d="M38.8672925,28.3990921 C40.8735815,29.8650235 44.127058,29.8645563 46.1327075,28.3990921 L81.3672925,2.65430359 C83.3735815,1.18837219 82.9827022,0 80.5049934,0 L4.49500663,0 C2.01248302,0 1.62705796,1.1888394 3.63270747,2.65430359 L38.8672925,28.3990921" id="Triangle-55"></path>
        </g>
    </g>
</svg>