<?xml version="1.0" encoding="UTF-8" standalone="no"?>
<svg width="694px" height="355px" viewBox="0 0 694 355" version="1.1" xmlns="http://www.w3.org/2000/svg" xmlns:xlink="http://www.w3.org/1999/xlink">
    <!-- Generator: Sketch 3.7.2 (28276) - http://www.bohemiancoding.com/sketch -->
    <title>Group 33</title>
    <desc>Created with Sketch.</desc>
    <defs></defs>
    <g id="Welcome" stroke="none" stroke-width="1" fill="none" fill-rule="evenodd">
        <g id="Group-33">
            <ellipse id="Oval-192" fill="#97DDFC" transform="translate(236.569612, 184.645074) scale(-1, 1) translate(-236.569612, -184.645074) " cx="236.569612" cy="184.645074" rx="57.2959662" ry="57.4026137"></ellipse>
            <ellipse id="Oval-192" fill="#97DDFC" transform="translate(175.931381, 214.303091) scale(-1, 1) translate(-175.931381, -214.303091) " cx="175.931381" cy="214.303091" rx="33.422647" ry="33.484858"></ellipse>
            <ellipse id="Oval-192" fill="#97DDFC" transform="translate(359.994673, 123.654797) scale(-1, 1) translate(-359.994673, -123.654797) " cx="359.994673" cy="123.654797" rx="123.425061" ry="123.654797"></ellipse>
            <rect id="Rectangle-694" fill="#97DDFC" transform="translate(338.508685, 222.195950) scale(-1, 1) translate(-338.508685, -222.195950) " x="175.931381" y="196.603952" width="325.154608" height="51.1839972"></rect>
            <g id="Group-25" transform="translate(369.470168, 218.489297) scale(-1, 1) translate(-369.470168, -218.489297) translate(125.970168, 82.989297)" fill="#FFFFFF">
                <ellipse id="Oval-192" cx="92.4321729" cy="178.395326" rx="92.4321729" ry="92.5981606"></ellipse>
                <ellipse id="Oval-192" cx="383.306299" cy="201.937232" rx="62.6658799" ry="62.778414"></ellipse>
                <ellipse id="Oval-192" cx="449.627689" cy="234.372746" rx="36.5550966" ry="36.6207415"></ellipse>
                <ellipse id="Oval-192" cx="248.313549" cy="135.235167" rx="134.99275" ry="135.235167"></ellipse>
                <rect id="Rectangle-694" x="93.9988199" y="215.016068" width="355.628869" height="55.9774191"></rect>
            </g>
            <g id="Group-25" transform="translate(398.599705, 150.500000) scale(-1, 1) translate(-398.599705, -150.500000) translate(171.099705, 0.000000)" fill="#FFFFFF">
                <path d="M91.5998915,236.458743 C126.692392,236.458743 155.140484,207.967047 155.140484,172.82076 C155.140484,137.674472 126.692392,109.182777 91.5998915,109.182777 C56.5073914,109.182777 28.0592992,137.674472 28.0592992,172.82076 C28.0592992,207.967047 56.5073914,236.458743 91.5998915,236.458743 Z" id="Oval-192"></path>
                <path d="M57.6169625,300.096704 C89.4379322,300.096704 115.233925,274.261173 115.233925,242.39143 C115.233925,210.521688 89.4379322,184.686156 57.6169625,184.686156 C25.7959928,184.686156 0,210.521688 0,242.39143 C0,274.261173 25.7959928,300.096704 57.6169625,300.096704 Z" id="Oval-192"></path>
                <ellipse id="Oval-192" cx="354.684334" cy="196.661658" rx="61.0447739" ry="61.1383393"></ellipse>
                <ellipse id="Oval-192" cx="419.290053" cy="228.2498" rx="35.6094514" ry="35.6640313"></ellipse>
                <ellipse id="Oval-192" cx="223.183717" cy="131.702173" rx="131.500617" ry="131.702173"></ellipse>
                <rect id="Rectangle-694" x="72.8609614" y="209.398812" width="346.429092" height="54.5150192"></rect>
            </g>
            <g id="Group-26" transform="translate(142.393929, 274.583846) scale(-1, 1) translate(-142.393929, -274.583846) translate(0.393929, 195.083846)" fill="#97DDFC">
                <ellipse id="Oval-192" cx="53.9499021" cy="104.085517" rx="53.9499021" ry="54.0267933"></ellipse>
                <ellipse id="Oval-192" cx="223.724453" cy="117.821142" rx="36.5762048" ry="36.6283344"></ellipse>
                <ellipse id="Oval-192" cx="262.434269" cy="136.745782" rx="21.3361195" ry="21.3665284"></ellipse>
                <ellipse id="Oval-192" cx="144.933211" cy="78.9035371" rx="78.7912411" ry="78.9035371"></ellipse>
                <rect id="Rectangle-694" x="54.8643072" y="125.452045" width="207.569962" height="32.6602649"></rect>
            </g>
            <g id="Group-25" transform="translate(407.997791, 294.415266) scale(-1, 1) translate(-407.997791, -294.415266) translate(300.497791, 234.415266)" fill="#FFFFFF">
                <ellipse id="Oval-192" cx="40.7986794" cy="78.7114357" rx="40.7986794" ry="40.8560825"></ellipse>
                <ellipse id="Oval-192" cx="169.187744" cy="89.0985754" rx="27.6601216" ry="27.699039"></ellipse>
                <ellipse id="Oval-192" cx="198.461373" cy="103.409745" rx="16.1350709" ry="16.1577727"></ellipse>
                <ellipse id="Oval-192" cx="109.603232" cy="59.6683464" rx="59.584512" ry="59.6683464"></ellipse>
                <rect id="Rectangle-694" x="41.4901824" y="94.8692085" width="156.97119" height="24.6983097"></rect>
            </g>
            <g id="Group-25" transform="translate(407.997791, 294.415266) scale(-1, 1) translate(-407.997791, -294.415266) translate(300.497791, 234.415266)" fill="#FFFFFF">
                <ellipse id="Oval-192" cx="40.7986794" cy="78.7114357" rx="40.7986794" ry="40.8560825"></ellipse>
                <ellipse id="Oval-192" cx="169.187744" cy="89.0985754" rx="27.6601216" ry="27.699039"></ellipse>
                <ellipse id="Oval-192" cx="198.461373" cy="103.409745" rx="16.1350709" ry="16.1577727"></ellipse>
                <ellipse id="Oval-192" cx="109.603232" cy="59.6683464" rx="59.584512" ry="59.6683464"></ellipse>
                <rect id="Rectangle-694" x="41.4901824" y="94.8692085" width="156.97119" height="24.6983097"></rect>
            </g>
            <g id="Group-25" transform="translate(243.699569, 262.984993) scale(-1, 1) translate(-243.699569, -262.984993) translate(79.199569, 171.484993)" fill="#FFFFFF">
                <ellipse id="Oval-192" cx="62.3935848" cy="120.397426" rx="62.3935848" ry="62.4936788"></ellipse>
                <ellipse id="Oval-192" cx="258.739499" cy="136.28565" rx="42.3007355" ry="42.3685958"></ellipse>
                <ellipse id="Oval-192" cx="303.507777" cy="158.176091" rx="24.675429" ry="24.7150142"></ellipse>
                <ellipse id="Oval-192" cx="167.616664" cy="91.2690168" rx="91.1228343" ry="91.2690168"></ellipse>
                <rect id="Rectangle-694" x="63.4511032" y="145.112441" width="240.056674" height="37.7786646"></rect>
            </g>
            <ellipse id="Oval-393" fill="#97DDFC" transform="translate(245.680101, 171.288336) scale(-1, 1) translate(-245.680101, -171.288336) " cx="245.680101" cy="171.288336" rx="61.5097865" ry="61.553673"></ellipse>
            <ellipse id="Oval-393" fill="#97DDFC" transform="translate(332.933601, 196.853759) scale(-1, 1) translate(-332.933601, -196.853759) " cx="332.933601" cy="196.853759" rx="61.5097865" ry="61.553673"></ellipse>
            <ellipse id="Oval-393" fill="#97DDFC" transform="translate(332.933601, 196.853759) scale(-1, 1) translate(-332.933601, -196.853759) " cx="332.933601" cy="196.853759" rx="61.5097865" ry="61.553673"></ellipse>
            <ellipse id="Oval-393" fill="#97DDFC" transform="translate(436.891035, 200.983559) scale(-1, 1) translate(-436.891035, -200.983559) " cx="436.891035" cy="200.983559" rx="32.2287699" ry="32.2517648"></ellipse>
            <ellipse id="Oval-393" fill="#FFFFFF" transform="translate(404.662265, 282.399599) scale(-1, 1) translate(-404.662265, -282.399599) " cx="404.662265" cy="282.399599" rx="71.5321479" ry="71.5831853"></ellipse>
            <ellipse id="Oval-393" fill="#FFFFFF" transform="translate(229.369200, 191.937332) scale(-1, 1) translate(-229.369200, -191.937332) " cx="229.3692" cy="191.937332" rx="71.5321479" ry="71.5831853"></ellipse>
            <rect id="Rectangle-892" fill="#FFFFFF" transform="translate(412.522941, 237.168465) scale(-1, 1) translate(-412.522941, -237.168465) " x="238.015943" y="186.430933" width="349.013996" height="101.475065"></rect>
            <ellipse id="Oval-393" fill="#FFFFFF" transform="translate(157.837052, 254.867605) scale(-1, 1) translate(-157.837052, -254.867605) " cx="157.837052" cy="254.867605" rx="71.5321479" ry="71.5831853"></ellipse>
            <path d="M249.521468,354.376098 C265.158299,343.215491 275.354152,324.913548 275.354152,304.228537 C275.354152,270.233382 247.815282,242.674864 213.844365,242.674864 C179.873448,242.674864 152.334579,270.233382 152.334579,304.228537 C152.334579,324.913548 162.530432,343.215491 178.167263,354.376098 L249.521468,354.376098 Z" id="Combined-Shape" fill="#97DDFC" transform="translate(213.844365, 298.525481) scale(-1, 1) translate(-213.844365, -298.525481) "></path>
            <ellipse id="Oval-393" fill="#FFFFFF" transform="translate(284.393929, 272.566744) scale(-1, 1) translate(-284.393929, -272.566744) " cx="284.393929" cy="272.566744" rx="71.5321479" ry="71.5831853"></ellipse>
            <ellipse id="Oval-393" fill="#FFFFFF" transform="translate(630.693016, 289.442901) scale(-1, 1) translate(-630.693016, -289.442901) " cx="630.693016" cy="289.442901" rx="62.9217327" ry="62.9666266"></ellipse>
            <g id="Group-26" transform="translate(292.356204, 250.231794) scale(-1, 1) translate(-292.356204, -250.231794) translate(145.856204, 168.731794)" fill="#97DDFC">
                <ellipse id="Oval-192" cx="55.5938049" cy="107.192547" rx="55.5938049" ry="55.6395334"></ellipse>
                <ellipse id="Oval-192" cx="230.541541" cy="121.338191" rx="37.6907152" ry="37.7217175"></ellipse>
                <ellipse id="Oval-192" cx="270.430881" cy="140.827746" rx="21.9862505" ry="22.0043352"></ellipse>
                <ellipse id="Oval-192" cx="149.349459" cy="81.2588665" rx="81.1920823" ry="81.2588665"></ellipse>
                <rect id="Rectangle-694" x="56.5360728" y="129.196883" width="213.894809" height="33.6351981"></rect>
            </g>
            <path d="M275.214797,354.376098 C276.589676,348.834343 277.319321,343.037578 277.319321,337.070273 C277.319321,297.535972 245.293287,265.487088 205.787173,265.487088 C166.281058,265.487088 134.255025,297.535972 134.255025,337.070273 C134.255025,343.037578 134.98467,348.834343 136.359549,354.376098 L275.214797,354.376098 Z" id="Combined-Shape" fill="#FFFFFF" transform="translate(205.787173, 309.931593) scale(-1, 1) translate(-205.787173, -309.931593) "></path>
            <path d="M360.110093,318.584506 C361.484973,313.04275 362.214617,307.245985 362.214617,301.278681 C362.214617,261.744379 330.188584,229.695496 290.682469,229.695496 C251.176355,229.695496 219.150321,261.744379 219.150321,301.278681 C219.150321,307.245985 219.879966,313.04275 221.254845,318.584506 L360.110093,318.584506 Z" id="Combined-Shape" fill="#FFFFFF" transform="translate(290.682469, 274.140001) scale(-1, 1) translate(-290.682469, -274.140001) "></path>
            <rect id="Rectangle-892" fill="#FFFFFF" transform="translate(384.617543, 299.705424) scale(-1, 1) translate(-384.617543, -299.705424) " x="253.737294" y="248.967892" width="261.760497" height="101.475065"></rect>
            <path d="M356.016725,350.479695 C356.984576,346.578558 357.498212,342.497907 357.498212,338.297205 C357.498212,310.46691 334.953385,287.905998 307.142933,287.905998 C279.33248,287.905998 256.787653,310.46691 256.787653,338.297205 C256.787653,342.497907 257.301289,346.578558 258.26914,350.479695 L356.016725,350.479695 Z" id="Combined-Shape" fill="#FFFFFF" transform="translate(307.142933, 319.192846) scale(-1, 1) translate(-307.142933, -319.192846) "></path>
        </g>
    </g>
</svg>