<?xml version="1.0" encoding="UTF-8" standalone="no"?>
<svg width="1073px" height="535px" viewBox="0 0 1073 535" version="1.1" xmlns="http://www.w3.org/2000/svg" xmlns:xlink="http://www.w3.org/1999/xlink">
    <!-- Generator: Sketch 3.7.2 (28276) - http://www.bohemiancoding.com/sketch -->
    <title>Group 46</title>
    <desc>Created with Sketch.</desc>
    <defs></defs>
    <g id="Welcome" stroke="none" stroke-width="1" fill="none" fill-rule="evenodd">
        <g id="Group-46">
            <g id="Group-26" transform="translate(186.893390, 0.000000)" fill="#97DDFC">
                <ellipse id="Oval-192" cx="127.576176" cy="245.85312" rx="127.576176" ry="127.61291"></ellipse>
                <ellipse id="Oval-192" cx="529.044705" cy="278.29708" rx="86.4923224" ry="86.5172269"></ellipse>
                <ellipse id="Oval-192" cx="620.582413" cy="322.997647" rx="50.4538547" ry="50.4683824"></ellipse>
                <ellipse id="Oval-192" cx="342.725827" cy="186.372526" rx="186.318878" ry="186.372526"></ellipse>
                <rect id="Rectangle-694" x="129.738484" y="296.321502" width="490.843929" height="77.1445273"></rect>
            </g>
            <g id="Group-25" transform="translate(147.734775, 125.081480)" fill="#FFFFFF">
                <ellipse id="Oval-192" cx="139.532917" cy="268.87746" rx="139.532917" ry="139.56396"></ellipse>
                <ellipse id="Oval-192" cx="578.628029" cy="304.359822" rx="94.5985878" ry="94.6196339"></ellipse>
                <ellipse id="Oval-192" cx="678.744867" cy="353.246633" rx="55.1825095" ry="55.1947864"></ellipse>
                <ellipse id="Oval-192" cx="374.846904" cy="203.826461" rx="203.781125" ry="203.826461"></ellipse>
                <rect id="Rectangle-694" x="141.897882" y="324.072246" width="536.846986" height="84.3691735"></rect>
            </g>
            <g id="Group-25" transform="translate(99.676475, 0.000000)" fill="#FFFFFF">
                <ellipse id="Oval-192" cx="135.923335" cy="261.853085" rx="135.923335" ry="135.917877"></ellipse>
                <ellipse id="Oval-192" cx="563.659478" cy="296.408477" rx="92.1514133" ry="92.1477131"></ellipse>
                <ellipse id="Oval-192" cx="661.186391" cy="344.018129" rx="53.7549911" ry="53.7528326"></ellipse>
                <ellipse id="Oval-192" cx="365.149975" cy="198.501532" rx="198.509503" ry="198.501532"></ellipse>
                <rect id="Rectangle-694" x="138.22712" y="315.605917" width="522.959271" height="82.1650442"></rect>
            </g>
            <g id="Group-26" transform="translate(643.743900, 294.030398)" fill="#97DDFC">
                <ellipse id="Oval-192" cx="81.4412013" cy="156.877705" rx="81.4412013" ry="81.42919"></ellipse>
                <ellipse id="Oval-192" cx="337.72792" cy="177.580041" rx="55.2143738" ry="55.2062305"></ellipse>
                <ellipse id="Oval-192" cx="396.163132" cy="206.103261" rx="32.2083847" ry="32.2036345"></ellipse>
                <ellipse id="Oval-192" cx="218.786956" cy="118.923422" rx="118.940964" ry="118.923422"></ellipse>
                <rect id="Rectangle-694" x="82.8215607" y="189.081339" width="313.341571" height="49.2255555"></rect>
            </g>
            <g id="Group-25" transform="translate(294.876238, 353.310720)" fill="#FFFFFF">
                <ellipse id="Oval-192" cx="61.5884985" cy="118.633886" rx="61.5884985" ry="61.5782929"></ellipse>
                <ellipse id="Oval-192" cx="255.400892" cy="134.289385" rx="41.7549143" ry="41.7479952"></ellipse>
                <ellipse id="Oval-192" cx="299.59151" cy="155.859182" rx="24.3570333" ry="24.3529972"></ellipse>
                <ellipse id="Oval-192" cx="165.453848" cy="89.9321397" rx="89.9470444" ry="89.9321397"></ellipse>
                <rect id="Rectangle-694" x="62.6323714" y="142.986884" width="236.959138" height="37.2252957"></rect>
            </g>
            <g id="Group-25" transform="translate(294.876238, 353.310720)" fill="#FFFFFF">
                <ellipse id="Oval-192" cx="61.5884985" cy="118.633886" rx="61.5884985" ry="61.5782929"></ellipse>
                <ellipse id="Oval-192" cx="255.400892" cy="134.289385" rx="41.7549143" ry="41.7479952"></ellipse>
                <ellipse id="Oval-192" cx="299.59151" cy="155.859182" rx="24.3570333" ry="24.3529972"></ellipse>
                <ellipse id="Oval-192" cx="165.453848" cy="89.9321397" rx="89.9470444" ry="89.9321397"></ellipse>
                <rect id="Rectangle-694" x="62.6323714" y="142.986884" width="236.959138" height="37.2252957"></rect>
            </g>
            <g id="Group-25" transform="translate(456.850509, 258.462205)" fill="#FFFFFF">
                <ellipse id="Oval-192" cx="94.1875389" cy="181.463017" rx="94.1875389" ry="94.190481"></ellipse>
                <ellipse id="Oval-192" cx="390.585613" cy="205.409749" rx="63.8559586" ry="63.8579532"></ellipse>
                <ellipse id="Oval-192" cx="458.166503" cy="238.403025" rx="37.2493092" ry="37.2504727"></ellipse>
                <ellipse id="Oval-192" cx="253.029236" cy="137.560674" rx="137.556377" ry="137.560674"></ellipse>
                <rect id="Rectangle-694" x="95.7839379" y="218.71349" width="362.382565" height="56.9400083"></rect>
            </g>
            <ellipse id="Oval-393" fill="#97DDFC" cx="702.185166" cy="258.165803" rx="92.8533828" ry="92.7737041"></ellipse>
            <ellipse id="Oval-393" fill="#97DDFC" cx="570.469824" cy="296.698012" rx="92.8533828" ry="92.7737041"></ellipse>
            <ellipse id="Oval-393" fill="#97DDFC" cx="570.469824" cy="296.698012" rx="92.8533828" ry="92.7737041"></ellipse>
            <ellipse id="Oval-393" fill="#97DDFC" cx="413.538708" cy="302.922446" rx="48.6516127" ry="48.6098642"></ellipse>
            <ellipse id="Oval-393" fill="#FFFFFF" cx="462.190321" cy="425.632713" rx="107.982848" ry="107.890186"></ellipse>
            <ellipse id="Oval-393" fill="#FFFFFF" cx="726.807629" cy="289.287972" rx="107.982848" ry="107.890186"></ellipse>
            <rect id="Rectangle-892" fill="#FFFFFF" x="186.89339" y="280.988727" width="526.861367" height="152.943231"></rect>
            <ellipse id="Oval-393" fill="#FFFFFF" cx="834.790476" cy="384.136487" rx="107.982848" ry="107.890186"></ellipse>
            <path d="M804.100581,534.115702 C827.705487,517.294433 843.096849,489.709743 843.096849,458.533292 C843.096849,407.29579 801.524974,365.759588 750.243466,365.759588 C698.961959,365.759588 657.390084,407.29579 657.390084,458.533292 C657.390084,489.709743 672.781446,517.294433 696.386352,534.115702 L804.100581,534.115702 Z" id="Combined-Shape" fill="#97DDFC"></path>
            <ellipse id="Oval-393" fill="#FFFFFF" cx="643.7439" cy="410.812632" rx="107.982848" ry="107.890186"></ellipse>
            <ellipse id="Oval-393" fill="#FFFFFF" cx="107.982848" cy="426.225516" rx="107.982848" ry="107.890186"></ellipse>
            <ellipse id="Oval-393" fill="#FFFFFF" cx="295.766206" cy="146.125994" rx="65.5610147" ry="65.504756"></ellipse>
            <g id="Group-26" transform="translate(413.538708, 242.456518)" fill="#97DDFC">
                <ellipse id="Oval-192" cx="83.8099897" cy="161.560622" rx="83.8099897" ry="83.8599121"></ellipse>
                <ellipse id="Oval-192" cx="347.551031" cy="182.880938" rx="56.820332" ry="56.8541777"></ellipse>
                <ellipse id="Oval-192" cx="407.685882" cy="212.255597" rx="33.1451937" ry="33.164937"></ellipse>
                <ellipse id="Oval-192" cx="225.150566" cy="122.473374" rx="122.400465" ry="122.473374"></ellipse>
                <rect id="Rectangle-694" x="85.230498" y="194.725559" width="322.455384" height="50.6949751"></rect>
            </g>
            <path d="M867.212289,534.115702 C869.287767,525.763167 870.389217,517.026282 870.389217,508.032361 C870.389217,448.446256 822.04365,400.142174 762.40637,400.142174 C702.76909,400.142174 654.423522,448.446256 654.423522,508.032361 C654.423522,517.026282 655.524972,525.763167 657.60045,534.115702 L867.212289,534.115702 Z" id="Combined-Shape" fill="#FFFFFF"></path>
            <path d="M746.47671,489.655461 C748.699124,480.711596 749.878553,471.35617 749.878553,461.725511 C749.878553,397.920921 698.11029,346.197081 634.250902,346.197081 C570.391514,346.197081 518.623251,397.920921 518.623251,461.725511 C518.623251,471.35617 519.80268,480.711596 522.025095,489.655461 L746.47671,489.655461 Z" id="Combined-Shape" fill="#FFFFFF"></path>
            <path d="M683.18112,528.243042 C684.64216,522.363249 685.417529,516.212891 685.417529,509.881592 C685.417529,467.935767 651.384516,433.931958 609.402666,433.931958 C567.420816,433.931958 533.387803,467.935767 533.387803,509.881592 C533.387803,516.212891 534.163172,522.363249 535.624211,528.243042 L683.18112,528.243042 Z" id="Combined-Shape" fill="#FFFFFF"></path>
        </g>
    </g>
</svg>