<?xml version="1.0" encoding="UTF-8" standalone="no"?>
<svg width="382px" height="189px" viewBox="0 0 382 189" version="1.1" xmlns="http://www.w3.org/2000/svg" xmlns:xlink="http://www.w3.org/1999/xlink">
    <!-- Generator: Sketch 3.7.2 (28276) - http://www.bohemiancoding.com/sketch -->
    <title>Group 47</title>
    <desc>Created with Sketch.</desc>
    <defs></defs>
    <g id="Welcome" stroke="none" stroke-width="1" fill="none" fill-rule="evenodd">
        <g id="Group-27" transform="translate(-3043.000000, -2926.000000)">
            <g id="Group-47" transform="translate(3043.000000, 2926.000000)">
                <g id="Group-26" transform="translate(114.541608, 0.000000)" fill="#97DDFC">
                    <ellipse id="Oval-192" cx="141.068338" cy="98.3255643" rx="30.5260155" ry="30.567533"></ellipse>
                    <ellipse id="Oval-192" cx="173.375038" cy="114.11879" rx="17.8068424" ry="17.8310609"></ellipse>
                    <ellipse id="Oval-192" cx="75.3102129" cy="65.8475606" rx="65.7581251" ry="65.8475606"></ellipse>
                    <rect id="Rectangle-694" x="0.139899659" y="104.6938" width="173.235138" height="27.2560502"></rect>
                </g>
                <g id="Group-25" transform="translate(55.072108, 44.192728)" fill="#FFFFFF">
                    <ellipse id="Oval-192" cx="49.2458044" cy="94.997504" rx="49.2458044" ry="49.3095548"></ellipse>
                    <ellipse id="Oval-192" cx="204.217065" cy="107.533831" rx="33.386986" ry="33.4302067"></ellipse>
                    <ellipse id="Oval-192" cx="239.551625" cy="124.806105" rx="19.4757419" ry="19.5009539"></ellipse>
                    <ellipse id="Oval-192" cx="132.295932" cy="72.0142369" rx="71.9211324" ry="72.0142369"></ellipse>
                    <rect id="Rectangle-694" x="50.080479" y="114.498458" width="189.471146" height="29.808601"></rect>
                </g>
                <path d="M86.082599,140.537063 C112.576727,140.537063 134.054462,119.037172 134.054462,92.5157114 C134.054462,65.9942512 112.576727,44.4943597 86.082599,44.4943597 C59.5884708,44.4943597 38.1107362,65.9942512 38.1107362,92.5157114 C38.1107362,119.037172 59.5884708,140.537063 86.082599,140.537063 Z" id="Oval-192" fill="#FFFFFF"></path>
                <ellipse id="Oval-192" fill="#FFFFFF" cx="237.044902" cy="104.72453" rx="32.5232968" ry="32.5568486"></ellipse>
                <ellipse id="Oval-192" fill="#FFFFFF" cx="271.465391" cy="121.545568" rx="18.9719231" ry="18.991495"></ellipse>
                <ellipse id="Oval-192" fill="#FFFFFF" cx="166.9843" cy="70.132878" rx="70.0606019" ry="70.132878"></ellipse>
                <rect id="Rectangle-694" fill="#FFFFFF" x="86.8956815" y="111.507206" width="184.569709" height="29.0298567"></rect>
                <g id="Group-26" transform="translate(230.130215, 103.884327)" fill="#97DDFC">
                    <ellipse id="Oval-192" cx="28.743307" cy="55.4267004" rx="28.743307" ry="28.7698709"></ellipse>
                    <ellipse id="Oval-192" cx="119.195409" cy="62.7410744" rx="19.4869878" ry="19.5049972"></ellipse>
                    <ellipse id="Oval-192" cx="139.819137" cy="72.8186563" rx="11.3674096" ry="11.377915"></ellipse>
                    <ellipse id="Oval-192" cx="77.2171892" cy="42.0170148" rx="41.9782196" ry="42.0170148"></ellipse>
                    <rect id="Rectangle-694" x="29.2304817" y="66.8046155" width="110.588656" height="17.3919559"></rect>
                </g>
                <g id="Group-25" transform="translate(107.003221, 124.828748)" fill="#FFFFFF">
                    <ellipse id="Oval-192" cx="21.7366283" cy="41.9147187" rx="21.7366283" ry="21.7563203"></ellipse>
                    <ellipse id="Oval-192" cx="90.1394642" cy="47.4459866" rx="14.7366971" ry="14.7500476"></ellipse>
                    <ellipse id="Oval-192" cx="105.735802" cy="55.0668446" rx="8.59640667" ry="8.60419446"></ellipse>
                    <ellipse id="Oval-192" cx="58.3941625" cy="31.774061" rx="31.7453018" ry="31.774061"></ellipse>
                    <rect id="Rectangle-694" x="22.1050457" y="50.5189132" width="83.6307563" height="13.1521258"></rect>
                </g>
                <g id="Group-25" transform="translate(107.003221, 124.828748)" fill="#FFFFFF">
                    <ellipse id="Oval-192" cx="21.7366283" cy="41.9147187" rx="21.7366283" ry="21.7563203"></ellipse>
                    <ellipse id="Oval-192" cx="90.1394642" cy="47.4459866" rx="14.7366971" ry="14.7500476"></ellipse>
                    <ellipse id="Oval-192" cx="105.735802" cy="55.0668446" rx="8.59640667" ry="8.60419446"></ellipse>
                    <ellipse id="Oval-192" cx="58.3941625" cy="31.774061" rx="31.7453018" ry="31.774061"></ellipse>
                    <rect id="Rectangle-694" x="22.1050457" y="50.5189132" width="83.6307563" height="13.1521258"></rect>
                </g>
                <g id="Group-25" transform="translate(164.169325, 91.317674)" fill="#FFFFFF">
                    <ellipse id="Oval-192" cx="33.2419132" cy="64.1129744" rx="33.2419132" ry="33.278582"></ellipse>
                    <ellipse id="Oval-192" cx="137.850646" cy="72.5736308" rx="22.5368903" ry="22.5617505"></ellipse>
                    <ellipse id="Oval-192" cx="161.702188" cy="84.2305353" rx="13.1465194" ry="13.1610211"></ellipse>
                    <ellipse id="Oval-192" cx="89.3024279" cy="48.6017709" rx="48.5482179" ry="48.6017709"></ellipse>
                    <rect id="Rectangle-694" x="33.8053355" y="77.2739955" width="127.896853" height="20.1175609"></rect>
                </g>
                <ellipse id="Oval-393" fill="#97DDFC" cx="250.75608" cy="91.2129523" rx="32.7710452" ry="32.7780184"></ellipse>
                <ellipse id="Oval-393" fill="#97DDFC" cx="204.269358" cy="104.826826" rx="32.7710452" ry="32.7780184"></ellipse>
                <ellipse id="Oval-393" fill="#97DDFC" cx="204.269358" cy="104.826826" rx="32.7710452" ry="32.7780184"></ellipse>
                <ellipse id="Oval-393" fill="#97DDFC" cx="148.883151" cy="107.02599" rx="17.1707713" ry="17.174425"></ellipse>
                <ellipse id="Oval-393" fill="#FFFFFF" cx="166.053922" cy="150.380941" rx="38.1107362" ry="38.1188457"></ellipse>
                <ellipse id="Oval-393" fill="#FFFFFF" cx="259.446166" cy="102.208773" rx="38.1107362" ry="38.1188457"></ellipse>
                <rect id="Rectangle-892" fill="#FFFFFF" x="115.379207" y="99.2765543" width="139.460167" height="54.0366055"></rect>
                <ellipse id="Oval-393" fill="#FFFFFF" cx="297.556902" cy="135.719846" rx="38.1107362" ry="38.1188457"></ellipse>
                <path d="M286.725418,188.709231 C295.056374,182.766082 300.488497,173.020094 300.488497,162.005094 C300.488497,143.902295 285.816401,129.227076 267.717452,129.227076 C249.618504,129.227076 234.946407,143.902295 234.946407,162.005094 C234.946407,173.020094 240.37853,182.766082 248.709486,188.709231 L286.725418,188.709231 Z" id="Combined-Shape" fill="#97DDFC"></path>
                <ellipse id="Oval-393" fill="#FFFFFF" cx="230.130215" cy="145.144836" rx="38.1107362" ry="38.1188457"></ellipse>
                <ellipse id="Oval-393" fill="#FFFFFF" cx="38.1107362" cy="149.962052" rx="38.1107362" ry="38.1188457"></ellipse>
                <g id="Group-26" transform="translate(148.883151, 89.851565)" fill="#97DDFC">
                    <ellipse id="Oval-192" cx="29.5793312" cy="57.0812288" rx="29.5793312" ry="29.628673"></ellipse>
                    <ellipse id="Oval-192" cx="122.662311" cy="64.6139423" rx="20.0537838" ry="20.0872359"></ellipse>
                    <ellipse id="Oval-192" cx="143.885899" cy="74.9923475" rx="11.6980406" ry="11.7175543"></ellipse>
                    <ellipse id="Oval-192" cx="79.4631185" cy="43.2712541" rx="43.1991927" ry="43.2712541"></ellipse>
                    <rect id="Rectangle-694" x="30.0806758" y="68.7987831" width="113.805223" height="17.9111187"></rect>
                </g>
                <path d="M308.999638,188.709231 C309.732143,185.758184 310.120881,182.671342 310.120881,179.493686 C310.120881,158.441228 293.058123,141.37484 272.010145,141.37484 C250.962166,141.37484 233.899409,158.441228 233.899409,179.493686 C233.899409,182.671342 234.288147,185.758184 235.020652,188.709231 L308.999638,188.709231 Z" id="Combined-Shape" fill="#FFFFFF"></path>
                <path d="M244.048921,186.634352 C244.56457,184.556953 244.838224,182.383961 244.838224,180.14704 C244.838224,165.327097 232.826842,153.31316 218.010052,153.31316 C203.193262,153.31316 191.18188,165.327097 191.18188,180.14704 C191.18188,182.383961 191.455534,184.556953 191.971183,186.634352 L244.048921,186.634352 Z" id="Combined-Shape" fill="#FFFFFF"></path>
            </g>
        </g>
    </g>
</svg>