<?xml version="1.0" encoding="UTF-8" standalone="no"?>
<svg width="754px" height="376px" viewBox="0 0 754 376" version="1.1" xmlns="http://www.w3.org/2000/svg" xmlns:xlink="http://www.w3.org/1999/xlink">
    <!-- Generator: Sketch 3.7.2 (28276) - http://www.bohemiancoding.com/sketch -->
    <title>Group 28</title>
    <desc>Created with Sketch.</desc>
    <defs></defs>
    <g id="Welcome" stroke="none" stroke-width="1" fill="none" fill-rule="evenodd">
        <g id="Group-27" transform="translate(-2630.000000, -1558.000000)"></g>
        <g id="Group-28">
            <ellipse id="Oval-192" fill="#97DDFC" cx="503.54796" cy="195.697753" rx="60.8285359" ry="60.9053004"></ellipse>
            <ellipse id="Oval-192" fill="#97DDFC" cx="567.914967" cy="227.075262" rx="35.4833126" ry="35.5280919"></ellipse>
            <ellipse id="Oval-192" fill="#97DDFC" cx="372.631927" cy="131.200168" rx="131.034804" ry="131.200168"></ellipse>
            <rect id="Rectangle-694" fill="#97DDFC" x="222.820144" y="208.657048" width="345.201941" height="54.3072262"></rect>
            <g id="Group-25" transform="translate(103.899281, 88.053274)" fill="#FFFFFF">
                <ellipse id="Oval-192" cx="98.1310573" cy="189.280945" rx="98.1310573" ry="98.248467"></ellipse>
                <ellipse id="Oval-192" cx="406.938961" cy="214.259369" rx="66.5295304" ry="66.6091301"></ellipse>
                <ellipse id="Oval-192" cx="477.349381" cy="248.674086" rx="38.8088927" ry="38.8553259"></ellipse>
                <ellipse id="Oval-192" cx="263.623264" cy="143.487168" rx="143.315697" ry="143.487168"></ellipse>
                <rect id="Rectangle-694" x="99.7942956" y="228.136271" width="377.555085" height="59.393141"></rect>
            </g>
            <g id="Group-25" transform="translate(70.100719, 0.000000)" fill="#FFFFFF">
                <ellipse id="Oval-192" cx="95.5925013" cy="184.336014" rx="95.5925013" ry="95.6817436"></ellipse>
                <ellipse id="Oval-192" cx="396.411842" cy="208.661881" rx="64.8084755" ry="64.8689787"></ellipse>
                <ellipse id="Oval-192" cx="465.000811" cy="242.17752" rx="37.804944" ry="37.8402376"></ellipse>
                <ellipse id="Oval-192" cx="256.803584" cy="139.738592" rx="139.608258" ry="139.738592"></ellipse>
                <rect id="Rectangle-694" x="97.2127132" y="222.176252" width="367.788098" height="57.841506"></rect>
            </g>
            <g id="Group-26" transform="translate(452.733813, 206.987791)" fill="#97DDFC">
                <ellipse id="Oval-192" cx="57.2761709" cy="110.436778" rx="57.2761709" ry="57.3234887"></ellipse>
                <ellipse id="Oval-192" cx="237.518132" cy="125.010546" rx="38.8313023" ry="38.8633822"></ellipse>
                <ellipse id="Oval-192" cx="278.614594" cy="145.08996" rx="22.651593" ry="22.6703063"></ellipse>
                <ellipse id="Oval-192" cx="153.869035" cy="83.7182024" rx="83.649097" ry="83.7182024"></ellipse>
                <rect id="Rectangle-694" x="58.2469535" y="133.107084" width="220.367641" height="34.6531824"></rect>
            </g>
            <g id="Group-25" transform="translate(207.381295, 248.719201)" fill="#FFFFFF">
                <ellipse id="Oval-192" cx="43.3141126" cy="83.5143791" rx="43.3141126" ry="43.3491059"></ellipse>
                <ellipse id="Oval-192" cx="179.618975" cy="94.5353383" rx="29.3655001" ry="29.3892243"></ellipse>
                <ellipse id="Oval-192" cx="210.697463" cy="109.719771" rx="17.129875" ry="17.1437142"></ellipse>
                <ellipse id="Oval-192" cx="116.360794" cy="63.3092874" rx="63.2581814" ry="63.3092874"></ellipse>
                <rect id="Rectangle-694" x="44.0482501" y="100.658093" width="166.649213" height="26.2053917"></rect>
            </g>
            <g id="Group-25" transform="translate(207.381295, 248.719201)" fill="#FFFFFF">
                <ellipse id="Oval-192" cx="43.3141126" cy="83.5143791" rx="43.3141126" ry="43.3491059"></ellipse>
                <ellipse id="Oval-192" cx="179.618975" cy="94.5353383" rx="29.3655001" ry="29.3892243"></ellipse>
                <ellipse id="Oval-192" cx="210.697463" cy="109.719771" rx="17.129875" ry="17.1437142"></ellipse>
                <ellipse id="Oval-192" cx="116.360794" cy="63.3092874" rx="63.2581814" ry="63.3092874"></ellipse>
                <rect id="Rectangle-694" x="44.0482501" y="100.658093" width="166.649213" height="26.2053917"></rect>
            </g>
            <g id="Group-25" transform="translate(321.294964, 181.948946)" fill="#FFFFFF">
                <ellipse id="Oval-192" cx="66.240447" cy="127.744034" rx="66.240447" ry="66.3070205"></ellipse>
                <ellipse id="Oval-192" cx="274.692023" cy="144.601751" rx="44.9087776" ry="44.9539122"></ellipse>
                <ellipse id="Oval-192" cx="322.220479" cy="167.827939" rx="26.1967869" ry="26.2231155"></ellipse>
                <ellipse id="Oval-192" cx="177.951031" cy="96.8382192" rx="96.7409917" ry="96.8382192"></ellipse>
                <rect id="Rectangle-694" x="67.3631664" y="153.967149" width="254.857313" height="40.0839051"></rect>
            </g>
            <ellipse id="Oval-393" fill="#97DDFC" cx="493.834532" cy="181.740289" rx="65.3021583" ry="65.3096559"></ellipse>
            <ellipse id="Oval-393" fill="#97DDFC" cx="401.201439" cy="208.865705" rx="65.3021583" ry="65.3096559"></ellipse>
            <ellipse id="Oval-393" fill="#97DDFC" cx="401.201439" cy="208.865705" rx="65.3021583" ry="65.3096559"></ellipse>
            <ellipse id="Oval-393" fill="#97DDFC" cx="290.834532" cy="213.247503" rx="34.2158273" ry="34.2197558"></ellipse>
            <ellipse id="Oval-393" fill="#FFFFFF" cx="325.05036" cy="299.631521" rx="75.942446" ry="75.9511654"></ellipse>
            <ellipse id="Oval-393" fill="#FFFFFF" cx="511.151079" cy="203.649279" rx="75.942446" ry="75.9511654"></ellipse>
            <rect id="Rectangle-892" fill="#FFFFFF" x="131.438849" y="197.806881" width="370.532374" height="107.667037"></rect>
            <ellipse id="Oval-393" fill="#FFFFFF" cx="587.093525" cy="270.419534" rx="75.942446" ry="75.9511654"></ellipse>
            <path d="M565.509859,376 C582.110776,364.158376 592.935252,344.739655 592.935252,322.792453 C592.935252,286.722926 563.69848,257.482797 527.633094,257.482797 C491.567707,257.482797 462.330935,286.722926 462.330935,322.792453 C462.330935,344.739655 473.155411,364.158376 489.756328,376 L565.509859,376 Z" id="Combined-Shape" fill="#97DDFC"></path>
            <ellipse id="Oval-393" fill="#FFFFFF" cx="452.733813" cy="289.198668" rx="75.942446" ry="75.9511654"></ellipse>
            <ellipse id="Oval-393" fill="#FFFFFF" cx="75.942446" cy="297.962264" rx="75.942446" ry="75.9511654"></ellipse>
            <g id="Group-26" transform="translate(288.748201, 179.027747)" fill="#97DDFC">
                <ellipse id="Oval-192" cx="59.0214282" cy="113.733398" rx="59.0214282" ry="59.0346376"></ellipse>
                <ellipse id="Oval-192" cx="244.755527" cy="128.742204" rx="40.0145276" ry="40.0234831"></ellipse>
                <ellipse id="Oval-192" cx="287.104235" cy="149.421004" rx="23.3418078" ry="23.3470318"></ellipse>
                <ellipse id="Oval-192" cx="158.557566" cy="86.2172532" rx="86.1979615" ry="86.2172532"></ellipse>
                <rect id="Rectangle-694" x="60.0217914" y="137.08043" width="227.082444" height="35.6876058"></rect>
            </g>
            <path d="M609.895218,376 C611.354866,370.120088 612.129496,363.969607 612.129496,357.63818 C612.129496,315.691509 578.128905,281.687014 536.18705,281.687014 C494.245196,281.687014 460.244604,315.691509 460.244604,357.63818 C460.244604,363.969607 461.019235,370.120088 462.478882,376 L609.895218,376 Z" id="Combined-Shape" fill="#FFFFFF"></path>
            <path d="M519.765722,338.024417 C521.225369,332.144506 522,325.994024 522,319.662597 C522,277.715927 487.999409,243.711432 446.057554,243.711432 C404.115699,243.711432 370.115108,277.715927 370.115108,319.662597 C370.115108,325.994024 370.889739,332.144506 372.349386,338.024417 L519.765722,338.024417 Z" id="Combined-Shape" fill="#FFFFFF"></path>
            <rect id="Rectangle-892" fill="#FFFFFF" x="207.381295" y="264.159822" width="277.899281" height="107.667037"></rect>
            <path d="M480.46932,371.865839 C481.496843,367.726657 482.042147,363.397006 482.042147,358.939978 C482.042147,329.411488 458.107324,305.473918 428.582224,305.473918 C399.057125,305.473918 375.122302,329.411488 375.122302,358.939978 C375.122302,363.397006 375.667606,367.726657 376.695129,371.865839 L480.46932,371.865839 Z" id="Combined-Shape" fill="#FFFFFF"></path>
        </g>
    </g>
</svg>