<?xml version="1.0" encoding="UTF-8" standalone="no"?>
<svg width="571px" height="34px" viewBox="0 0 571 34" version="1.1" xmlns="http://www.w3.org/2000/svg" xmlns:xlink="http://www.w3.org/1999/xlink">
    <!-- Generator: Sketch 3.7.2 (28276) - http://www.bohemiancoding.com/sketch -->
    <title>Page 1</title>
    <desc>Created with Sketch.</desc>
    <defs></defs>
    <g id="Welcome" stroke="none" stroke-width="1" fill="none" fill-rule="evenodd">
        <path d="M0,4 C17.8373126,4 17.8373126,30.4820842 35.6733116,30.4820842 C53.5093105,30.4820842 53.5093105,4 71.3453095,4 C89.1813085,4 89.1813085,30.4820842 107.017307,30.4820842 C124.851993,30.4820842 124.851993,4 142.687992,4 C160.523991,4 160.523991,30.4820842 178.35999,30.4820842 C196.195989,30.4820842 196.195989,4 214.033301,4 C231.870614,4 231.870614,30.4820842 249.706613,30.4820842 C267.539985,30.4820842 267.539985,4 285.37467,4 C303.209356,4 303.209356,30.4820842 321.044041,30.4820842 C338.88004,30.4820842 338.88004,4 356.717352,4 C374.554665,4 374.554665,30.4820842 392.393291,30.4820842 C410.231917,30.4820842 410.231917,4 428.06923,4 C445.906543,4 445.906543,30.4820842 463.745169,30.4820842 C481.583795,30.4820842 481.583795,4 499.422421,4 C517.263674,4 517.263674,30.4820842 535.104928,30.4820842 C552.946181,30.4820842 552.946181,4 570.787435,4" id="Page-1" stroke="#FFFFFF" stroke-width="7" transform="translate(285.393717, 17.241042) scale(1, -1) translate(-285.393717, -17.241042) "></path>
    </g>
</svg>