<?xml version="1.0" encoding="UTF-8" standalone="no"?>
<svg width="722px" height="41px" viewBox="0 0 722 41" version="1.1" xmlns="http://www.w3.org/2000/svg" xmlns:xlink="http://www.w3.org/1999/xlink">
    <!-- Generator: Sketch 3.7.2 (28276) - http://www.bohemiancoding.com/sketch -->
    <title>Page 1</title>
    <desc>Created with Sketch.</desc>
    <defs></defs>
    <g id="Welcome" stroke="none" stroke-width="1" fill="none" fill-rule="evenodd">
        <path d="M0,4 C22.5522431,4 22.5522431,37.4820842 45.1028254,37.4820842 C67.6534078,37.4820842 67.6534078,4 90.2039901,4 C112.754572,4 112.754572,37.4820842 135.305155,37.4820842 C157.854076,37.4820842 157.854076,4 180.404659,4 C202.955241,4 202.955241,37.4820842 225.505823,37.4820842 C248.056405,37.4820842 248.056405,4 270.608649,4 C293.160892,4 293.160892,37.4820842 315.711474,37.4820842 C338.258735,37.4820842 338.258735,4 360.807656,4 C383.356578,4 383.356578,37.4820842 405.905499,37.4820842 C428.456082,37.4820842 428.456082,4 451.008325,4 C473.560568,4 473.560568,37.4820842 496.114472,37.4820842 C518.668376,37.4820842 518.668376,4 541.220619,4 C563.772862,4 563.772862,37.4820842 586.326766,37.4820842 C608.88067,37.4820842 608.88067,4 631.434574,4 C653.991799,4 653.991799,37.4820842 676.549025,37.4820842 C699.106251,37.4820842 699.106251,4 721.663476,4" id="Page-1" stroke="#FFFFFF" stroke-width="7" transform="translate(360.831738, 20.741042) scale(1, -1) translate(-360.831738, -20.741042) "></path>
    </g>
</svg>