<?xml version="1.0" encoding="UTF-8" standalone="no"?>
<svg width="1067px" height="57px" viewBox="0 0 1067 57" version="1.1" xmlns="http://www.w3.org/2000/svg" xmlns:xlink="http://www.w3.org/1999/xlink">
    <!-- Generator: Sketch 3.7.2 (28276) - http://www.bohemiancoding.com/sketch -->
    <title>Page 1</title>
    <desc>Created with Sketch.</desc>
    <defs></defs>
    <g id="Welcome" stroke="none" stroke-width="1" fill="none" fill-rule="evenodd">
        <path d="M0,4 C33.3292273,4 33.3292273,53.4820842 66.6560001,53.4820842 C99.9827728,53.4820842 99.9827728,4 133.309546,4 C166.636318,4 166.636318,53.4820842 199.963091,53.4820842 C233.28741,53.4820842 233.28741,4 266.614182,4 C299.940955,4 299.940955,53.4820842 333.267728,53.4820842 C366.594501,53.4820842 366.594501,4 399.923728,4 C433.252955,4 433.252955,53.4820842 466.579728,53.4820842 C499.901592,53.4820842 499.901592,4 533.22591,4 C566.550229,4 566.550229,53.4820842 599.874547,53.4820842 C633.20132,53.4820842 633.20132,4 666.530547,4 C699.859774,4 699.859774,53.4820842 733.191456,53.4820842 C766.523138,53.4820842 766.523138,4 799.852365,4 C833.181592,4 833.181592,53.4820842 866.513274,53.4820842 C899.844956,53.4820842 899.844956,4 933.176637,4 C966.513228,4 966.513228,53.4820842 999.849819,53.4820842 C1033.18641,53.4820842 1033.18641,4 1066.523,4" id="Page-1" stroke="#FFFFFF" stroke-width="7" transform="translate(533.261500, 28.741042) scale(1, -1) translate(-533.261500, -28.741042) "></path>
    </g>
</svg>