<?xml version="1.0" encoding="UTF-8" standalone="no"?>
<svg width="797px" height="485px" viewBox="0 0 797 485" version="1.1" xmlns="http://www.w3.org/2000/svg" xmlns:xlink="http://www.w3.org/1999/xlink">
    <!-- Generator: Sketch 3.7.2 (28276) - http://www.bohemiancoding.com/sketch -->
    <title>Group</title>
    <desc>Created with Sketch.</desc>
    <defs>
        <filter x="-50%" y="-50%" width="200%" height="200%" filterUnits="objectBoundingBox" id="filter-1">
            <feOffset dx="10" dy="0" in="SourceAlpha" result="shadowOffsetOuter1"></feOffset>
            <feGaussianBlur stdDeviation="10" in="shadowOffsetOuter1" result="shadowBlurOuter1"></feGaussianBlur>
            <feColorMatrix values="0 0 0 0 0   0 0 0 0 0   0 0 0 0 0  0 0 0 0.5 0" type="matrix" in="shadowBlurOuter1" result="shadowMatrixOuter1"></feColorMatrix>
            <feMerge>
                <feMergeNode in="shadowMatrixOuter1"></feMergeNode>
                <feMergeNode in="SourceGraphic"></feMergeNode>
            </feMerge>
        </filter>
        <filter x="-50%" y="-50%" width="200%" height="200%" filterUnits="objectBoundingBox" id="filter-2">
            <feOffset dx="10" dy="2" in="SourceAlpha" result="shadowOffsetOuter1"></feOffset>
            <feGaussianBlur stdDeviation="10" in="shadowOffsetOuter1" result="shadowBlurOuter1"></feGaussianBlur>
            <feColorMatrix values="0 0 0 0 0   0 0 0 0 0   0 0 0 0 0  0 0 0 0.5 0" type="matrix" in="shadowBlurOuter1" result="shadowMatrixOuter1"></feColorMatrix>
            <feMerge>
                <feMergeNode in="shadowMatrixOuter1"></feMergeNode>
                <feMergeNode in="SourceGraphic"></feMergeNode>
            </feMerge>
        </filter>
        <filter x="-50%" y="-50%" width="200%" height="200%" filterUnits="objectBoundingBox" id="filter-3">
            <feOffset dx="13" dy="10" in="SourceAlpha" result="shadowOffsetOuter1"></feOffset>
            <feGaussianBlur stdDeviation="10" in="shadowOffsetOuter1" result="shadowBlurOuter1"></feGaussianBlur>
            <feColorMatrix values="0 0 0 0 0   0 0 0 0 0   0 0 0 0 0  0 0 0 0.5 0" type="matrix" in="shadowBlurOuter1" result="shadowMatrixOuter1"></feColorMatrix>
            <feMerge>
                <feMergeNode in="shadowMatrixOuter1"></feMergeNode>
                <feMergeNode in="SourceGraphic"></feMergeNode>
            </feMerge>
        </filter>
        <filter x="-50%" y="-50%" width="200%" height="200%" filterUnits="objectBoundingBox" id="filter-4">
            <feOffset dx="10" dy="0" in="SourceAlpha" result="shadowOffsetOuter1"></feOffset>
            <feGaussianBlur stdDeviation="10" in="shadowOffsetOuter1" result="shadowBlurOuter1"></feGaussianBlur>
            <feColorMatrix values="0 0 0 0 0   0 0 0 0 0   0 0 0 0 0  0 0 0 0.5 0" type="matrix" in="shadowBlurOuter1" result="shadowMatrixOuter1"></feColorMatrix>
            <feMerge>
                <feMergeNode in="shadowMatrixOuter1"></feMergeNode>
                <feMergeNode in="SourceGraphic"></feMergeNode>
            </feMerge>
        </filter>
        <polygon id="path-5" points="453 86 453 190 349 138"></polygon>
        <filter x="-50%" y="-50%" width="200%" height="200%" filterUnits="objectBoundingBox" id="filter-6">
            <feGaussianBlur stdDeviation="1.5" in="SourceAlpha" result="shadowBlurInner1"></feGaussianBlur>
            <feOffset dx="0" dy="1" in="shadowBlurInner1" result="shadowOffsetInner1"></feOffset>
            <feComposite in="shadowOffsetInner1" in2="SourceAlpha" operator="arithmetic" k2="-1" k3="1" result="shadowInnerInner1"></feComposite>
            <feColorMatrix values="0 0 0 0 0   0 0 0 0 0   0 0 0 0 0  0 0 0 0.5 0" type="matrix" in="shadowInnerInner1"></feColorMatrix>
        </filter>
        <path d="M349,346 L349,450 L245,398 L349,346 Z M349,346 L349,450 L453,398 L349,346 Z" id="path-7"></path>
        <filter x="-50%" y="-50%" width="200%" height="200%" filterUnits="objectBoundingBox" id="filter-8">
            <feOffset dx="10" dy="10" in="SourceAlpha" result="shadowOffsetOuter1"></feOffset>
            <feGaussianBlur stdDeviation="10" in="shadowOffsetOuter1" result="shadowBlurOuter1"></feGaussianBlur>
            <feColorMatrix values="0 0 0 0 0   0 0 0 0 0   0 0 0 0 0  0 0 0 0.5 0" type="matrix" in="shadowBlurOuter1"></feColorMatrix>
        </filter>
        <filter x="-50%" y="-50%" width="200%" height="200%" filterUnits="objectBoundingBox" id="filter-9">
            <feOffset dx="7" dy="2" in="SourceAlpha" result="shadowOffsetOuter1"></feOffset>
            <feGaussianBlur stdDeviation="10" in="shadowOffsetOuter1" result="shadowBlurOuter1"></feGaussianBlur>
            <feColorMatrix values="0 0 0 0 0   0 0 0 0 0   0 0 0 0 0  0 0 0 0.5 0" type="matrix" in="shadowBlurOuter1" result="shadowMatrixOuter1"></feColorMatrix>
            <feMerge>
                <feMergeNode in="shadowMatrixOuter1"></feMergeNode>
                <feMergeNode in="SourceGraphic"></feMergeNode>
            </feMerge>
        </filter>
        <polygon id="path-10" points="349 294 349 398 245 346"></polygon>
        <filter x="-50%" y="-50%" width="200%" height="200%" filterUnits="objectBoundingBox" id="filter-11">
            <feOffset dx="2" dy="2" in="SourceAlpha" result="shadowOffsetOuter1"></feOffset>
            <feGaussianBlur stdDeviation="2" in="shadowOffsetOuter1" result="shadowBlurOuter1"></feGaussianBlur>
            <feColorMatrix values="0 0 0 0 0   0 0 0 0 0   0 0 0 0 0  0 0 0 0.5 0" type="matrix" in="shadowBlurOuter1"></feColorMatrix>
        </filter>
        <filter x="-50%" y="-50%" width="200%" height="200%" filterUnits="objectBoundingBox" id="filter-12">
            <feGaussianBlur stdDeviation="1.5" in="SourceAlpha" result="shadowBlurInner1"></feGaussianBlur>
            <feOffset dx="0" dy="1" in="shadowBlurInner1" result="shadowOffsetInner1"></feOffset>
            <feComposite in="shadowOffsetInner1" in2="SourceAlpha" operator="arithmetic" k2="-1" k3="1" result="shadowInnerInner1"></feComposite>
            <feColorMatrix values="0 0 0 0 0   0 0 0 0 0   0 0 0 0 0  0 0 0 0.5 0" type="matrix" in="shadowInnerInner1"></feColorMatrix>
        </filter>
        <polygon id="path-13" points="141 190 141 294 37 242"></polygon>
        <filter x="-50%" y="-50%" width="200%" height="200%" filterUnits="objectBoundingBox" id="filter-14">
            <feOffset dx="0" dy="2" in="SourceAlpha" result="shadowOffsetOuter1"></feOffset>
            <feGaussianBlur stdDeviation="10" in="shadowOffsetOuter1" result="shadowBlurOuter1"></feGaussianBlur>
            <feColorMatrix values="0 0 0 0 0   0 0 0 0 0   0 0 0 0 0  0 0 0 0.5 0" type="matrix" in="shadowBlurOuter1"></feColorMatrix>
        </filter>
    </defs>
    <g id="Welcome" stroke="none" stroke-width="1" fill="none" fill-rule="evenodd">
        <g id="Group" filter="url(#filter-1)" transform="translate(349.000000, 242.000000)" stroke="#979797" fill="#D8D8D8">
            <polygon id="Triangle-37" transform="translate(156.000000, 52.000000) scale(-1, 1) translate(-156.000000, -52.000000) " points="208 0 208 104 104 52"></polygon>
            <polygon id="Triangle-37" transform="translate(156.000000, 156.000000) scale(-1, 1) translate(-156.000000, -156.000000) " points="208 104 208 208 104 156"></polygon>
            <polygon id="Triangle-37" points="104 104 104 208 0 156"></polygon>
            <polygon id="Triangle-37" points="104 0 104 104 0 52"></polygon>
            <polygon id="Triangle-37" points="208 52 208 156 104 104"></polygon>
        </g>
        <g id="Group" opacity="0.692688899" transform="translate(245.000000, 34.000000)" stroke="#979797" fill="#D8D8D8">
            <polygon id="Triangle-37" transform="translate(156.000000, 52.000000) scale(-1, 1) translate(-156.000000, -52.000000) " points="208 0 208 104 104 52"></polygon>
            <polygon id="Triangle-37" transform="translate(156.000000, 156.000000) scale(-1, 1) translate(-156.000000, -156.000000) " points="208 104 208 208 104 156"></polygon>
            <polygon id="Triangle-37" points="104 104 104 208 0 156"></polygon>
            <polygon id="Triangle-37" points="104 0 104 104 0 52"></polygon>
            <polygon id="Triangle-37" points="208 52 208 156 104 104"></polygon>
        </g>
        <polygon id="Triangle-37" fill="#D8D8D8" transform="translate(401.000000, 346.000000) scale(1, -1) translate(-401.000000, -346.000000) " points="453 294 453 398 349 346"></polygon>
        <g id="Group" filter="url(#filter-2)" transform="translate(37.000000, 138.000000)" stroke="#979797" fill="#D8D8D8">
            <polygon id="Triangle-37" transform="translate(156.000000, 52.000000) scale(-1, 1) translate(-156.000000, -52.000000) " points="208 0 208 104 104 52"></polygon>
            <polygon id="Triangle-37" transform="translate(156.000000, 156.000000) scale(-1, 1) translate(-156.000000, -156.000000) " points="208 104 208 208 104 156"></polygon>
            <polygon id="Triangle-37" points="104 104 104 208 0 156"></polygon>
            <polygon id="Triangle-37" points="104 0 104 104 0 52"></polygon>
            <polygon id="Triangle-37" points="208 52 208 156 104 104"></polygon>
        </g>
        <polygon id="Triangle-37" fill="#D8D8D8" transform="translate(297.000000, 242.000000) scale(-1, 1) translate(-297.000000, -242.000000) " points="349 190 349 294 245 242"></polygon>
        <g id="Group" filter="url(#filter-3)" opacity="0.569846082" transform="translate(557.000000, 190.000000)" stroke="#979797" fill="#D8D8D8">
            <polygon id="Triangle-37" transform="translate(156.000000, 52.000000) scale(-1, 1) translate(-156.000000, -52.000000) " points="208 0 208 104 104 52"></polygon>
            <polygon id="Triangle-37" transform="translate(156.000000, 156.000000) scale(-1, 1) translate(-156.000000, -156.000000) " points="208 104 208 208 104 156"></polygon>
            <polygon id="Triangle-37" points="104 104 104 208 0 156"></polygon>
            <polygon id="Triangle-37" points="104 0 104 104 0 52"></polygon>
            <polygon id="Triangle-37" points="208 52 208 156 104 104"></polygon>
        </g>
        <g id="Group" transform="translate(245.000000, 138.000000)" stroke="#979797" fill="#D8D8D8">
            <polygon id="Triangle-37" transform="translate(156.000000, 52.000000) scale(-1, 1) translate(-156.000000, -52.000000) " points="208 0 208 104 104 52"></polygon>
            <polygon id="Triangle-37" transform="translate(156.000000, 156.000000) scale(-1, 1) translate(-156.000000, -156.000000) " points="208 104 208 208 104 156"></polygon>
            <polygon id="Triangle-37" points="104 104 104 208 0 156"></polygon>
            <polygon id="Triangle-37" points="104 0 104 104 0 52"></polygon>
            <polygon id="Triangle-37" points="208 52 208 156 104 104"></polygon>
        </g>
        <g id="Group" filter="url(#filter-4)" transform="translate(349.000000, 34.000000)" stroke="#979797" fill="#D8D8D8">
            <polygon id="Triangle-37" transform="translate(156.000000, 52.000000) scale(-1, 1) translate(-156.000000, -52.000000) " points="208 0 208 104 104 52"></polygon>
            <polygon id="Triangle-37" transform="translate(156.000000, 156.000000) scale(-1, 1) translate(-156.000000, -156.000000) " points="208 104 208 208 104 156"></polygon>
            <polygon id="Triangle-37" points="104 104 104 208 0 156"></polygon>
            <polygon id="Triangle-37" points="104 0 104 104 0 52"></polygon>
            <polygon id="Triangle-37" points="208 52 208 156 104 104"></polygon>
        </g>
        <g id="Triangle-37" transform="translate(401.000000, 138.000000) scale(-1, 1) translate(-401.000000, -138.000000) ">
            <use fill="#FFFFFF" fill-rule="evenodd" xlink:href="#path-5"></use>
            <use fill="black" fill-opacity="1" filter="url(#filter-6)" xlink:href="#path-5"></use>
        </g>
        <polygon id="Triangle-37" fill="#D8D8D8" points="349 242 349 346 245 294"></polygon>
        <g id="Combined-Shape" opacity="0.693854944">
            <use fill="black" fill-opacity="1" filter="url(#filter-8)" xlink:href="#path-7"></use>
            <use fill="#D8D8D8" fill-rule="evenodd" xlink:href="#path-7"></use>
        </g>
        <polygon id="Triangle-37" fill="#D8D8D8" transform="translate(401.000000, 294.000000) scale(-1, 1) translate(-401.000000, -294.000000) " points="453 242 453 346 349 294"></polygon>
        <polygon id="Triangle-37" fill="#D8D8D8" transform="translate(297.000000, 346.000000) scale(-1, 1) translate(-297.000000, -346.000000) " points="349 294 349 398 245 346"></polygon>
        <g id="Group" filter="url(#filter-9)" transform="translate(453.000000, 138.000000)" stroke="#979797" fill="#D8D8D8">
            <polygon id="Triangle-37" transform="translate(156.000000, 52.000000) scale(-1, 1) translate(-156.000000, -52.000000) " points="208 0 208 104 104 52"></polygon>
            <polygon id="Triangle-37" transform="translate(156.000000, 156.000000) scale(-1, 1) translate(-156.000000, -156.000000) " points="208 104 208 208 104 156"></polygon>
            <polygon id="Triangle-37" points="104 104 104 208 0 156"></polygon>
            <polygon id="Triangle-37" points="104 0 104 104 0 52"></polygon>
            <polygon id="Triangle-37" points="208 52 208 156 104 104"></polygon>
        </g>
        <g id="Triangle-37" transform="translate(297.000000, 346.000000) scale(-1, 1) translate(-297.000000, -346.000000) ">
            <use fill="black" fill-opacity="1" filter="url(#filter-11)" xlink:href="#path-10"></use>
            <use fill="#FFFFFF" fill-rule="evenodd" xlink:href="#path-10"></use>
            <use fill="black" fill-opacity="1" filter="url(#filter-12)" xlink:href="#path-10"></use>
        </g>
        <polygon id="Triangle-37" fill="#FFFFFF" transform="translate(505.000000, 242.000000) scale(-1, 1) translate(-505.000000, -242.000000) " points="557 190 557 294 453 242"></polygon>
        <g id="Triangle-37" transform="translate(89.000000, 242.000000) scale(-1, 1) translate(-89.000000, -242.000000) ">
            <use fill="black" fill-opacity="1" filter="url(#filter-14)" xlink:href="#path-13"></use>
            <use fill="#FFFFFF" fill-rule="evenodd" xlink:href="#path-13"></use>
        </g>
    </g>
</svg>