<?xml version="1.0" encoding="UTF-8" standalone="no"?>
<svg width="481px" height="245px" viewBox="0 0 481 245" version="1.1" xmlns="http://www.w3.org/2000/svg" xmlns:xlink="http://www.w3.org/1999/xlink">
    <!-- Generator: Sketch 3.8.2 (29753) - http://www.bohemiancoding.com/sketch -->
    <title>Group 3</title>
    <desc>Created with Sketch.</desc>
    <defs></defs>
    <g id="Welcome" stroke="none" stroke-width="1" fill="none" fill-rule="evenodd">
        <g id="Group-3">
            <path d="M153.997297,244.446857 C174.70216,244.446857 224.588345,235.552537 269.948623,218.206112 C312.532608,201.921382 350.968019,177.36373 362.285421,170.270961 C385.046714,156.006152 286.935135,182.207284 286.935135,143.190349 C286.935135,64.1085027 222.702517,0 143.467568,0 C64.2326179,0 0,64.1085027 0,143.190349 C0,222.272194 74.7623476,244.446857 153.997297,244.446857 Z" id="Oval-63" fill="#4990E2"></path>
            <path d="M93.1336104,130.744313 L90.1614228,130.744313 C90.1610151,130.704032 90.1608108,130.663702 90.1608108,130.623324 C90.1608108,124.141752 95.4253359,118.887399 101.919457,118.887399 C108.413578,118.887399 113.678103,124.141752 113.678103,130.623324 C113.678103,130.663702 113.677898,130.704032 113.677491,130.744313 L108.332955,130.744313 L108.332955,130.687776 L107.743535,130.687776 C107.743733,130.6682 107.743833,130.648601 107.743833,130.628978 C107.743833,127.479055 105.185372,124.925538 102.029351,124.925538 C98.8733293,124.925538 96.3148685,127.479055 96.3148685,130.628978 C96.3148685,130.648601 96.3149678,130.6682 96.3151659,130.687776 L93.1336104,130.687776 L93.1336104,130.744313 Z" id="Combined-Shape" fill="#FFFFFF"></path>
            <path d="M479.26945,110.357592 C470.353441,134.604261 447.01693,151.903667 419.632105,151.903667 C384.557918,151.903667 356.124672,123.525362 356.124672,88.5189488 C356.124672,68.0236346 365.870986,49.8002952 380.990163,38.213929 C379.792742,43.1829578 379.158456,48.3708575 379.158456,53.7066164 C379.158456,90.1640728 408.770282,119.718681 445.298321,119.718681 C457.719147,119.718681 469.340292,116.301457 479.26945,110.357592 Z" id="Combined-Shape" fill="#4990E2" transform="translate(417.697061, 95.058798) rotate(-8.000000) translate(-417.697061, -95.058798) "></path>
            <path d="M393.936085,137.994906 C385.020076,162.241575 361.683566,179.540982 334.29874,179.540982 C299.224553,179.540982 270.791307,151.162677 270.791307,116.156263 C270.791307,95.6609492 280.537621,77.4376098 295.656799,65.8512437 C294.459377,70.8202724 293.825091,76.0081722 293.825091,81.343931 C293.825091,117.801387 323.436917,147.355995 359.964956,147.355995 C372.385782,147.355995 384.006927,143.938771 393.936085,137.994906 Z" id="Combined-Shape" fill="#4990E2" transform="translate(332.363696, 122.696113) rotate(-26.000000) translate(-332.363696, -122.696113) "></path>
            <path d="M19.4255023,130.744313 L16.4533146,130.744313 C16.452907,130.704032 16.4527027,130.663702 16.4527027,130.623324 C16.4527027,124.141752 21.7172278,118.887399 28.2113486,118.887399 C34.7054694,118.887399 39.9699945,124.141752 39.9699945,130.623324 C39.9699945,130.663702 39.9697902,130.704032 39.9693825,130.744313 L34.6248465,130.744313 L34.6248465,130.687776 L34.0354272,130.687776 C34.0356253,130.6682 34.0357246,130.648601 34.0357246,130.628978 C34.0357246,127.479055 31.4772638,124.925538 28.3212425,124.925538 C25.1652212,124.925538 22.6067604,127.479055 22.6067604,130.628978 C22.6067604,130.648601 22.6068597,130.6682 22.6070578,130.687776 L19.4255023,130.687776 L19.4255023,130.744313 Z" id="Combined-Shape" fill="#FFFFFF"></path>
            <path d="M79.7580613,236.591018 C101.171397,242.501284 126.63832,244.802245 154.057916,244.802245 C189.935044,244.802245 224.76614,235.174829 260.958744,222.492291 C279.33051,216.054495 293.482425,209.411012 308.24488,202.369759 C316.122884,198.612185 327.781526,192.802923 331.341968,189.331431 C335.262847,185.508507 345.633687,183.063082 345.633687,180.145117 C345.633687,170.089934 248.518623,204.746955 208.872443,195.874459 C168.420988,186.821749 128.391523,152.386059 90.7620089,152.386059 C16.2520792,152.386059 18.4337034,175.559858 18.4337034,195.874461 C18.4337034,208.713305 42.9828634,226.440744 79.7580613,236.591018 Z" id="Oval-74" fill="#D8D8D8"></path>
        </g>
    </g>
</svg>