<?xml version="1.0" encoding="UTF-8" standalone="no"?>
<svg width="481px" height="245px" viewBox="0 0 481 245" version="1.1" xmlns="http://www.w3.org/2000/svg" xmlns:xlink="http://www.w3.org/1999/xlink">
    <!-- Generator: Sketch 3.8.3 (29802) - http://www.bohemiancoding.com/sketch -->
    <title>Group 57</title>
    <desc>Created with Sketch.</desc>
    <defs></defs>
    <g id="Welcome" stroke="none" stroke-width="1" fill="none" fill-rule="evenodd">
        <g id="Group-57">
            <path d="M153.997297,244.446857 C174.70216,244.446857 224.588345,235.552537 269.948623,218.206112 C312.532608,201.921382 350.968019,177.36373 362.285421,170.270961 C385.046714,156.006152 286.935135,182.207284 286.935135,143.190349 C286.935135,64.1085027 222.702517,0 143.467568,0 C64.2326179,0 0,64.1085027 0,143.190349 C0,222.272194 74.7623476,244.446857 153.997297,244.446857 Z" id="Oval-63" fill="#4990E2"></path>
            <path d="M479.26945,110.357592 C470.353441,134.604261 447.01693,151.903667 419.632105,151.903667 C384.557918,151.903667 356.124672,123.525362 356.124672,88.5189488 C356.124672,68.0236346 365.870986,49.8002952 380.990163,38.213929 C379.792742,43.1829578 379.158456,48.3708575 379.158456,53.7066164 C379.158456,90.1640728 408.770282,119.718681 445.298321,119.718681 C457.719147,119.718681 469.340292,116.301457 479.26945,110.357592 Z" id="Combined-Shape" fill="#4990E2" transform="translate(417.697061, 95.058798) rotate(-8.000000) translate(-417.697061, -95.058798) "></path>
            <path d="M393.936085,137.994906 C385.020076,162.241575 361.683566,179.540982 334.29874,179.540982 C299.224553,179.540982 270.791307,151.162677 270.791307,116.156263 C270.791307,95.6609492 280.537621,77.4376098 295.656799,65.8512437 C294.459377,70.8202724 293.825091,76.0081722 293.825091,81.343931 C293.825091,117.801387 323.436917,147.355995 359.964956,147.355995 C372.385782,147.355995 384.006927,143.938771 393.936085,137.994906 Z" id="Combined-Shape" fill="#4990E2" transform="translate(332.363696, 122.696113) rotate(-26.000000) translate(-332.363696, -122.696113) "></path>
            <circle id="Oval-2025" fill="#FFFFFF" cx="101.919457" cy="130" r="5"></circle>
            <g id="Group-56" transform="translate(96.919457, 120.000000)" fill="#FFFFFF">
                <circle id="Oval-2025" cx="5" cy="10" r="5"></circle>
                <circle id="Oval-2025" cx="5" cy="5" r="5"></circle>
                <rect id="Rectangle-1865" x="0" y="5" width="10" height="5"></rect>
            </g>
            <path d="M79.7580613,236.591018 C101.171397,242.501284 126.63832,244.802245 154.057916,244.802245 C189.935044,244.802245 224.76614,235.174829 260.958744,222.492291 C279.33051,216.054495 293.482425,209.411012 308.24488,202.369759 C316.122884,198.612185 327.781526,192.802923 331.341968,189.331431 C335.262847,185.508507 345.633687,183.063082 345.633687,180.145117 C345.633687,170.089934 248.518623,204.746955 208.872443,195.874459 C168.420988,186.821749 128.391523,152.386059 90.7620089,152.386059 C16.2520792,152.386059 18.4337034,175.559858 18.4337034,195.874461 C18.4337034,208.713305 42.9828634,226.440744 79.7580613,236.591018 Z" id="Oval-74" fill="#D8D8D8"></path>
            <g id="Group-56" transform="translate(23.000000, 120.000000)" fill="#FFFFFF">
                <circle id="Oval-2025" cx="5" cy="10" r="5"></circle>
                <circle id="Oval-2025" cx="5" cy="5" r="5"></circle>
                <rect id="Rectangle-1865" x="0" y="5" width="10" height="5"></rect>
            </g>
        </g>
    </g>
</svg>