<?xml version="1.0" encoding="utf-8"?>
<!-- Generator: Adobe Illustrator 15.0.0, SVG Export Plug-In . SVG Version: 6.00 Build 0)  -->
<!DOCTYPE svg PUBLIC "-//W3C//DTD SVG 1.1//EN" "http://www.w3.org/Graphics/SVG/1.1/DTD/svg11.dtd">
<svg version="1.1" id="Layer_1" xmlns="http://www.w3.org/2000/svg" xmlns:xlink="http://www.w3.org/1999/xlink" x="0px" y="0px"
	 width="720px" height="180px" viewBox="0 0 720 180" enable-background="new 0 0 720 180" xml:space="preserve">
<g>
	<path fill="#FFFFFF" d="M214.774,86.852c0,7.221-4.773,14.446-12.119,16.525c7.345,1.714,12.119,9.793,12.119,16.894v16.278
		c0,10.405-8.324,18.607-18.361,18.607c-10.037,0-18.361-8.325-18.361-18.238V70.817c0-1.469,1.225-2.204,2.57-2.204h16.035
		C206.451,68.613,214.774,76.447,214.774,86.852z M210.98,86.73c-0.123-8.325-6.61-14.322-14.322-14.567h-14.811v29.377h14.566
		C204.492,101.54,210.98,94.809,210.98,86.73z M181.847,105.335v31.583c0,7.956,7.099,14.564,14.566,14.564
		c7.957,0,14.567-7.098,14.567-14.564v-16.647c0-8.202-6.121-14.936-14.567-14.936H181.847z"/>
	<path fill="#FFFFFF" d="M224.561,152.461V70.449c0-2.693,3.794-2.814,3.794,0v82.012
		C228.355,155.399,224.561,155.522,224.561,152.461z"/>
	<path fill="#FFFFFF" d="M255.651,110.354h18.116c1.347,0,2.571,0.735,2.571,2.448v23.746c0,10.649-8.568,18.607-18.851,18.607
		c-10.772,0-18.728-8.079-18.728-18.73V85.995c0-10.526,8.568-18.729,18.728-18.729c9.915,0,18.729,8.202,18.851,18.729
		c0,2.815-3.917,2.938-3.917,0c0-8.446-6.854-14.934-14.934-14.934c-8.202,0-14.933,6.61-14.933,14.934v50.431
		c0,8.079,6.242,14.813,14.933,14.813c8.202,0,14.934-6.734,14.934-14.69v-22.4h-16.77c-1.103,0-1.836-0.734-1.836-1.837
		C253.815,111.21,254.548,110.354,255.651,110.354z"/>
	<path fill="#FFFFFF" d="M287.35,68.491h16.035c10.037,0,18.483,8.201,18.483,18.484v8.2c0,7.836-7.589,15.057-14.322,16.894
		c7.834,1.714,14.444,9.547,14.444,16.891v23.625c0,2.815-3.794,2.449-3.794,0v-23.625c0-8.688-9.181-15.056-17.382-15.056h-12.118
		v38.681c0,2.572-3.795,2.693-3.795,0V70.817C284.902,69.226,286.125,68.491,287.35,68.491z M300.814,110.108
		c7.834,0,17.26-6.365,17.26-14.934v-8.323c0-8.078-6.611-14.689-14.689-14.689h-14.688v37.945H300.814z"/>
	<path fill="#FFFFFF" d="M361.032,72.286h-26.685v31.826h25.338c2.569,0,2.569,3.794,0,3.794h-25.338v27.907
		c0,7.836,6.487,14.69,14.199,14.69h12.485c2.693,0,2.693,3.794,0,3.794h-12.485c-10.282,0-17.995-8.568-17.995-18.484V70.817
		c0-1.591,0.98-2.204,2.326-2.204h28.154C363.235,68.613,363.479,72.286,361.032,72.286z"/>
	<path fill="#FFFFFF" d="M406.802,136.06c0,10.159-8.077,18.238-18.238,18.238h-15.546c-1.346,0-2.57-1.225-2.57-2.446V70.939
		c0-1.346,1.225-2.326,2.57-2.326h15.546c10.161,0,18.238,8.079,18.238,18.239V136.06z M374.24,72.286v78.463h14.323
		c8.078,0,14.566-6.61,14.566-14.689V86.73c0-7.956-6.488-14.444-14.566-14.444H374.24z"/>
	<path fill="#FFFFFF" d="M443.765,61.391c0.982-2.447,4.409-2.081,3.919,0.735c-1.593,4.651-10.282,32.193-18.117,56.55
		c-5.753,18.118-11.383,37.458-12.853,40.396c-1.469,2.938-4.896,1.348-3.672-1.101h-0.123L443.765,61.391z"/>
	<path fill="#FFFFFF" d="M469.854,61.391c0.979-2.447,4.407-2.081,3.918,0.735c-1.593,4.651-10.282,32.193-18.116,56.55
		c-5.754,18.118-11.386,37.458-12.853,40.396c-1.471,2.938-4.896,1.348-3.674-1.101h-0.121L469.854,61.391z"/>
	<path fill="#FFFFFF" d="M516.354,152.953v-38.927h-29.623v38.927c0,2.692-3.795,3.059-3.795,0V69.837c0-2.57,3.795-2.814,3.795,0
		v40.518h29.623V69.837c0-3.06,3.916-2.693,3.916,0v83.116C520.271,156.135,516.354,155.769,516.354,152.953z"/>
	<path fill="#FFFFFF" d="M565.188,152.953c0,2.324-3.794,2.324-3.794,0v-29.257h-28.766v29.257c0,2.446-3.797,2.937-3.797,0V95.544
		c0-3.918,0.858-7.713,3.797-11.262c4.039-4.896,8.689-10.404,12.73-15.424c0.732-0.856,2.446-1.102,3.426-0.245l12.853,15.668
		c3.062,3.672,3.551,7.344,3.551,11.262V152.953z M561.395,95.544c0-3.061-0.734-6.61-2.693-8.692l-11.629-14.077L535.444,86.73
		c-1.96,2.204-2.815,5.753-2.815,8.814v24.48h28.766V95.544z"/>
	<path fill="#FFFFFF" d="M592.48,154.787c-10.405,0-18.361-8.445-18.361-18.604V86.118c0-10.16,8.322-18.116,18.361-18.116
		c9.791,0,18.238,7.589,18.482,18.116c0,3.061-3.795,2.326-3.795,0c0-7.712-6.854-14.444-14.688-14.444
		c-7.836,0-14.567,6.61-14.567,14.444v50.308c0,7.347,6.242,14.567,14.567,14.567c8.079,0,14.688-6.365,14.688-14.444
		c0-2.447,3.795-2.447,3.795,0C610.719,146.709,602.639,154.787,592.48,154.787z"/>
	<path fill="#FFFFFF" d="M618.671,70.083c0-2.204,3.794-1.958,3.794,0v38.436h6.119c8.079,0,15.546-5.142,17.994-13.956
		l6.979-25.092c0.612-2.081,4.284-1.468,3.672,0.857l-6.977,24.97c-1.96,6.731-7.59,13.221-14.444,15.057
		c6.731,1.957,12.484,7.833,14.444,14.935l6.854,27.295c0.245,1.592-2.816,2.693-3.55,0.369c-2.08-8.448-4.896-18.73-6.979-27.176
		c-2.202-8.691-9.792-13.709-17.994-13.709h-6.119v40.516c0,2.693-3.794,2.326-3.794,0V70.083z"/>
	<path fill="#FFFFFF" d="M680.163,67.756c9.67,0,18.114,7.957,18.605,18.117c-0.123,2.448-3.795,2.203-3.795,0
		c-0.246-8.079-6.978-14.322-14.811-14.322c-7.956,0-14.689,6.487-14.689,14.688v8.204c0,8.077,6.61,14.688,14.566,14.688
		c9.669,0.123,18.484,7.834,18.729,18.483v9.304c0,10.403-8.691,18.481-18.605,18.481c-9.793,0-18.484-8.078-18.484-18.481
		c0-2.204,3.795-2.204,3.795,0c0,8.199,6.733,14.811,14.689,14.811s14.811-6.611,14.811-14.811v-9.304
		c0-8.568-7.956-14.567-14.934-14.567c-10.405,0-18.361-8.813-18.361-18.604V86.24C661.679,75.835,670.124,67.756,680.163,67.756z"
		/>
	<g>
		<polygon fill-rule="evenodd" clip-rule="evenodd" fill="#FFFFFF" points="134.278,47.209 157.645,47.209 145.962,17.7 		"/>
		<polygon fill-rule="evenodd" clip-rule="evenodd" fill="#FFFFFF" points="145.496,80.846 143.186,79.513 142.74,80.286 
			146.39,82.396 146.39,76.395 145.496,76.395 		"/>
		<path fill-rule="evenodd" clip-rule="evenodd" fill="#FFFFFF" d="M155.075,154.49c1.343,0,2.564-0.731,2.569-2.195V48.103h-23.365
			v104.184c0,1.469,1.224,2.204,2.57,2.204 M144.222,61.923c0-2.125,0.055-2.48,0.494-3.202c0.531-0.87,1.284-0.777,1.284-0.777
			s0.75-0.092,1.282,0.777c0.441,0.722,0.496,1.077,0.496,3.202v9.732h-3.555V61.923z M139.773,61.923
			c0-2.125,0.055-2.48,0.493-3.202c0.532-0.87,1.284-0.777,1.284-0.777s0.75-0.092,1.282,0.777c0.441,0.722,0.496,1.077,0.496,3.202
			v9.732h-3.555V61.923z M145.932,87.573c-3.439,0-6.227-2.788-6.227-6.227s2.788-6.228,6.227-6.228s6.227,2.789,6.227,6.228
			S149.371,87.573,145.932,87.573z M152.227,71.627h-3.556v-9.733c0-2.124,0.056-2.479,0.494-3.201
			c0.532-0.87,1.284-0.778,1.284-0.778s0.75-0.092,1.282,0.778c0.442,0.722,0.497,1.077,0.497,3.201V71.627z"/>
		<path fill-rule="evenodd" clip-rule="evenodd" fill="#FFFFFF" d="M41.652,129.158H23.426c-1.346,0-2.57,0.735-2.57,2.205v20.923
			c0,1.469,1.225,2.204,2.57,2.204h18.226c1.346,0,2.57-0.735,2.57-2.204v-20.923C44.222,129.894,42.998,129.158,41.652,129.158z"/>
		<path fill-rule="evenodd" clip-rule="evenodd" fill="#FFFFFF" d="M72.57,111.097c0-1.467-1.224-2.202-2.57-2.202H51.774
			c-1.346,0-2.57,0.735-2.57,2.202l0,0h-0.001v41.189c0,1.469,1.225,2.204,2.571,2.204h18.225c1.346,0,2.571-0.735,2.571-2.204"/>
		<path fill-rule="evenodd" clip-rule="evenodd" fill="#FFFFFF" d="M98.346,88.63H80.121c-1.346,0-2.571,0.734-2.571,2.204v61.453
			c0,1.469,1.225,2.204,2.571,2.204h18.225c1.346,0,2.571-0.735,2.571-2.204V90.833C100.917,89.364,99.692,88.63,98.346,88.63z"/>
		<path fill-rule="evenodd" clip-rule="evenodd" fill="#FFFFFF" d="M126.693,68.365h-18.226c-1.346,0-2.57,0.734-2.57,2.204v81.718
			c0,1.469,1.224,2.204,2.57,2.204h18.226c1.346,0,2.57-0.735,2.57-2.204V70.568C129.264,69.099,128.039,68.365,126.693,68.365z"/>
	</g>
</g>
</svg>
