<?xml version="1.0" standalone="no"?>
<!DOCTYPE svg PUBLIC "-//W3C//DTD SVG 1.1//EN" "http://www.w3.org/Graphics/SVG/1.1/DTD/svg11.dtd" >
<svg xmlns="http://www.w3.org/2000/svg">
<metadata></metadata>
<defs>
<font id="oval_lightregular" horiz-adv-x="753" >
<font-face units-per-em="2048" ascent="1638" descent="-410" />
<missing-glyph horiz-adv-x="450" />
<glyph horiz-adv-x="0" />
<glyph horiz-adv-x="682" />
<glyph unicode=" "  horiz-adv-x="450" />
<glyph unicode="&#x09;" horiz-adv-x="450" />
<glyph unicode="&#xa0;" horiz-adv-x="450" />
<glyph unicode="!" horiz-adv-x="235" d="M2 43q0 55 51 55q49 0 49 -55q0 -25 -13 -39t-36 -14q-51 0 -51 53zM18 197v1214q0 18 16 26t32 0.5t16 -26.5v-1216q0 -21 -16 -30.5t-32 -1t-16 33.5z" />
<glyph unicode="&#x22;" horiz-adv-x="335" d="M16 946v434q0 19 16 27.5t32 0.5t16 -28v-434q0 -20 -16 -29.5t-32 -1t-16 30.5zM147 946v434q0 19 15.5 27t31 0.5t15.5 -27.5v-434q0 -20 -15.5 -28t-31 0.5t-15.5 27.5z" />
<glyph unicode="#" horiz-adv-x="1030" d="M-11.5 418q-1.5 15 0.5 30t7 15h197q8 41 98 495h-203q-20 0 -28 15.5t-0.5 31t24.5 15.5h219l74 399q16 35 43 28q21 -5 21 -26q0 -5 -1 -10q-27 -133 -73 -391h264l76 401q3 17 20.5 24t32 -1t10.5 -29q-43 -251 -72 -395h195q19 0 26 -15.5t-2.5 -31t-29.5 -15.5h-203 q-50 -283 -90 -495h219q8 0 10 -15t-2.5 -30t-11.5 -15h-227l-68 -364q-8 -38 -35 -39q-21 -1 -29 21q-4 10 -1 22l67 360h-264l-74 -374q-7 -24 -26.5 -29t-33.5 8t-9 33l73 362h-188q-4 0 -5.5 15zM260 465h268q14 83 44.5 243t45.5 248h-264q-19 -93 -49.5 -256.5 t-44.5 -234.5z" />
<glyph unicode="$" horiz-adv-x="811" d="M0 309q0 18 16 26t31.5 0.5t15.5 -26.5q0 -106 82 -176t189 -70q111 0 189.5 78.5t78.5 190.5v98q0 111 -82.5 187.5t-189.5 76.5q-138 0 -234 99.5t-96 234.5v62q0 133 88 225t215 100v135q0 17 16 24.5t32 0t16 -24.5v-135q126 -6 211.5 -84.5t85.5 -206.5 q0 -20 -16 -27.5t-32 0.5t-16 27q0 107 -76.5 168.5t-189.5 61.5q-112 0 -191.5 -75t-79.5 -189v-62q0 -109 78.5 -189.5t188.5 -80.5q135 0 234.5 -96t99.5 -232v-98q0 -130 -87 -226t-212 -108v-131q0 -18 -15.5 -25.5t-31 0t-15.5 25.5v131q-129 12 -216 99t-87 212z" />
<glyph unicode="%" horiz-adv-x="1040" d="M-12 -9.5q-7 15.5 4 38.5l891 1390q15 22 37 11q23 -11 18 -37q-2 -10 -8 -19v2q-65 -100 -431.5 -674.5t-453.5 -711.5q-12 -18 -31 -16.5t-26 17zM6 1139q0 129 62 213t176 84q101 0 167 -88.5t66 -219.5q0 -123 -60 -206.5t-171 -83.5q-101 0 -170.5 88t-69.5 213z M61 1139q0 -104 50 -174t135 -70q86 0 132 66t46 169q0 105 -49 176.5t-133 71.5t-132.5 -69.5t-48.5 -169.5zM467 309q0 129 62 213t176 84q101 0 167 -88t66 -219q0 -124 -60 -207.5t-171 -83.5q-101 0 -170.5 88t-69.5 213zM522 309q0 -104 50 -173.5t135 -69.5 q86 0 132 66t46 169q0 105 -49.5 176.5t-133.5 71.5t-132 -69.5t-48 -170.5z" />
<glyph unicode="&#x26;" horiz-adv-x="876" d="M0 299v170q0 91 47.5 165.5t126.5 110.5q-73 37 -117.5 110t-44.5 161v117q0 127 83.5 209.5t211.5 82.5q155 0 250 -133q9 -14 1 -30t-22.5 -19.5t-25.5 6.5q-73 113 -203 113q-98 0 -164.5 -64.5t-66.5 -164.5v-117q0 -95 61.5 -167.5t157.5 -72.5h260v98 q0 21 15.5 28.5t31.5 -0.5t16 -25v-101h140q18 0 26.5 -15t1.5 -29.5t-28 -14.5h-140v-410q0 -116 48 -182q47 -68 118 -68q20 0 29.5 -15.5t1 -30.5t-30.5 -15q-134 0 -206 182q-29 -75 -110.5 -132.5t-160.5 -57.5q-128 0 -217.5 92t-89.5 219zM63 299q0 -99 72.5 -173.5 t171.5 -74.5q104 0 176 78.5t72 179.5v408h-260q-102 0 -167 -76.5t-65 -171.5v-170z" />
<glyph unicode="'" horiz-adv-x="229" d="M18 946v434q0 19 16 27t32 0t16 -27v-434q0 -20 -16 -29.5t-32 -1t-16 30.5z" />
<glyph unicode="(" horiz-adv-x="436" d="M41 731q0 282 78.5 526.5t220.5 360.5q23 15 41.5 -3t1.5 -38l-4 -4q-132 -105 -203.5 -336t-71.5 -504q0 -269 72.5 -502t202.5 -342q21 -19 4.5 -39.5t-43.5 -7.5q-144 116 -221.5 359.5t-77.5 529.5z" />
<glyph unicode=")" horiz-adv-x="397" d="M-109 1577q-18 20 1.5 37.5t41.5 3.5q140 -116 218.5 -360.5t78.5 -526.5q0 -289 -76.5 -532t-220.5 -357q-20 -9 -36.5 12t-1.5 35q128 107 199 340t71 504q0 275 -70 506t-200 334z" />
<glyph unicode="*" horiz-adv-x="749" d="M25.5 931q-0.5 17 13.5 30l219 122q-36 21 -108.5 61.5t-108.5 61.5q-23 20 -8 44.5t43 11.5l211 -129l-4 249q0 19 15.5 26.5t31.5 -0.5t16 -26l-2 -252q29 18 100 63t109 67q15 10 30.5 2t17.5 -24t-13 -34l-215 -121q22 -12 67.5 -36t83 -44.5t66.5 -37.5 q24 -14 11 -41t-42 -17q-39 22 -108.5 66t-108.5 67l4 -254q0 -18 -16 -26t-31.5 -0.5t-15.5 26.5l4 252q-107 -62 -217 -133q-16 -11 -30 -1t-14.5 27z" />
<glyph unicode="+" horiz-adv-x="849" d="M9 738q7 16 26 16h287v309q0 15 15 23.5t30.5 2.5t15.5 -26v-309h293q20 0 28.5 -16t0.5 -32t-27 -16h-295v-307q0 -20 -15.5 -28t-30.5 0.5t-15 27.5v307h-287q-17 0 -25 16t-1 32z" />
<glyph unicode="," horiz-adv-x="272" d="M16 45q0 40 38 51q37 10 62 -15q22 -22 13 -61q-5 -23 -16.5 -60t-14.5 -48q-7 -27 -25.5 -31.5t-32 10.5t-9.5 35q3 12 10 35.5t10 40.5q-14 0 -24.5 13.5t-10.5 29.5z" />
<glyph unicode="-" horiz-adv-x="636" d="M25 630q-8 16 0 32t26 16h418q21 0 29 -16t-1 -32t-28 -16h-418q-18 0 -26 16z" />
<glyph unicode="." horiz-adv-x="309" d="M37 49q0 20 15.5 34.5t35.5 14.5t35.5 -14.5t15.5 -34.5t-15.5 -35.5t-35.5 -15.5t-35.5 15.5t-15.5 35.5z" />
<glyph unicode="/" horiz-adv-x="698" d="M-8 -78q0 8 4 17h-2l516 1615q8 20 25.5 26t30.5 -5t9 -33q-12 -34 -57 -174.5t-120 -377.5t-126 -394q-34 -107 -89 -286t-85 -273.5t-41 -116.5q-16 -32 -44 -25q-21 5 -21 27z" />
<glyph unicode="0" horiz-adv-x="755" d="M0 293v842q0 127 90 217t217 90t217 -89.5t90 -217.5v-842q0 -129 -88.5 -222.5t-218.5 -93.5q-128 0 -217.5 93.5t-89.5 222.5zM63 291q2 -98 72.5 -174t171.5 -76q103 0 173.5 75.5t70.5 174.5v844q0 98 -71.5 170.5t-172.5 72.5t-172.5 -71.5t-71.5 -171.5v-844z" />
<glyph unicode="1" horiz-adv-x="323" d="M-98.5 1373q-6.5 15 2 30.5t26.5 15.5h201q15 0 28 -11t13 -28v-1362q0 -21 -16 -31t-31.5 -2t-15.5 33v1340h-181q-20 0 -26.5 15z" />
<glyph unicode="2" horiz-adv-x="759" d="M0 41v315q1 130 94.5 218t216.5 88q100 3 171.5 74.5t68.5 170.5v213q0 102 -71 173t-173 71q-99 0 -171.5 -71t-72.5 -171q0 -19 -15.5 -28t-31.5 -1t-16 29q0 127 91 215t216 88t216 -88t91 -217v-215q0 -123 -88 -214t-215 -91q-98 -3 -173 -73.5t-75 -170.5v-293h525 q16 0 25.5 -15.5t3.5 -31.5t-29 -16h-547q-25 0 -33 8t-8 33z" />
<glyph unicode="3" horiz-adv-x="776" d="M-2 293q0 20 16 29.5t31.5 1.5t15.5 -31q0 -97 75.5 -168.5t170.5 -71.5q100 0 173 72t73 174v154q0 105 -72 176t-174 71q-19 0 -27 16t-0.5 32t27.5 16q102 0 174 73.5t72 178.5v102q0 96 -72.5 171t-173.5 75t-173.5 -70t-72.5 -170q0 -27 -15.5 -36.5t-31.5 2 t-16 34.5q0 129 90 217.5t219 88.5t219 -91t90 -221v-102q0 -94 -51 -171t-137 -112q91 -37 139.5 -109.5t48.5 -170.5v-154q0 -129 -90 -219t-219 -90t-219 89t-90 214z" />
<glyph unicode="4" horiz-adv-x="751" d="M0 631v766q0 22 16 30.5t31.5 0t15.5 -28.5v-748h482v746q0 21 16.5 30t32.5 0.5t16 -28.5v-1374q0 -24 -16 -32.5t-32.5 1.5t-16.5 31v565h-504q-18 0 -29.5 12.5t-11.5 28.5z" />
<glyph unicode="5" horiz-adv-x="739" d="M-10 293q0 22 16 31t31.5 -0.5t15.5 -30.5q0 -100 71.5 -169t170.5 -69t170.5 70.5t71.5 173.5v270q0 97 -73 170.5t-171 73.5h-254q-17 0 -28 12t-11 31v539q0 16 11 27.5t28 11.5h512q20 0 29.5 -16t1.5 -32t-31 -16h-488v-496h226q124 0 216.5 -88.5t92.5 -216.5v-270 q0 -129 -89.5 -218t-213.5 -89q-123 0 -213.5 88t-91.5 213z" />
<glyph unicode="6" horiz-adv-x="757" d="M0 299v827q0 126 93.5 218t221.5 92q68 0 128 -26t100 -73q12 -18 3 -33.5t-26 -15.5t-31 15q-34 33 -80.5 52t-93.5 19q-102 0 -177 -74.5t-75 -173.5v-403q20 44 52 76.5t60.5 47.5t63 23.5t48.5 9.5t28 1q126 0 218 -90.5t92 -219.5v-272q0 -131 -89.5 -222 t-220.5 -91q-133 0 -224 91t-91 222zM63 299q0 -104 73 -177t179 -73q105 0 175.5 73t70.5 177v272q0 102 -72 172t-174 72h-2q-103 -2 -176.5 -72t-73.5 -172v-272z" />
<glyph unicode="7" horiz-adv-x="663" d="M-37 1386q-7 16 0.5 32t24.5 16h532q35 0 35 -33v-238q0 -95 -63 -192l2 2q-55 -87 -166 -271.5t-166 -271.5q-45 -71 -45 -158v-256q0 -20 -15.5 -30t-31 -2t-15.5 32v256q0 115 56 191v-2l331 547h-2q52 87 52 155v207h-504q-18 0 -25 16z" />
<glyph unicode="8" horiz-adv-x="743" d="M0 299v170q0 88 54.5 169t133.5 114q-81 40 -128.5 111.5t-47.5 164.5v109q0 130 85.5 215.5t213.5 85.5t213.5 -85.5t85.5 -215.5v-109q0 -92 -49.5 -167.5t-130.5 -112.5q96 -40 144.5 -113.5t48.5 -165.5v-170q0 -132 -91 -223.5t-223 -91.5q-130 0 -219.5 92.5 t-89.5 222.5zM63 295q0 -102 73.5 -176t172.5 -74q102 0 176 73t74 177v174q0 103 -73.5 176.5t-174.5 73.5t-174.5 -73.5t-73.5 -176.5v-174zM76 1028q0 -107 64.5 -177.5t168.5 -70.5q103 0 171.5 71t68.5 177v109q0 103 -68 170t-170 67t-168.5 -66.5t-66.5 -170.5v-109z " />
<glyph unicode="9" horiz-adv-x="747" d="M-2 850v272q0 131 89 222.5t220 91.5q133 0 224.5 -91.5t91.5 -222.5v-827q0 -126 -94 -217.5t-222 -91.5q-68 0 -128 25.5t-99 72.5q-12 18 -3 34t25.5 16t30.5 -15q34 -33 80.5 -52.5t93.5 -19.5q102 0 177 74.5t75 173.5v403q-20 -44 -52 -76.5t-60.5 -47.5t-63 -23 t-48.5 -9t-28 -1q-126 0 -217.5 90t-91.5 219zM61 850q0 -102 72 -172t174 -72h2q103 2 176.5 72t73.5 172v272q0 104 -73 177t-179 73q-105 0 -175.5 -73t-70.5 -177v-272z" />
<glyph unicode=":" horiz-adv-x="301" d="M18 356q0 23 18 40.5t40 17.5q23 0 40 -17.5t17 -40.5t-17 -40t-40 -17q-22 0 -40 17t-18 40zM18 954q0 23 18 40.5t40 17.5q23 0 40 -17.5t17 -40.5t-17 -40t-40 -17q-22 0 -40 17t-18 40z" />
<glyph unicode=";" horiz-adv-x="301" d="M14 360q0 -16 10.5 -29.5t24.5 -13.5q-3 -17 -10 -40t-10 -35q-3 -15 5 -27.5t19.5 -17.5t24 2t18.5 28q3 10 14.5 48t16.5 61q13 52 -28 72q-33 15 -63 -4q-22 -15 -22 -44zM18 954q0 23 18 40.5t40 17.5q23 0 40 -17.5t17 -40.5t-17 -40t-40 -17q-22 0 -40 17t-18 40z " />
<glyph unicode="&#x3c;" horiz-adv-x="714" d="M14 672.5q0 16.5 19 25.5h-2l461 277q27 8 42 -15t-8 -40l-420 -248l422 -248q23 -17 8 -41t-40 -12l-465 276h2q-19 9 -19 25.5z" />
<glyph unicode="=" horiz-adv-x="686" d="M38 797.5q-7 15.5 2 31t26 15.5h417q17 0 24 -15.5t0 -31t-24 -15.5h-415q-23 0 -30 15.5zM39.5 583q-7.5 16 1 32t27.5 16h415q18 0 26 -16t0.5 -32t-26.5 -16h-415q-21 0 -28.5 16z" />
<glyph unicode="&#x3e;" horiz-adv-x="686" d="M31.5 383q-15.5 24 7.5 41l426 250q-53 31 -199.5 115.5t-224.5 130.5q-25 20 -7.5 44t46.5 9l459 -275h-2q19 -9 19 -25.5t-19 -25.5h2q-77 -46 -233.5 -138t-233.5 -138q-25 -12 -40.5 12z" />
<glyph unicode="?" horiz-adv-x="788" d="M-4 1100q0 138 99 234t237 96q134 0 234 -97t100 -237v-135q-3 -187 -189 -304q-60 -35 -96.5 -95t-36.5 -134v-205q0 -18 -16 -26t-31.5 -0.5t-15.5 26.5v209q1 88 46.5 163.5t116.5 119.5q160 94 160 250v131q0 112 -80.5 191t-191.5 79t-191.5 -77t-81.5 -189 q0 -19 -15.5 -27.5t-31.5 -0.5t-16 28zM266 49q0 22 13.5 36.5t35.5 14.5t37 -14.5t15 -36.5q0 -21 -15 -35t-37 -14t-35.5 13.5t-13.5 35.5z" />
<glyph unicode="@" horiz-adv-x="1288" d="M2 305v453q0 117 33 216.5t90 170.5t132 121t159 74t172 24q105 0 200.5 -35t172 -102.5t122 -177t45.5 -246.5v-760q0 -75 -45 -116.5t-106 -41.5t-104.5 41t-43.5 115v57q-83 -106 -266 -106q-128 -3 -224.5 91.5t-96.5 227.5v447q0 129 96 221t225 92q182 0 262 -100 v69q0 20 15.5 30t31 1.5t15.5 -31.5v-999q0 -47 26.5 -72.5t63.5 -25.5q35 0 61.5 26t26.5 74v760q0 98 -26.5 180.5t-72 141t-106.5 99t-129.5 60t-142.5 19.5q-99 0 -191.5 -35.5t-167.5 -102t-120.5 -172.5t-45.5 -235v-453q0 -122 44 -220.5t120 -161t174.5 -95.5 t210.5 -33q116 0 244 39q22 5 33 -8t5.5 -31t-24.5 -26q-121 -37 -258 -37q-125 0 -234 36.5t-193.5 106t-133.5 180.5t-49 250zM305 311q0 -106 76.5 -183.5t181.5 -74.5q106 0 184 53.5t78 147.5v541q0 101 -74 157t-186 58q-102 0 -181 -74.5t-79 -177.5v-447z" />
<glyph unicode="A" horiz-adv-x="757" d="M0 23v960q0 112 63 188q140 169 213 259q10 10 28 12q2 0 4 1q15 0 26 -9l215 -263q35 -42 47 -86.5t12 -101.5v-960q0 -18 -16 -26t-31.5 0t-15.5 26v489h-482v-489q1 -19 -15 -29q-8 -5 -17 -6q-7 0 -15 4q-16 8 -16 31zM63 573h482v410q0 97 -45 145l-195 236 l-194 -234q-48 -54 -48 -147v-410z" />
<glyph unicode="B" horiz-adv-x="747" d="M0 291v1106q0 18 12.5 27.5t30.5 9.5h268q124 0 213.5 -88.5t89.5 -217.5q0 -93 -56 -171.5t-146 -104.5q89 -21 145.5 -105t56.5 -178v-272q0 -130 -90 -220.5t-217 -90.5q-126 0 -216.5 90t-90.5 215zM63 291q0 -98 74.5 -171t169.5 -73q98 0 171 74.5t73 169.5v278 q0 104 -70 177t-174 73h-244v-528zM63 883h244q101 0 172.5 72.5t71.5 174.5q-1 103 -71 172t-169 72h-248v-491z" />
<glyph unicode="C" horiz-adv-x="745" d="M0 303v838q0 127 90 215t217 88q125 0 215.5 -86.5t93.5 -216.5q0 -24 -16 -31.5t-31.5 2.5t-15.5 29q0 97 -74 169t-172 72q-99 0 -171.5 -71.5t-72.5 -169.5v-842q0 -95 71 -169.5t173 -74.5t174 70.5t72 171.5q0 19 15.5 27t31.5 0t16 -27q-3 -128 -92.5 -216.5 t-216.5 -88.5q-129 0 -218 91t-89 220z" />
<glyph unicode="D" d="M0 41v1354q0 17 12.5 28t30.5 11h260q127 0 216 -89t89 -217v-823q0 -127 -89 -216t-216 -89h-260q-17 0 -30 13t-13 28zM63 59h240q101 0 172.5 72.5t71.5 173.5v825q0 100 -71.5 171t-172.5 71h-240v-1313z" />
<glyph unicode="E" horiz-adv-x="663" d="M0 309v1088q0 37 39 37h471q18 0 26 -16q4 -8 4 -16t-4 -14q-8 -16 -26 -16h-447v-532h424q20 0 28.5 -16t0 -32t-28.5 -16h-424v-467q0 -99 71 -172.5t167 -73.5h209q21 1 30 -15q4 -8 4 -16t-4 -16q-9 -16 -30 -16h-209q-127 0 -214 91.5t-87 217.5z" />
<glyph unicode="F" horiz-adv-x="661" d="M0 20v1373q0 14 15 27.5t26 13.5h479q20 0 28 -16q4 -8 4 -16t-4 -16q-8 -16 -28 -16h-457v-610h422q19 0 27 -16.5t0 -33t-27 -16.5h-422v-674q1 -20 -15 -28q-8 -4 -17 -4q-8 0 -15 4q-16 8 -16 28z" />
<glyph unicode="G" horiz-adv-x="772" d="M0 299v844q0 131 92 222t221 91q126 0 220.5 -91.5t95.5 -221.5q0 -22 -16.5 -31.5t-33 -0.5t-16.5 32q0 105 -74 177.5t-176 72.5q-103 0 -176.5 -73t-73.5 -177v-844q0 -103 71.5 -175.5t178.5 -72.5q102 0 176 73t74 173v375h-280q-14 0 -22.5 8.5t-8.5 21.5 q0 14 9 23.5t22 9.5h303q43 0 43 -41v-397q0 -132 -92.5 -221.5t-223.5 -89.5q-135 0 -224 89.5t-89 223.5z" />
<glyph unicode="H" horiz-adv-x="770" d="M2 23v1390q0 19 16 29q8 5 17 6l15 -4q16 -8 16 -31v-678h495v678q1 25 17 33q8 4 15 3l17 -5q16 -10 17 -31v-1390q-1 -25 -17 -34q-8 -4 -15 -4l-17 5q-16 10 -17 33v651h-495v-651q0 -21 -16 -31q-9 -5 -17 -5l-15 3q-16 8 -16 33z" />
<glyph unicode="I" horiz-adv-x="268" d="M31 31v1372q-1 21 15 31q8 5 17 4q8 0 15 -4q16 -9 16 -31v-1372q0 -23 -16 -33q-8 -5 -16 -5q-8 1 -16 5q-16 10 -15 33z" />
<glyph unicode="J" horiz-adv-x="757" d="M2 324q9 36 35 32t26 -37q-1 -11 -1 -22q0 -92 68 -167q76 -85 185 -85q103 0 176.5 73.5t73.5 176.5v1083h-256q-20 0 -27.5 15t0.5 30t27 15h273q19 0 32 -12.5t13 -28.5v-1102q0 -130 -92 -221.5t-220 -91.5q-89 0 -163.5 48.5t-114.5 127.5q-36 70 -36 147q0 9 1 19z " />
<glyph unicode="K" horiz-adv-x="749" d="M0 29v1380q0 17 16 23.5t31.5 -0.5t15.5 -23v-643h103q104 0 187.5 62.5t113.5 170.5l117 420q5 17 22 21q5 1 9 1q12 0 21.5 -7.5t9.5 -19.5q0 -4 -1 -9l-117 -418q-26 -88 -91.5 -158.5t-149.5 -93.5q85 -25 150.5 -93t90.5 -157l115 -456q2 -13 -10.5 -22t-27.5 -5.5 t-21 21.5q-18 70 -59 227t-58 227q-27 106 -111 168t-190 62h-103v-678q1 -21 -15 -29q-7 -4 -15 -3t-17 5q-16 8 -16 27z" />
<glyph unicode="L" horiz-adv-x="657" d="M0 41v1370q0 18 16 26q8 4 16 4t16 -4q16 -8 15 -26v-1350h459q19 1 27 -15q4 -8 4 -16t-4 -15q-8 -15 -27 -15h-479q-13 0 -28 13.5t-15 27.5z" />
<glyph unicode="M" horiz-adv-x="983" d="M0 23v1382q0 23 14 32q8 5 16 5q6 0 11 -2q14 -6 16 -19l367 -897q60 149 183 449.5t184 449.5q5 13 19 17q5 2 10 1q10 1 18 -5q12 -8 12 -31v-1382q0 -21 -16 -29q-8 -4 -16 -4l-16 4q-16 8 -16 29l-2 1218q-285 -702 -331 -813l2 4q-4 -23 -27.5 -24t-30.5 20 q-67 162 -174 425.5t-160 391.5v-1222q1 -18 -15 -26q-8 -4 -16 -4t-16 4q-16 8 -16 26z" />
<glyph unicode="N" horiz-adv-x="757" d="M0 18v1393q0 15 12 25q9 7 19 7q4 0 9 -1q15 -4 23 -21q171 -436 353 -878q30 -74 53.5 -139.5t46.5 -124.5l53 -168h13l-17 92l-2 1212q1 18 17 26q8 4 16 4l16 -4q16 -8 17 -26v-1392q-1 -27 -27 -37q-7 -3 -13 -2q-17 0 -28 20q-51 133 -158.5 399t-130.5 324 l-168 416l-45 149l-12 -2l16 -112v-1160q0 -17 -15.5 -24t-31.5 0t-16 24z" />
<glyph unicode="O" horiz-adv-x="763" d="M0 297v850q0 131 90 221t221 90q129 0 220.5 -90t91.5 -221v-850q0 -132 -90.5 -226t-221.5 -94t-221 94t-90 226zM63 295q2 -100 73.5 -177t174.5 -77q105 0 176.5 76.5t71.5 177.5v852q0 99 -73 173.5t-175 74.5t-175 -73t-73 -175v-852z" />
<glyph unicode="P" horiz-adv-x="712" d="M0 29v1366q0 19 12 29t31 10h258q125 0 211 -88.5t86 -212.5v-224q0 -123 -86 -212t-211 -89h-238v-579q1 -21 -15 -31q-8 -5 -17 -5q-8 0 -15 4q-16 9 -16 32zM63 672h238q99 0 166.5 68.5t67.5 166.5v228q0 98 -67.5 166.5t-166.5 68.5h-238v-698z" />
<glyph unicode="Q" horiz-adv-x="772" d="M0 299v842q0 132 91 223.5t222 91.5q129 -2 222.5 -92.5t93.5 -222.5v-842q0 -116 -56 -186l82 -78q12 -13 12 -25q0 -11 -9 -20.5t-20 -9.5q-12 0 -26 12q-14 14 -37 37.5t-38 36.5q-40 -41 -100.5 -63.5t-123.5 -22.5q-130 0 -221.5 94.5t-91.5 224.5zM66 299 q0 -105 71 -179.5t176 -74.5q106 0 179 70.5t73 183.5v842q0 100 -72 174.5t-176 77.5h-8q-99 0 -169 -71q-74 -75 -74 -181v-842z" />
<glyph unicode="R" horiz-adv-x="763" d="M0 29v1368q0 19 12 29t29 10h268q127 0 218 -91t91 -219v-137q0 -94 -74.5 -175.5t-164.5 -106.5q98 -22 170 -106.5t72 -176.5v-395q0 -22 -16 -30q-8 -4 -15 -4l-17 5q-16 9 -16 29v395q0 104 -91.5 178t-199.5 74h-203v-647q1 -20 -15 -29q-8 -5 -17 -5q-8 1 -15 5 q-16 8 -16 29zM63 739h203q104 0 196.5 74t92.5 176v139q0 101 -72.5 173.5t-173.5 72.5h-246v-635z" />
<glyph unicode="S" horiz-adv-x="743" d="M0 291q0 17 16 24.5t31.5 0t15.5 -24.5q0 -102 73 -175t173 -73t174 73t74 175v155q0 103 -78.5 173.5t-171.5 70.5q-128 0 -217.5 93t-89.5 218v138q0 129 91 219t218 90q122 0 214 -88t98 -215q-1 -19 -17 -26.5t-31.5 0.5t-15.5 26q-3 100 -76 169.5t-172 69.5 q-101 0 -173.5 -71.5t-72.5 -173.5v-138q0 -101 72 -173t172 -72q124 -2 217.5 -90.5t96.5 -219.5v-155q0 -129 -93 -219t-219 -90q-125 0 -217 90t-92 219z" />
<glyph unicode="T" horiz-adv-x="661" d="M-54 1386q-4 8 -4 16t4 16q8 16 25 16h582q18 0 26 -16q4 -8 4 -16t-4 -16q-8 -16 -26 -16h-256v-1347q-1 -20 -17 -27q-8 -3 -15 -3l-17 4q-16 8 -17 26v1347h-260q-17 0 -25 16z" />
<glyph unicode="U" horiz-adv-x="774" d="M0 305v1108q0 20 16 28t31.5 -0.5t15.5 -27.5v-1108q0 -106 73.5 -182t178.5 -76q106 0 179 75.5t73 182.5v1108q1 21 17 31q9 5 17 5l15 -4q16 -8 17 -32v-1108q0 -132 -92 -225.5t-226 -93.5q-132 0 -223.5 93.5t-91.5 225.5z" />
<glyph unicode="V" horiz-adv-x="768" d="M0 457v954q0 18 15 25q7 3 14 3q7 1 15 -3q14 -8 15 -25q0 -185 1 -477t1 -477q0 -43 15.5 -87.5t42.5 -72.5l198 -238q27 32 91.5 113.5t101.5 124.5q51 57 51 160v954q1 18 17 26q9 4 17 4l15 -3q16 -8 17 -27v-954q0 -52 -17.5 -105t-48.5 -90l-219 -266 q-10 -14 -28 -14h-1q-18 0 -26 14q-31 36 -107.5 128t-116.5 138q-63 78 -63 195z" />
<glyph unicode="W" horiz-adv-x="1247" d="M0 438v963q0 22 16 30q8 4 15 4q9 0 17 -5q16 -9 15 -29v-963q0 -101 50 -157l178 -209l172 207q53 69 53 159v963q0 21 16 31q8 5 16 5l16 -4q16 -9 16 -32v-963q0 -37 16.5 -81t40.5 -78l174 -211q29 35 87 105.5t87 105.5q51 59 51 159v963q0 22 16 31q8 4 16 4l16 -4 q16 -9 16 -31v-963q0 -128 -62 -196v2q-33 -39 -99 -119t-99 -119v2q-18 -27 -28 -27t-28 25q-31 38 -98.5 121t-99.5 121q-9 9 -35 61l-35 -61q-37 -43 -104 -126t-95 -116l2 2q-14 -28 -28 -28q-13 0 -27 24q-34 39 -101.5 119t-101.5 119q-61 70 -61 196z" />
<glyph unicode="X" horiz-adv-x="755" d="M0 27v247q0 49 16 101.5t45 91.5l209 254q-37 44 -109.5 130t-99.5 118q-28 37 -44.5 91t-16.5 103v250q0 17 16 24q8 4 16 3.5t16 -3.5q16 -7 15 -24v-250q0 -96 50 -155q150 -180 200 -238q24 30 92 111.5t103 126.5q49 55 49 155v250q1 17 17 24q8 4 16 3l16 -3 q16 -7 17 -24v-250q0 -45 -18 -100.5t-46 -93.5q-35 -43 -103 -128.5t-100 -123.5l203 -250q30 -39 47 -91.5t17 -101.5v-247q-1 -20 -17 -28q-8 -4 -16 -4l-16 5q-16 8 -17 27v247q0 99 -49 156q-37 44 -104.5 127.5t-92.5 114.5q-31 -37 -98 -119.5t-100 -122.5 q-22 -28 -36 -73t-14 -83v-247q0 -12 -10 -21q-9 -8 -21 -8q-1 0 -2 -1q-11 -1 -20 7q-10 8 -10 23z" />
<glyph unicode="Y" horiz-adv-x="735" d="M-8 938v473q0 16 16 22.5t31.5 0t15.5 -22.5v-469q0 -38 14 -84t37 -74q34 -42 103 -127t94 -116q29 35 94 118t101 125q51 57 51 158v469q0 13 10 21t21.5 8t21.5 -7.5t10 -21.5v-473q0 -48 -16.5 -100.5t-46.5 -87.5q-36 -44 -107.5 -133.5t-107.5 -133.5v-473 q0 -9 -33 -9t-33 9v479q-36 42 -107.5 130.5t-107.5 130.5q-28 36 -44.5 88t-16.5 100z" />
<glyph unicode="Z" horiz-adv-x="649" d="M-29 37v242q0 87 64 188l364 539q47 61 47 153v213h-446q-9 0 -15 6.5t-7 16t0.5 19t8 16t15.5 6.5h477q22 0 27.5 -7t5.5 -28v-242q0 -102 -59 -190l-365 -535q-22 -31 -36.5 -74t-14.5 -81v-218h471q19 1 27 -15q4 -8 4 -17q1 -8 -3 -15q-8 -16 -28 -16h-494 q-23 0 -33 8.5t-10 30.5z" />
<glyph unicode="[" horiz-adv-x="358" d="M45 -135v1724q0 9 9 16t20 7h280q17 0 25.5 -15t1.5 -30t-27 -15h-245v-1652h245q18 0 26 -16t0.5 -32t-26.5 -16h-280q-29 0 -29 29z" />
<glyph unicode="\" horiz-adv-x="712" d="M8 1593q-3 31 23 39.5t43 -26.5l547 -1719q5 -20 -8.5 -31.5t-31 -7.5t-22.5 21q-7 20 -27 82.5t-54 168.5t-64 199q-52 164 -157.5 497t-169 533.5t-79.5 243.5z" />
<glyph unicode="]" horiz-adv-x="393" d="M-127.5 -148q-8.5 16 1.5 32t30 16h246v1652h-246q-16 0 -22.5 15t0 30t22.5 15h282q9 0 18 -7t9 -16v-1724q0 -29 -27 -29h-282q-23 0 -31.5 16z" />
<glyph unicode="^" horiz-adv-x="813" d="M90 1246.5q1 16.5 16 29.5l193 145q34 27 61 4q36 -26 107.5 -78t107.5 -77q16 -12 12.5 -29.5t-19.5 -22.5t-36 7l-198 143q-62 -45 -191 -145q-21 -12 -37.5 -2.5t-15.5 26z" />
<glyph unicode="_" horiz-adv-x="1017" d="M-10 -7.5q-7 15.5 0 31t24 15.5h895q17 0 24.5 -15.5t0 -31t-24.5 -15.5h-895q-17 0 -24 15.5z" />
<glyph unicode="`" horiz-adv-x="714" d="M187.5 1410.5q10.5 20.5 31 20.5t43.5 -28l117 -219q18 -30 -4 -46t-43 5l-144 227q-11 20 -0.5 40.5z" />
<glyph unicode="a" horiz-adv-x="718" d="M-16 283q0 125 86 210t209 85h149q13 0 22 -10t9 -23q0 -9 -9.5 -19t-21.5 -10h-149q-95 0 -163.5 -66.5t-68.5 -166.5q0 -98 67.5 -166t164.5 -68q100 0 168.5 70.5t68.5 169.5v393q0 95 -69.5 163t-167.5 68q-80 0 -148 -49q-27 -14 -40 -6.5t-12.5 25.5t13.5 26 q77 68 187 68q121 0 210 -85.5t89 -209.5v-393q0 -125 -86 -214t-213 -89q-123 0 -209 86.5t-86 210.5z" />
<glyph unicode="b" horiz-adv-x="741" d="M0 289v1114q0 21 16 29q8 4 16 4t16 -4q16 -8 15 -29v-1114q0 -102 67 -174t167 -72q101 0 170.5 69.5t69.5 168.5v397q0 100 -69.5 168.5t-170.5 68.5h-137q-12 0 -20.5 9t-8.5 22q0 31 29 31h137q128 0 214.5 -86t86.5 -209v-401q0 -125 -87 -212t-214 -87 q-124 0 -210.5 91t-86.5 216z" />
<glyph unicode="c" horiz-adv-x="722" d="M0 285v405q0 125 87 211t208 86t210 -86t89 -209q0 -17 -15.5 -24.5t-31 0t-15.5 24.5q0 96 -69.5 165t-167.5 69q-95 0 -163.5 -68.5t-68.5 -167.5v-405q0 -97 67.5 -165.5t164.5 -68.5q101 0 169 67.5t68 164.5q0 19 15.5 27t31 0t15.5 -27q0 -122 -86 -207.5 t-213 -85.5q-123 0 -209 86t-86 209z" />
<glyph unicode="d" horiz-adv-x="743" d="M0 281v401q0 122 87 208.5t214 86.5h137q31 0 31 -31q0 -14 -8.5 -22.5t-22.5 -8.5h-137q-100 0 -169 -68.5t-69 -168.5v-397q0 -99 69.5 -168.5t168.5 -69.5q101 0 168.5 71.5t67.5 174.5v1114q-1 19 15 28q8 5 17 5q7 0 14 -4q15 -8 15 -29v-1114q0 -125 -85.5 -216 t-211.5 -91t-213.5 87t-87.5 212z" />
<glyph unicode="e" horiz-adv-x="733" d="M0 281v391q0 126 86.5 214.5t212.5 88.5q124 0 209.5 -86t85.5 -211t-86 -210t-209 -85h-152q-12 0 -20 10.5t-8 22.5q0 10 8.5 19t19.5 9h152q97 0 165 67t68 167q0 98 -67.5 165.5t-165.5 67.5q-99 0 -167.5 -70t-68.5 -169v-391q0 -97 69.5 -165.5t166.5 -68.5 q79 0 147 49q21 12 37.5 5.5t18 -21t-7.5 -25.5q-80 -71 -195 -71q-121 0 -210 86t-89 211z" />
<glyph unicode="f" horiz-adv-x="423" d="M0 18v1102q0 130 93 220t220 90q19 0 27 -16q4 -7 4 -15t-4 -15q-8 -16 -27 -16q-101 0 -175.5 -73.5t-74.5 -174.5v-145h220q19 0 27.5 -15.5t0.5 -31t-28 -15.5h-220v-895q0 -19 -15 -26q-8 -4 -16 -4t-16 4q-16 8 -16 26z" />
<glyph unicode="g" horiz-adv-x="729" d="M0 295v395q0 120 85.5 207.5t203.5 87.5q128 0 213.5 -89.5t85.5 -213.5v-776q0 -123 -88 -209t-211 -86q-109 0 -187 72q-16 20 1.5 40.5t43.5 2.5q68 -52 142 -52q96 0 165.5 66.5t69.5 165.5v776q0 98 -66.5 170t-168.5 72q-94 0 -160 -68t-66 -166v-395 q0 -97 66 -165.5t160 -68.5h143q18 0 26.5 -15.5t1.5 -30.5t-26 -15h-145q-119 0 -204 85.5t-85 209.5z" />
<glyph unicode="h" horiz-adv-x="706" d="M0 23v1380q0 14 10 22q9 8 20 8l2 -1q12 0 21.5 -8t9.5 -21v-445h201q126 0 215.5 -91.5t89.5 -219.5v-624q1 -19 -15 -27q-8 -4 -16 -3q-8 0 -16 4q-16 8 -16 26v624q0 97 -71.5 173.5t-170.5 76.5h-201v-874q1 -19 -15 -27q-8 -4 -16 -3q-8 0 -16 4q-16 8 -16 26z" />
<glyph unicode="i" horiz-adv-x="227" d="M2 1071q0 18 13 31.5t34 13.5q22 0 33.5 -13t11.5 -32q0 -28 -11 -37.5t-34 -9.5q-9 0 -18 2.5t-19 14t-10 30.5zM18 23q0 -12 9.5 -21.5t21.5 -9.5t21.5 9.5t9.5 21.5v921q0 18 -16 24q-8 3 -15 3l-15 -3q-16 -6 -16 -24v-917v-4z" />
<glyph unicode="j" horiz-adv-x="223" d="M-240 -376q-3 7 -3 14t4 15q8 15 26 15q86 0 155.5 66.5t69.5 161.5v1052q0 19 16 27.5t32 1.5t16 -25v-1056q0 -122 -85.5 -204.5t-203.5 -82.5q-19 0 -27 15zM-8 1102q0 19 14 34t35 15q26 0 38.5 -14t12.5 -35q0 -30 -12.5 -40.5t-38.5 -10.5q-15 0 -32 11.5t-17 39.5 z" />
<glyph unicode="k" horiz-adv-x="681" d="M0 23v1376q0 21 16 31q8 5 17 5q7 -1 15 -5q16 -8 15 -31v-864h58q87 0 155.5 35t100.5 106l135 287q9 17 25.5 18.5t27.5 -10t6 -29.5l-137 -295q-25 -48 -78 -87.5t-106 -55.5q56 -16 107.5 -56t76.5 -94q24 -52 73.5 -158.5t74.5 -158.5q3 -8 3 -14q1 -9 -5 -16 q-9 -11 -25 -11h-3q-18 2 -26 18q-109 227 -149 314q-32 72 -101 108.5t-155 36.5h-58v-450q1 -17 -15 -24q-8 -4 -16 -3.5t-16 3.5q-16 7 -16 24z" />
<glyph unicode="l" horiz-adv-x="380" d="M0 301v1100q0 22 15 31q7 4 15 4t16 -4q16 -10 15 -31v-1100q0 -103 67 -174.5t165 -71.5q22 1 29 -15q3 -7 3 -14q0 -9 -5 -17q-9 -15 -27 -15q-127 0 -210 88t-83 219z" />
<glyph unicode="m" horiz-adv-x="1292" d="M0 20v666q0 127 87.5 214t211.5 87q91 0 170.5 -60.5t103.5 -138.5q25 77 102 138t169 61q124 0 213.5 -89.5t89.5 -211.5v-666q1 -16 -15 -24q-8 -4 -16 -4l-16 4q-16 8 -15 24v666q0 99 -71 169.5t-170 70.5q-91 0 -166.5 -71.5t-75.5 -168.5v-666q0 -20 -16 -28 q-8 -4 -16 -4t-16 4q-16 8 -15 28v666q0 92 -69.5 166t-170.5 74q-99 0 -167.5 -71t-68.5 -169v-666q1 -16 -15 -24q-8 -4 -17 -4q-8 0 -15 3q-16 7 -16 25z" />
<glyph unicode="n" horiz-adv-x="743" d="M0 23v659q0 123 89.5 213t211.5 90t211.5 -90.5t89.5 -212.5v-659q0 -17 -15 -23q-8 -3 -15 -3q-8 -1 -16 3q-16 6 -15 23v659q0 99 -71.5 170.5t-168.5 71.5q-96 0 -167 -71.5t-71 -170.5v-659q1 -17 -15 -25q-8 -4 -17 -3q-8 0 -15 3q-16 7 -16 25z" />
<glyph unicode="o" horiz-adv-x="747" d="M0 289v399q0 123 91 213t214 90t212 -90t89 -213v-399q0 -123 -89 -214t-212 -91t-214 91t-91 214zM63 289q0 -98 75.5 -171t166.5 -73t165.5 73t74.5 171v399q0 99 -72.5 170.5t-167.5 71.5q-97 0 -169.5 -71.5t-72.5 -170.5v-399z" />
<glyph unicode="p" horiz-adv-x="739" d="M0 -428v1114q0 125 86.5 216t210.5 91q127 0 214 -87.5t87 -213.5v-399q0 -124 -86.5 -209.5t-214.5 -85.5h-129q-29 0 -29 31q0 13 8.5 21.5t20.5 8.5h129q101 0 170.5 69t69.5 169v395q0 100 -69.5 170t-170.5 70q-100 0 -167 -72t-67 -174v-1114q0 -20 -15 -28 q-8 -5 -16 -5t-16 5q-16 8 -16 28z" />
<glyph unicode="q" horiz-adv-x="739" d="M0 293v399q0 126 87.5 213.5t213.5 87.5t211.5 -91t85.5 -216v-1114q0 -20 -15 -28q-7 -3 -15 -3t-16 4q-15 8 -15 27v1114q0 103 -67.5 174.5t-168.5 71.5q-100 0 -169 -70t-69 -170v-395q0 -100 69 -169t169 -69h129q14 0 22.5 -8.5t8.5 -21.5q0 -31 -31 -31h-129 q-127 0 -214 86t-87 209z" />
<glyph unicode="r" horiz-adv-x="446" d="M0 16v670q0 123 87.5 214t213.5 91q19 0 59 -4q14 -4 20 -15q5 -8 5 -17v-5q-2 -11 -13 -18.5t-28 -5.5q-24 4 -43 4q-100 0 -169 -71.5t-69 -172.5v-670q1 -18 -15 -24q-8 -3 -16 -3q-8 -1 -16 3q-16 6 -16 24z" />
<glyph unicode="s" horiz-adv-x="690" d="M86 910q86 79 204 79h9q162 -10 233 -129l3 -4q8 -24 -11.5 -37t-40.5 8q-64 94 -184 101h-8q-93 0 -161 -64q-70 -66 -71 -164v-8q1 -80 61 -123q64 -45 163 -47q58 -2 108.5 -17t92.5 -43t66 -76q23 -46 23 -105v-5q-3 -124 -90 -208q-84 -81 -201 -80h-8 q-74 3 -148 42.5t-112 96.5q-10 12 -3.5 27t20.5 18t30 -10q30 -43 92.5 -79t120.5 -40h5q88 0 158 68q72 70 73 165v7q0 57 -32 96q-34 42 -84 60t-113 22q-128 1 -207 61q-78 59 -78 177q-1 128 90 211z" />
<glyph unicode="t" horiz-adv-x="421" d="M0 299v1106q0 19 16 27q8 4 15 3q9 0 17 -4q16 -8 15 -26v-428h218q19 0 27 -15.5t0 -31t-27 -15.5h-218v-616q0 -104 72.5 -175t177.5 -71q19 -1 27 -15q4 -7 4 -14q0 -8 -4 -15q-8 -15 -27 -15q-132 0 -222.5 87.5t-90.5 217.5z" />
<glyph unicode="u" horiz-adv-x="743" d="M0 291v659q0 18 16 26q8 4 16 4t16 -4q16 -8 15 -26v-659q0 -99 71 -170.5t167 -71.5q97 0 168.5 71.5t71.5 170.5v659q-1 18 15 24q8 3 16 3q8 1 15 -3q15 -6 15 -24v-659q0 -123 -89.5 -213t-211.5 -90t-211.5 90.5t-89.5 212.5z" />
<glyph unicode="v" horiz-adv-x="735" d="M0 434v520q0 16 16 22q8 3 15 3q9 1 17 -3q16 -6 15 -22v-520q0 -87 46 -145l190 -232l186 232q45 55 45 145v520q0 12 9.5 18t21.5 6t21.5 -6.5t9.5 -17.5v-520q0 -121 -57 -186q-26 -29 -207 -248q-10 -11 -28 -12h-3q-16 0 -25 12q-34 40 -105.5 125t-105.5 125 q-61 79 -61 184z" />
<glyph unicode="w" horiz-adv-x="1191" d="M0 416v538q0 17 16 24t31.5 0t15.5 -24v-538q0 -83 54 -154q138 -171 162 -199q70 84 163 199q54 71 54 154v538q0 13 10 21q8 9 20 9h2q12 0 20 -8q10 -8 9 -22v-538q0 -87 51 -154q61 -76 162 -196q66 76 168 198q47 63 47 152v538q0 16 16 22.5t32 0t16 -22.5v-538 q0 -107 -62 -191l-188 -225q-13 -15 -23 -16h-2q-9 0 -26 14l-191 233q-16 22 -33 60q-6 -23 -35 -66l-186 -225l2 2q-12 -21 -26 -21q-13 0 -27 19q-32 42 -96 117.5t-90 107.5q-31 38 -48.5 89.5t-17.5 101.5z" />
<glyph unicode="x" horiz-adv-x="684" d="M-14 23v47q0 49 16.5 101t44.5 85v-2q39 48 197 235q-120 138 -197 236q-61 81 -61 182v49q0 15 16 22q9 4 17 4q7 0 15 -3q16 -6 15 -23v-49q0 -87 49 -145l181 -227q17 21 84 103t102 124q49 58 49 145v49q0 16 16 22q8 3 16 4l16 -4q16 -6 16 -22v-49q0 -111 -64 -184 v2q-29 -35 -97 -114.5t-102 -121.5l201 -233q29 -34 45.5 -85.5t16.5 -100.5v-47q0 -19 -16 -25q-7 -3 -14 -3l-18 5q-16 8 -16 23v47q0 86 -49 149q-30 35 -92 111.5t-92 111.5l-183 -225q-49 -61 -49 -147v-47q0 -14 -15.5 -21t-31.5 -1.5t-16 22.5z" />
<glyph unicode="y" horiz-adv-x="731" d="M0 295v657q0 12 10 22.5t21 10.5q12 0 22 -10.5t10 -22.5v-657q0 -97 66 -165.5t160 -68.5h139q18 0 25.5 -15.5t-0.5 -30.5t-27 -15h-137q-119 0 -204 85.5t-85 209.5zM102 -317q-7 9 -7 19q0 11 11 22q18 19 41 2q68 -52 142 -52q96 0 165.5 66.5t69.5 165.5v1046 q0 12 10 22.5t21 10.5q13 0 23 -10.5t10 -24.5v-1044q0 -123 -88 -209t-211 -86q-109 0 -187 72z" />
<glyph unicode="z" horiz-adv-x="673" d="M-4 929q-4 8 -3 15q0 8 4 17q8 16 26 16h489q31 0 31 -39v-260q0 -50 -15.5 -87.5t-40.5 -60t-62.5 -37t-75 -20t-85.5 -6.5q-86 0 -143.5 -44t-57.5 -132v-230h461q19 1 27 -15q4 -8 4 -16q-1 -8 -5 -16q-8 -16 -28 -16h-487q-35 0 -35 37v256q0 120 73.5 178t190.5 61 q44 0 81 7.5t68 24t48.5 46t17.5 70.5v235h-456q-19 0 -27 16z" />
<glyph unicode="{" horiz-adv-x="514" d="M-7.5 724q0.5 18 21.5 26q79 30 103.5 73t32.5 135q13 120 43 237t91 236t142 181q13 10 28.5 2.5t18 -22.5t-13.5 -31q-92 -77 -158.5 -245t-87.5 -366q-1 -4 -2 -12.5t-2 -13.5q-9 -72 -30.5 -118.5t-76.5 -78.5q54 -28 76 -75.5t31 -121.5q1 -4 2 -15t2 -15 q21 -201 86 -368.5t156 -244.5q23 -23 3 -44q-16 -17 -34 -6q-3 2 -6 5q-111 92 -177 274.5t-91 375.5q-4 36 -7.5 58.5t-12 48.5t-22 42.5t-36.5 32t-56 26.5q-24 6 -23.5 24z" />
<glyph unicode="|" horiz-adv-x="292" d="M35 -109v1582q0 22 15.5 29t31.5 -2t16 -27v-1582q0 -23 -16 -31t-31.5 1.5t-15.5 29.5z" />
<glyph unicode="}" horiz-adv-x="495" d="M-86 -137q0 12 10 22q94 78 159.5 245.5t86.5 369.5q1 5 2 15t2 15q7 70 30.5 118.5t78.5 78.5q-57 33 -79.5 80t-29.5 117q-1 4 -2 13.5t-2 12.5q-21 207 -83.5 367t-162.5 244q-13 14 -9.5 28t17.5 22.5t25 0.5q63 -45 113.5 -123.5t82.5 -171.5t51.5 -181.5 t28.5 -177.5q7 -89 32.5 -132.5t103.5 -75.5q24 -11 19 -29.5t-21 -20.5q-77 -26 -102 -72.5t-32 -135.5q-15 -119 -44.5 -233.5t-88.5 -234.5t-135 -184q-12 -8 -20 -8q-12 0 -21.5 9.5t-9.5 21.5z" />
<glyph unicode="~" horiz-adv-x="593" d="M-15 687.5q8 15.5 23 17t25 -8.5q39 -57 88 -57q46 0 86 43q50 47 106 47q85 0 148 -90q9 -14 -1 -27.5t-25.5 -14.5t-26.5 13q-45 58 -95 58q-32 0 -65 -29q-54 -57 -127 -57q-80 0 -131 73q-13 17 -5 32.5z" />
<glyph unicode="&#xa1;" horiz-adv-x="229" d="M2 1386q0 22 12.5 35t32.5 13q19 0 31 -13t12 -35q0 -49 -43 -49q-45 0 -45 49zM16 18v1223q-1 17 14.5 24.5t32 1t17.5 -23.5v-1225q0 -20 -16 -28.5t-32 0t-16 28.5z" />
<glyph unicode="&#xa2;" horiz-adv-x="755" d="M0 500v413q0 131 94 221.5t223 90.5q53 0 123 -25q7 28 30.5 101.5t31.5 105.5q5 19 21 22.5t28.5 -8.5t7.5 -30q-23 -103 -61 -224q127 -89 127 -254q0 -18 -15.5 -26t-31 -0.5t-15.5 26.5q0 108 -72 178t-174 70q-105 0 -179.5 -71.5t-74.5 -176.5v-413 q0 -103 75 -175.5t179 -72.5q102 0 174 71t72 177q0 18 15.5 26t31 0.5t15.5 -26.5q0 -130 -90.5 -221t-217.5 -91q-65 0 -124 27q-11 -37 -34 -106t-32 -101v2q-7 -30 -33 -33q-23 -2 -28 20q-3 9 0 21q19 63 41.5 129.5t31.5 96.5q-65 41 -102 107t-37 149z" />
<glyph unicode="&#xa3;" horiz-adv-x="804" d="M-34.5 15q-7.5 15 0 30.5t24.5 15.5h86v527h-86q-16 0 -22.5 15t0 30.5t22.5 15.5h86v486q0 126 88 212.5t217 86.5q132 0 221.5 -99t81.5 -231q-3 -18 -18.5 -24t-30 2t-14.5 26q3 110 -65 186t-175 76q-102 0 -172 -68t-70 -167v-486h277q17 0 25 -15.5t1 -30.5 t-26 -15h-277v-527h516q20 0 29.5 -15.5t1 -30.5t-30.5 -15h-665q-17 0 -24.5 15z" />
<glyph unicode="&#xa4;" horiz-adv-x="757" d="M-42 791.5q8 15.5 28 15.5h32v321q0 125 89.5 212t214.5 87q124 0 213 -85t92 -214q0 -19 -16 -26.5t-32 0.5t-16 26q0 95 -72 166.5t-169 71.5q-98 0 -170 -70.5t-72 -167.5v-170q0 -28 -1 -75t-1 -76h219q17 0 24 -15.5t0 -31t-24 -15.5h-219v-77h219q20 0 29 -15.5 t1 -31t-30 -15.5h-219q0 -209 2 -311q0 -94 70.5 -167t171.5 -73q100 0 170.5 69.5t70.5 168.5q0 19 16 27t32 0t16 -27q0 -124 -90 -212.5t-215 -88.5q-128 0 -216 90t-88 217v307h-32q-18 0 -25 15.5t0.5 31t24.5 15.5h32v77h-32q-19 0 -27.5 15.5t-0.5 31z" />
<glyph unicode="&#xa5;" horiz-adv-x="714" d="M-14 928v469q0 19 16 26.5t31.5 -0.5t15.5 -26v-465q0 -38 14 -82.5t35 -73.5q31 -39 97.5 -118t97.5 -117q105 127 192 235q50 55 50 156v465q0 19 15.5 27t31.5 0.5t16 -27.5v-469q0 -49 -16 -100.5t-47 -86.5q-97 -122 -211 -262v-469q0 -19 -16 -27.5t-32 -0.5 t-16 28v475q-39 44 -110 131.5t-103 124.5q-28 36 -44.5 87.5t-16.5 99.5zM74 472.5q-9 15.5 0 30.5t30 15h373q19 0 28 -15t1 -30.5t-29 -15.5h-373q-21 0 -30 15.5zM76.5 326.5q-7.5 15.5 0.5 31t27 15.5h373q18 0 26 -15.5t0 -31t-26 -15.5h-373q-20 0 -27.5 15.5z" />
<glyph unicode="&#xa7;" horiz-adv-x="708" d="M-16 707q1 43 18.5 81.5t46 66.5t57 47t58.5 32q-74 26 -113.5 77t-42.5 140q2 124 91 203.5t231 79.5q72 -3 135.5 -38.5t101.5 -90.5q12 -24 -10.5 -39t-42.5 6q-68 94 -184 100q-108 0 -183.5 -59t-74.5 -164q-1 -41 13.5 -72.5t37 -50.5t56.5 -31.5t65 -17.5t69 -8 h-2q54 -2 103.5 -17.5t91 -44t64 -75.5t16.5 -107q-9 -76 -55.5 -142t-114.5 -98q156 -59 145 -217q-7 -121 -99 -201.5t-218 -80.5q-77 5 -140 38.5t-98 90.5q-8 12 1 25.5t24 16t30 -9.5q62 -94 185 -100q98 -3 171 65t81 158q4 49 -15.5 85t-56.5 56t-78 30t-92 14 q-70 2 -132 29.5t-103.5 86t-36.5 136.5zM47 705q-6 -86 59 -137t158 -54q96 -7 172 58t84 157q7 59 -25 99.5t-79 57t-107 19.5q-97 8 -176 -50.5t-86 -149.5z" />
<glyph unicode="&#xa8;" horiz-adv-x="866" d="M80 1378q0 17 12 29t29 12t29 -12t12 -29t-12 -29t-29 -12t-29 12t-12 29zM510 1378q0 17 13 29t30 12q16 0 28.5 -12t12.5 -29t-12.5 -29t-28.5 -12q-17 0 -30 12t-13 29z" />
<glyph unicode="&#xa9;" horiz-adv-x="1173" d="M0 528v369q0 102 28.5 189t78 148t115 103.5t139.5 63t153 20.5t153 -20.5t140 -63t115.5 -103.5t78.5 -148t29 -189v-369q0 -102 -29 -189.5t-78.5 -148.5t-115.5 -104t-140.5 -63.5t-152.5 -20.5t-152.5 20.5t-140 63.5t-115 104.5t-78 148.5t-28.5 189zM59 528 q1 -113 40 -204.5t104.5 -148t145.5 -86.5t167 -30t167 30t145 86.5t104 148t39 204.5v369q0 112 -39 202.5t-104 146.5t-145 86t-167 30q-69 0 -134.5 -18.5t-124 -56.5t-102.5 -92.5t-69.5 -131t-26.5 -166.5v-369zM219 516v389q0 127 88 212t209 85t209 -84.5t88 -208.5 q0 -17 -14.5 -24.5t-29.5 0t-15 24.5q0 100 -70 167t-168 67q-97 0 -167 -69t-70 -169v-389q0 -100 69.5 -170t167.5 -70t168 69.5t70 166.5q0 14 9 21.5t20.5 7.5t20.5 -8t9 -21q0 -122 -87.5 -207.5t-209.5 -85.5q-123 0 -210 86t-87 211z" />
<glyph unicode="&#xaa;" horiz-adv-x="649" d="M-8 819q0 111 77 186.5t185 75.5h131q12 0 20.5 -8.5t8.5 -19.5q0 -8 -9 -17.5t-20 -9.5h-131q-86 0 -146.5 -59t-60.5 -148q0 -86 60.5 -146.5t146.5 -60.5q89 0 149 62.5t60 150.5v349q0 85 -61.5 144.5t-147.5 59.5q-72 0 -131 -43q-24 -12 -35.5 -5.5t-11.5 22.5 t12 24q69 60 166 60q106 0 185 -76t79 -186v-349q0 -110 -76 -189t-188 -79q-109 0 -185.5 76.5t-76.5 185.5zM19.5 447q7.5 -15 29.5 -15h430q20 0 27.5 15t-0.5 30t-27 15h-430q-19 0 -28 -15t-1.5 -30z" />
<glyph unicode="&#xab;" horiz-adv-x="669" d="M37 649q-19 26 0 53q42 60 124.5 175t117.5 165q11 19 30.5 18.5t26 -15.5t-7.5 -37q-42 -64 -123.5 -175.5t-112.5 -156.5q39 -57 118 -164.5t122 -171.5q11 -15 3 -31.5t-24 -17.5t-32 18zM213 649q-19 26 0 53q42 60 124.5 175t117.5 165q11 17 29.5 15.5t25 -15.5 t-5.5 -34q-45 -67 -133.5 -190t-102.5 -142q39 -57 118 -164.5t122 -171.5q13 -17 2.5 -31t-27.5 -13t-28 13z" />
<glyph unicode="&#xad;" horiz-adv-x="636" d="M25 630q-8 16 0 32t26 16h418q21 0 29 -16t-1 -32t-28 -16h-418q-18 0 -26 16z" />
<glyph unicode="&#xae;" horiz-adv-x="1175" d="M0 528v369q0 102 28.5 189t78 148t115 103.5t139.5 63t153 20.5t153 -20.5t140 -63t115.5 -103.5t78.5 -148t29 -189v-369q0 -102 -29 -189.5t-78.5 -148.5t-115.5 -104t-140.5 -63.5t-152.5 -20.5t-152.5 20.5t-140 63.5t-115 104.5t-78 148.5t-28.5 189zM59 528 q0 -113 39 -204.5t104.5 -148t146 -86.5t167.5 -30q88 0 168 30t145 86.5t103.5 148t38.5 204.5v369q0 112 -38.5 202.5t-103.5 146.5t-145 86t-168 30q-87 0 -167.5 -30t-146 -86t-104.5 -146.5t-39 -202.5v-369zM289 254v883q0 26 17 44.5t44 18.5h205q87 0 150 -63 t63 -152v-147q0 -61 -46.5 -117.5t-105.5 -71.5q65 -21 108.5 -75.5t43.5 -110.5v-209q0 -20 -14 -28t-28.5 0.5t-14.5 27.5v205q0 66 -60 112.5t-127 46.5h-180v-364q0 -18 -14 -26t-27.5 0t-13.5 26zM344 678h180q67 0 125 46.5t58 113.5v151q0 62 -44.5 107t-107.5 45 h-205q-6 0 -6 -4v-459z" />
<glyph unicode="&#xaf;" horiz-adv-x="808" d="M103 1355q-8 16 0.5 32t27.5 16h418q20 0 29.5 -16t1 -32t-30.5 -16h-418q-20 0 -28 16z" />
<glyph unicode="&#xb0;" horiz-adv-x="645" d="M53 1237q0 81 62 140t143 59q79 0 142 -59.5t63 -139.5q3 -96 -59 -149.5t-146 -53.5q-85 0 -146.5 53t-58.5 150zM115 1233q-3 -63 40.5 -99t102.5 -36q60 0 102 35t41 98q0 55 -42.5 98t-100.5 43q-59 0 -101 -42t-42 -97z" />
<glyph unicode="&#xb4;" horiz-adv-x="577" d="M141 1184l117 213q20 27 43 26t30 -20.5t-1 -40.5l-142 -219q-21 -21 -42.5 -5t-2.5 46h-2z" />
<glyph unicode="&#xb5;" horiz-adv-x="745" d="M-2 29v1366q0 14 10 22t21.5 7.5t21.5 -8.5t10 -21v-672q2 -96 70.5 -163.5t167.5 -67.5q100 0 169 72t69 169v662q0 18 15.5 26t31.5 0.5t16 -26.5v-989q0 -19 -16 -28.5t-31.5 -1.5t-15.5 32v163q-37 -67 -98.5 -103t-139.5 -36q-79 0 -144 33.5t-94 101.5v-540 q0 -18 -15.5 -25.5t-31.5 0.5t-16 27z" />
<glyph unicode="&#xb6;" horiz-adv-x="727" d="M0 897v221q0 126 84.5 212.5t206.5 86.5h256q41 0 41 -39v-1353q0 -4 -16 -5.5t-32 1t-16 8.5v573h-233q-120 0 -205.5 88.5t-85.5 206.5zM63 897q0 -94 68 -163.5t160 -69.5h233v692h-233q-93 0 -160.5 -69t-67.5 -169v-221z" />
<glyph unicode="&#xb7;" horiz-adv-x="575" d="M2 641q0 85 65.5 148t151.5 63t152.5 -63t66.5 -148q3 -101 -62.5 -157t-156.5 -56q-90 0 -154 56t-63 157zM68 639q-3 -68 43 -106.5t110 -38.5q63 0 109 38t45 103q0 58 -46.5 105.5t-109.5 47.5q-60 0 -105.5 -46t-45.5 -103z" />
<glyph unicode="&#xb8;" horiz-adv-x="632" d="M121 20q3 17 17.5 21.5t28 -4t13.5 -25.5q-6 -41 9.5 -80t48.5 -65q41 -35 94 -35q17 0 55 10q24 7 37 -5t9 -29.5t-23 -24.5q-43 -12 -78 -12q-76 0 -133 49q-93 78 -78 200z" />
<glyph unicode="&#xba;" horiz-adv-x="735" d="M84 1229q0 80 62.5 139t142.5 59q81 0 144 -59t63 -139q3 -95 -59.5 -149t-147.5 -54q-84 0 -145 53.5t-60 149.5zM94 890q-9 16 0 32t31 16h334q21 0 30 -16t0 -32t-30 -16h-334q-22 0 -31 16zM147 1225q-3 -63 41 -99t103 -36q60 0 102 35t41 98q0 55 -43 98t-102 43 q-58 0 -100 -42t-42 -97z" />
<glyph unicode="&#xbb;" horiz-adv-x="645" d="M23.5 305.5q-6.5 14.5 5.5 34.5q34 50 72.5 105t87 122t75.5 105q-39 57 -117.5 164.5t-121.5 171.5q-18 25 7 39q23 12 41 -3q3 -3 5 -6l241 -340q19 -26 0 -53q-42 -61 -124.5 -176t-116.5 -164q-11 -17 -29.5 -15.5t-25 16zM197.5 303q-6.5 15 7.5 37q42 64 123.5 176 t111.5 156q-39 57 -117.5 164.5t-121.5 171.5q-11 15 -3 31t24 17t32 -18l242 -340q19 -26 0 -53q-42 -60 -124.5 -175t-117.5 -165q-11 -19 -30.5 -18t-26 16z" />
<glyph unicode="&#xbf;" horiz-adv-x="788" d="M0 334v135q3 186 188 303q60 35 97 95t37 134v205q0 18 16 26t31.5 0.5t15.5 -26.5v-209q-1 -88 -46.5 -163t-117.5 -119q-160 -94 -160 -250v-131q0 -112 81 -191.5t192 -79.5t191 77.5t81 189.5q0 19 16 27.5t32 0.5t16 -28q0 -138 -99 -234t-237 -96q-134 0 -234 97 t-100 237zM299 1380q0 22 14.5 36t36.5 14t35.5 -14t13.5 -36t-13.5 -36.5t-35.5 -14.5t-36.5 14.5t-14.5 36.5z" />
<glyph unicode="&#xc0;" horiz-adv-x="749" d="M0 23v960q0 112 63 188q140 169 213 259q9 11 27.5 12.5t30.5 -8.5l215 -263q35 -42 47 -86.5t12 -101.5v-960q0 -18 -16 -26t-31.5 0t-15.5 26v489h-482v-489q0 -20 -15.5 -29.5t-31.5 -1.5t-16 31zM63 573h482v410q0 97 -45 145l-195 236l-194 -234q-48 -54 -48 -147 v-410zM183.5 1756.5q10.5 20.5 31 20.5t43.5 -28l117 -219q18 -30 -4 -46t-43 5l-144 227q-11 20 -0.5 40.5z" />
<glyph unicode="&#xc1;" d="M0 23q0 -23 16 -31t31.5 1.5t15.5 29.5v489h482v-489q0 -18 15.5 -26t31.5 0t16 26v960q0 57 -12 101.5t-47 86.5l-215 263q-12 10 -30.5 8.5t-27.5 -12.5q-73 -90 -213 -259q-63 -76 -63 -188v-960zM63 573v410q0 93 48 147l194 234l195 -236q45 -48 45 -145v-410h-482z M262 1520l117 213q20 27 43 26t30 -20.5t-1 -40.5l-142 -219q-21 -21 -42.5 -5t-2.5 46h-2z" />
<glyph unicode="&#xc2;" d="M0 23v960q0 112 63 188q140 169 213 259q9 11 27.5 12.5t30.5 -8.5l215 -263q35 -42 47 -86.5t12 -101.5v-960q0 -18 -16 -26t-31.5 0t-15.5 26v489h-482v-489q0 -20 -15.5 -29.5t-31.5 -1.5t-16 31zM63 573h482v410q0 97 -45 145l-195 236l-194 -234q-48 -54 -48 -147 v-410zM80 1416.5q-1 14.5 14 29.5q151 113 193 145q24 14 41 0q31 -23 98 -71.5t98 -71.5q23 -18 6.5 -38t-38.5 -5l-183 135q-24 -19 -88.5 -67.5t-97.5 -75.5q-14 -10 -28 -2.5t-15 22z" />
<glyph unicode="&#xc3;" d="M0 23v960q0 112 63 188q140 169 213 259q9 11 27.5 12.5t30.5 -8.5l215 -263q35 -42 47 -86.5t12 -101.5v-960q0 -18 -16 -26t-31.5 0t-15.5 26v489h-482v-489q0 -20 -15.5 -29.5t-31.5 -1.5t-16 31zM63 573h482v410q0 97 -45 145l-195 236l-194 -234q-48 -54 -48 -147 v-410zM106 1551q2 -4 5 -7q42 -67 110 -67q61 0 109 51q23 26 53 26q45 0 80 -53q13 -15 28 -12.5t19.5 15.5t-2.5 26q-51 80 -125 80q-47 0 -90 -43q-34 -37 -72 -37q-45 0 -74 53q-19 23 -36 7t-5 -39z" />
<glyph unicode="&#xc4;" d="M0 23q0 -23 16 -31t31.5 1.5t15.5 29.5v489h482v-489q0 -18 15.5 -26t31.5 0t16 26v960q0 57 -12 101.5t-47 86.5l-215 263q-12 10 -30.5 8.5t-27.5 -12.5q-73 -90 -213 -259q-63 -76 -63 -188v-960zM55 1444q0 17 12 29t29 12t29 -12t12 -29t-12 -29t-29 -12t-29 12 t-12 29zM63 573v410q0 93 48 147l194 234l195 -236q45 -48 45 -145v-410h-482zM485 1444q0 17 13 29t30 12q16 0 28.5 -12t12.5 -29t-12.5 -29t-28.5 -12q-17 0 -30 12t-13 29z" />
<glyph unicode="&#xc5;" d="M0 43v961q0 112 63 188q174 210 213 258q9 11 27.5 12.5t30.5 -8.5l215 -262q35 -42 47 -86.5t12 -101.5v-961q0 -18 -16 -26t-31.5 0t-15.5 26v489h-482v-489q0 -20 -15.5 -29.5t-31.5 -1.5t-16 31zM63 594h482v410q0 97 -45 145l-195 235l-194 -233q-48 -54 -48 -147 v-410zM162 1552q0 61 42 104.5t103 43.5q60 0 104 -44t44 -104t-44 -101.5t-104 -41.5q-61 0 -103 41.5t-42 101.5zM217 1552q0 -37 26.5 -62.5t63.5 -25.5t63.5 25.5t26.5 62.5q0 38 -26.5 64t-63.5 26t-63.5 -26t-26.5 -64z" />
<glyph unicode="&#xc6;" horiz-adv-x="1196" d="M0 23v964q0 111 63 189l218 249q11 11 26 11h760q22 0 31 -15.5t0 -31t-31 -15.5h-455v-534h430q21 0 31 -15.5t1.5 -31t-30.5 -15.5h-432v-471q0 -98 73 -171t171 -73h211q21 0 29.5 -15.5t-0.5 -30.5t-29 -15h-211q-126 0 -216.5 90t-90.5 215v201h-486v-485 q0 -13 -10 -21t-21.5 -8.5t-21.5 7.5t-10 22zM63 569h486v805h-234q-9 -11 -202 -239q-50 -56 -50 -148v-418z" />
<glyph unicode="&#xc7;" horiz-adv-x="745" d="M0 303v838q0 127 90 215t217 88q125 0 215.5 -86.5t93.5 -216.5q0 -24 -16 -31.5t-31.5 2.5t-15.5 29q0 97 -74 169t-172 72q-99 0 -171.5 -71.5t-72.5 -169.5v-842q0 -95 71 -169.5t173 -74.5t174 70.5t72 171.5q0 19 15.5 27t31.5 0t16 -27q-3 -128 -92.5 -216.5 t-216.5 -88.5q-129 0 -218 91t-89 220zM264 20q3 17 18 21.5t28.5 -4t13.5 -25.5q-6 -41 9.5 -80t47.5 -65q41 -35 94 -35q17 0 55 10q24 7 37 -5t9 -29.5t-23 -24.5q-43 -12 -78 -12q-76 0 -133 49q-93 78 -78 200z" />
<glyph unicode="&#xc8;" horiz-adv-x="663" d="M0 309v1088q0 37 39 37h471q18 0 26 -15.5t0.5 -31t-26.5 -15.5h-447v-532h424q20 0 28.5 -16t0 -32t-28.5 -16h-424v-467q0 -99 71 -172.5t167 -73.5h209q21 0 30 -15.5t0 -31.5t-30 -16h-209q-127 0 -214 91.5t-87 217.5zM145 1692q-10 18 0 36.5t28.5 18.5t39.5 -25 l109 -202q17 -27 -5 -42t-41 5z" />
<glyph unicode="&#xc9;" horiz-adv-x="663" d="M0 309q0 -126 87 -217.5t214 -91.5h209q21 0 30 16t0 31.5t-30 15.5h-209q-96 0 -167 73.5t-71 172.5v467h424q20 0 28.5 16t0 32t-28.5 16h-424v532h447q19 0 26.5 15.5t-0.5 31t-26 15.5h-471q-39 0 -39 -37v-1088zM250 1509l108 199q12 16 25 21.5t22.5 1.5t17 -12.5 t8 -20.5t-4.5 -23l-131 -202q-19 -20 -40 -5.5t-3 41.5h-2z" />
<glyph unicode="&#xca;" horiz-adv-x="655" d="M0 309v1088q0 37 39 37h471q18 0 26 -15.5t0.5 -31t-26.5 -15.5h-447v-532h424q20 0 28.5 -16t0 -32t-28.5 -16h-424v-467q0 -99 71 -172.5t167 -73.5h209q21 0 30 -15.5t0 -31.5t-30 -16h-209q-127 0 -214 91.5t-87 217.5zM42 1502q-17 19 0 41q3 4 7 7 q33 25 101.5 76.5t101.5 75.5q20 16 43 0q76 -57 207 -150q16 -12 12.5 -28t-18 -21t-31.5 4l-191 142q-22 -17 -91 -69t-105 -81q-20 -16 -36 3z" />
<glyph unicode="&#xcb;" horiz-adv-x="657" d="M0 330q0 -126 87 -218t214 -92h209q21 0 30 16t0 32t-30 16h-209q-96 0 -167 73.5t-71 172.5v467h424q20 0 28.5 15.5t0 31.5t-28.5 16h-424v533h447q14 0 22 9.5t7.5 21t-8.5 21t-21 9.5h-471q-39 0 -39 -37v-1087zM51 1559q0 15 13 27.5t30 12.5q15 0 28 -12.5 t13 -27.5q0 -17 -13 -30t-28 -13q-17 0 -30 13t-13 30zM414 1559q0 15 13 27.5t30 12.5q15 0 28 -12.5t13 -27.5q0 -17 -13 -30t-28 -13q-17 0 -30 13t-13 30z" />
<glyph unicode="&#xcc;" horiz-adv-x="262" d="M-87 1724q6 17 25.5 17t36.5 -25l101 -186q15 -25 -4 -39t-37 4l-121 195q-7 17 -1 34zM25 31v1372q0 21 15.5 30.5t31.5 0.5t16 -31v-1372q0 -23 -16 -33t-31.5 -0.5t-15.5 33.5z" />
<glyph unicode="&#xcd;" horiz-adv-x="262" d="M25 31q0 -24 15.5 -33.5t31.5 0.5t16 33v1372q0 22 -16 31t-31.5 -0.5t-15.5 -30.5v-1372zM35 1538l117 213q20 27 42.5 26t29.5 -20.5t-1 -40.5l-141 -219q-21 -21 -42.5 -5t-2.5 46h-2z" />
<glyph unicode="&#xce;" horiz-adv-x="262" d="M-167 1454q-17 18 0 39q3 3 7 6q82 63 193 146q7 5 19 6t22 -6q31 -23 98 -72.5t98 -71.5q23 -18 6.5 -38t-38.5 -5l-185 135q-28 -22 -91 -69.5t-95 -73.5q-18 -14 -34 4zM25 31v1372q0 21 15.5 30.5t31.5 0.5t16 -31v-1372q0 -23 -16 -33t-31.5 -0.5t-15.5 33.5z" />
<glyph unicode="&#xcf;" horiz-adv-x="262" d="M-113 1548q0 15 13 28t28 13q17 0 30 -13t13 -28q0 -17 -13 -30t-30 -13q-15 0 -28 13t-13 30zM25 51q0 -24 15.5 -33.5t31.5 0.5t16 33v1372q0 22 -16 31t-31.5 -0.5t-15.5 -30.5v-1372zM135 1548q0 16 12 28.5t29 12.5t29 -12.5t12 -28.5q0 -17 -12 -30t-29 -13t-29 13 t-12 30z" />
<glyph unicode="&#xd0;" horiz-adv-x="765" d="M-88.5 698.5q-8.5 16.5 1 33t30.5 16.5h376q19 0 28.5 -16.5t2 -33t-30.5 -16.5h-376q-23 0 -31.5 16.5zM16 41v1354q0 17 12 28t29 11h260q127 0 216.5 -89t89.5 -217v-823q0 -127 -89 -216t-217 -89h-260q-17 0 -29 12.5t-12 28.5zM80 59h237q101 0 172.5 72.5 t71.5 173.5v825q0 100 -71.5 171t-172.5 71h-237v-1313z" />
<glyph unicode="&#xd1;" horiz-adv-x="772" d="M0 18v1393q0 16 12.5 25.5t27.5 5.5t23 -21q171 -436 353 -878q30 -74 53.5 -139.5t46.5 -124.5l53 -168h13l-17 92l-2 1212q0 18 16.5 26t33 0t16.5 -26v-1392q0 -26 -26.5 -36.5t-41.5 17.5q-51 133 -158.5 399t-130.5 324l-168 416l-45 149l-12 -2l16 -112v-1160 q0 -17 -15.5 -24t-31.5 0t-16 24zM90 1578q-2 -16 10 -32q45 -67 121 -67q69 0 119 53q30 27 59 27q48 0 90 -54q13 -16 29 -13.5t22 16t-1 26.5q-61 82 -140 82q-50 0 -98 -45q-37 -37 -80 -37q-49 0 -82 53q-15 16 -31 11.5t-18 -20.5z" />
<glyph unicode="&#xd2;" d="M0 297v850q0 131 90 221t221 90q129 0 220.5 -90t91.5 -221v-850q0 -132 -90.5 -226t-221.5 -94t-221 94t-90 226zM63 295q2 -100 73.5 -177t174.5 -77q105 0 176.5 76.5t71.5 177.5v852q0 99 -73 173.5t-175 74.5t-175 -73t-73 -175v-852zM180 1704q-9 18 0.5 35.5 t26.5 17.5t37 -24l102 -191q17 -25 -3 -40t-38 5z" />
<glyph unicode="&#xd3;" horiz-adv-x="765" d="M0 297v850q0 131 90 221t221 90q129 0 220.5 -90t91.5 -221v-850q0 -132 -90.5 -226t-221.5 -94t-221 94t-90 226zM63 295q2 -100 73.5 -177t174.5 -77q105 0 176.5 76.5t71.5 177.5v852q0 99 -73 173.5t-175 74.5t-175 -73t-73 -175v-852zM283 1550l116 213 q20 27 43 26.5t30 -20t-1 -40.5l-141 -220q-21 -21 -42.5 -5t-2.5 46h-2z" />
<glyph unicode="&#xd4;" horiz-adv-x="770" d="M0 297v850q0 131 90 221t221 90q129 0 220.5 -90t91.5 -221v-850q0 -132 -90.5 -226t-221.5 -94t-221 94t-90 226zM63 295q2 -100 73.5 -177t174.5 -77q105 0 176.5 76.5t71.5 177.5v852q0 99 -73 173.5t-175 74.5t-175 -73t-73 -175v-852zM66 1477q-17 19 0 41q3 4 8 8 q35 26 106.5 80.5t106.5 81.5q8 6 21 6.5t24 -6.5q105 -78 215 -158q16 -13 13 -30t-18 -22t-32 5l-201 147q-33 -26 -102.5 -78t-102.5 -77q-21 -17 -38 2z" />
<glyph unicode="&#xd5;" horiz-adv-x="765" d="M0 297v850q0 131 90 221t221 90q129 0 220.5 -90t91.5 -221v-850q0 -132 -90.5 -226t-221.5 -94t-221 94t-90 226zM63 295q2 -100 73.5 -177t174.5 -77q105 0 176.5 76.5t71.5 177.5v852q0 99 -73 173.5t-175 74.5t-175 -73t-73 -175v-852zM93.5 1611.5 q-2.5 -15.5 8.5 -30.5q46 -68 119 -68q65 0 117 52q26 26 57 26q44 0 86 -51q21 -24 43 -7q17 14 8 31q-1 2 -2 3q-59 80 -135 80q-53 0 -96 -43q-37 -37 -78 -37q-46 0 -80 51q-14 17 -29.5 13t-18 -19.5z" />
<glyph unicode="&#xd6;" horiz-adv-x="765" d="M0 297v850q0 131 90 221t221 90q129 0 220.5 -90t91.5 -221v-850q0 -132 -90.5 -226t-221.5 -94t-221 94t-90 226zM49 1534q0 17 12 29t29 12t29 -12t12 -29t-12 -29t-29 -12t-29 12t-12 29zM63 295q2 -100 73.5 -177t174.5 -77q105 0 176.5 76.5t71.5 177.5v852 q0 99 -73 173.5t-175 74.5t-175 -73t-73 -175v-852zM479 1534q0 17 13 29t30 12q16 0 28.5 -12t12.5 -29t-12.5 -29t-28.5 -12q-17 0 -30 12t-13 29z" />
<glyph unicode="&#xd8;" horiz-adv-x="765" d="M0 317v850q0 131 90.5 221.5t220.5 90.5q129 0 220.5 -90.5t91.5 -221.5v-850q0 -132 -90.5 -225.5t-221.5 -93.5t-221 93.5t-90 225.5zM23 -49l483 1569l2 2q6 18 23 20.5t30 -9t8 -28.5q-7 -21 -121.5 -398.5t-226 -736t-143.5 -440.5q-7 -19 -23 -22t-27 10.5t-5 32.5 zM63 315q2 -100 73.5 -177t174.5 -77q105 0 176.5 76.5t71.5 177.5v852q0 99 -73 173.5t-175 74.5t-175 -73t-73 -175v-852z" />
<glyph unicode="&#xd9;" horiz-adv-x="778" d="M0 305v1108q0 20 16 28t31.5 -0.5t15.5 -27.5v-1108q0 -106 73.5 -182t178.5 -76q106 0 179 75.5t73 182.5v1108q0 21 16.5 30.5t33 1.5t16.5 -32v-1108q0 -132 -92 -225.5t-226 -93.5q-132 0 -223.5 93.5t-91.5 225.5zM163.5 1740.5q10.5 20.5 31 20.5t43.5 -28 l116 -220q18 -30 -4 -45.5t-43 5.5l-143 227q-11 20 -0.5 40.5z" />
<glyph unicode="&#xda;" horiz-adv-x="776" d="M0 305q0 -132 91.5 -225.5t223.5 -93.5q134 0 226 93.5t92 225.5v1108q0 24 -16.5 32t-33 -1.5t-16.5 -30.5v-1108q0 -107 -73 -182.5t-179 -75.5q-105 0 -178.5 76t-73.5 182v1108q0 19 -15.5 27.5t-31.5 0.5t-16 -28v-1108zM281 1520l116 213q20 27 43 26t30 -20.5 t-1 -40.5l-141 -219q-21 -21 -42.5 -5t-2.5 46h-2z" />
<glyph unicode="&#xdb;" horiz-adv-x="776" d="M0 305v1108q0 20 16 28t31.5 -0.5t15.5 -27.5v-1108q0 -106 73.5 -182t178.5 -76q106 0 179 75.5t73 182.5v1108q0 21 16.5 30.5t33 1.5t16.5 -32v-1108q0 -132 -92 -225.5t-226 -93.5q-132 0 -223.5 93.5t-91.5 225.5zM72 1524q-1 15 14 30q14 11 90.5 69t116.5 87 q8 7 20.5 7.5t22.5 -7.5q15 -11 93 -67t118 -84q24 -20 6 -42.5t-43 -5.5l-195 146q-36 -29 -107 -82.5t-91 -69.5q-15 -11 -29.5 -3.5t-15.5 22.5z" />
<glyph unicode="&#xdc;" horiz-adv-x="776" d="M-14 1561q0 15 13 28t30 13t29 -12.5t12 -28.5q0 -17 -12 -30t-29 -13t-30 13t-13 30zM0 326q0 -132 91.5 -226t223.5 -94q134 0 226 94t92 226v1108q0 24 -16.5 32t-33 -1.5t-16.5 -30.5v-1108q0 -107 -73 -182.5t-179 -75.5q-105 0 -178.5 76t-73.5 182v1108 q0 19 -15.5 27.5t-31.5 0.5t-16 -28v-1108zM555 1561q0 16 12 28.5t29 12.5t29 -12.5t12 -28.5q0 -17 -12 -30t-29 -13t-29 13t-12 30z" />
<glyph unicode="&#xdd;" horiz-adv-x="735" d="M-16 938v473q0 16 15.5 22.5t31.5 0t16 -22.5v-469q0 -38 14 -84t37 -74q34 -42 103 -127t94 -116q29 36 93.5 118.5t100.5 124.5q52 58 52 158v469q0 13 10 21t21.5 8t21.5 -7.5t10 -21.5v-473q0 -48 -16.5 -100.5t-46.5 -87.5q-36 -44 -107.5 -133.5t-107.5 -133.5 v-473q0 -9 -33 -9t-33 9v479q-36 42 -107.5 130.5t-107.5 130.5q-28 36 -44.5 88t-16.5 100zM254 1475l96 178q17 23 36.5 22t25 -17t-1.5 -34l-117 -184q-18 -18 -36 -4t-3 39z" />
<glyph unicode="&#xde;" horiz-adv-x="784" d="M0 23v1404q0 20 16.5 27.5t33 -0.5t16.5 -27v-276h290q127 0 216.5 -91t89.5 -216v-232q0 -125 -89.5 -216t-216.5 -91h-290v-280q0 -20 -16.5 -29t-33 -1t-16.5 28zM66 367h290q101 0 171.5 72.5t70.5 172.5v232q0 100 -70.5 173t-171.5 73h-290v-723z" />
<glyph unicode="&#xdf;" horiz-adv-x="745" d="M0 25v1087q0 132 89 226.5t220 93.5q127 -3 211 -87t84 -212v-101q0 -92 -54.5 -173.5t-135.5 -102.5q86 -20 145 -101.5t59 -175.5v-166q0 -131 -90.5 -222t-220.5 -91h-153q-11 0 -21 8.5t-10 20.5q0 16 9.5 24t21.5 8h153q102 0 175 75.5t73 174.5v168q0 102 -72 174 t-174 72h-155q-12 0 -21.5 8.5t-9.5 20.5q0 13 8.5 22.5t22.5 9.5h153q103 0 169.5 70.5t66.5 171.5v105q0 97 -67 167.5t-167 69.5q-105 0 -175.5 -75.5t-70.5 -180.5v-1089q0 -18 -15.5 -26t-31.5 0t-16 26z" />
<glyph unicode="&#xe0;" horiz-adv-x="716" d="M-20 283q0 125 86 210t208 85h150q13 0 22 -10t9 -23q0 -9 -9.5 -19t-21.5 -10h-150q-95 0 -163 -66.5t-68 -166.5q0 -98 67 -166t164 -68q100 0 169 70.5t69 169.5v393q0 95 -70 163t-168 68q-79 0 -147 -49q-27 -14 -40 -6.5t-12.5 25.5t13.5 26q77 68 186 68 q121 0 210 -85.5t89 -209.5v-393q0 -125 -86 -214t-213 -89q-123 0 -208.5 86.5t-85.5 210.5zM161 1263q9 18 27 17.5t39 -25.5l103 -194q17 -25 -3 -40t-38 5l-127 201q-10 18 -1 36z" />
<glyph unicode="&#xe1;" horiz-adv-x="718" d="M-20 283q0 125 86 210t208 85h150q13 0 22 -10t9 -23q0 -9 -9.5 -19t-21.5 -10h-150q-95 0 -163 -66.5t-68 -166.5q0 -98 67 -166t164 -68q100 0 169 70.5t69 169.5v393q0 95 -70 163t-168 68q-79 0 -147 -49q-27 -14 -40 -6.5t-12.5 25.5t13.5 26q77 68 186 68 q121 0 210 -85.5t89 -209.5v-393q0 -125 -86 -214t-213 -89q-123 0 -208.5 86.5t-85.5 210.5zM264 1055l105 190q17 25 37 24t26.5 -18.5t-0.5 -36.5l-125 -196q-19 -18 -38.5 -4t-2.5 41h-2z" />
<glyph unicode="&#xe2;" horiz-adv-x="712" d="M-20 303q0 125 86 210t208 85h150q13 0 22 -10t9 -23q0 -9 -9.5 -18.5t-21.5 -9.5h-150q-95 0 -163 -67t-68 -167q0 -98 67 -165.5t164 -67.5q100 0 169 70t69 169v393q0 95 -70 163.5t-168 68.5q-79 0 -147 -49q-27 -14 -40 -6.5t-12.5 25.5t13.5 26q76 67 186 67 q121 0 210 -85.5t89 -209.5v-393q0 -125 -86 -214t-213 -89q-123 0 -208.5 86.5t-85.5 210.5zM87 1020.5q-14 21.5 5 40.5q128 101 174 139l-2 -2q20 25 43 2q27 -23 85 -71.5t85 -71.5q18 -19 0 -38.5t-39 -2.5l-153 131q-120 -101 -160 -133q-24 -15 -38 6.5z" />
<glyph unicode="&#xe3;" horiz-adv-x="718" d="M-20 283q0 125 86 210t208 85h150q13 0 22 -10t9 -23q0 -9 -9.5 -19t-21.5 -10h-150q-95 0 -163 -66.5t-68 -166.5q0 -98 67 -166t164 -68q100 0 169 70.5t69 169.5v393q0 95 -70 163t-168 68q-79 0 -147 -49q-27 -14 -40 -6.5t-12.5 25.5t13.5 26q77 68 186 68 q121 0 210 -85.5t89 -209.5v-393q0 -125 -86 -214t-213 -89q-123 0 -208.5 86.5t-85.5 210.5zM111 1095q2 -2 4 -5q40 -68 98 -68q53 0 98 51q21 27 47 27q42 0 72 -53q17 -23 34.5 -7.5t6.5 35.5q-48 80 -113 80q-42 0 -79 -43q-30 -37 -66 -37q-40 0 -66 53q-18 24 -34 7 q-14 -17 -2 -40z" />
<glyph unicode="&#xe4;" horiz-adv-x="714" d="M-18 303q0 125 86 210t208 85h150q13 0 22 -10t9 -23q0 -9 -9.5 -18.5t-21.5 -9.5h-150q-95 0 -163 -67t-68 -167q0 -98 67 -165.5t164 -67.5q100 0 169 70t69 169v393q0 95 -70 163.5t-168 68.5q-79 0 -147 -49q-27 -14 -40 -6.5t-12.5 25.5t13.5 26q76 67 186 67 q121 0 210 -85.5t89 -209.5v-393q0 -125 -86 -214t-213 -89q-123 0 -208.5 86.5t-85.5 210.5zM113 1073q0 17 12 29t29 12t29 -12t12 -29q0 -16 -12 -28.5t-29 -12.5t-29 12.5t-12 28.5zM406 1073q0 17 12.5 29t27.5 12q17 0 29 -12t12 -29q0 -16 -12 -28.5t-29 -12.5 q-15 0 -27.5 13t-12.5 28z" />
<glyph unicode="&#xe5;" horiz-adv-x="718" d="M-20 283q0 125 86 210t208 85h150q13 0 22 -10t9 -23q0 -9 -9.5 -19t-21.5 -10h-150q-95 0 -163 -66.5t-68 -166.5q0 -98 67 -166t164 -68q100 0 169 70.5t69 169.5v393q0 95 -70 163t-168 68q-79 0 -147 -49q-27 -14 -40 -6.5t-12.5 25.5t13.5 26q77 68 186 68 q121 0 210 -85.5t89 -209.5v-393q0 -125 -86 -214t-213 -89q-123 0 -208.5 86.5t-85.5 210.5zM139 1065q0 59 38.5 99t96.5 40q59 0 99.5 -40.5t40.5 -98.5t-40.5 -96.5t-99.5 -38.5q-58 0 -96.5 38t-38.5 97zM186 1065q0 -35 26.5 -61.5t61.5 -26.5q37 0 64 26.5t27 61.5 q0 37 -27 63.5t-64 26.5q-35 0 -61.5 -26.5t-26.5 -63.5z" />
<glyph unicode="&#xe6;" horiz-adv-x="1243" d="M-14 283q0 125 85.5 210t209.5 85h165q12 0 20.5 -10.5t8.5 -22.5q0 -9 -9 -19t-20 -10h-165q-97 0 -164.5 -66.5t-67.5 -166.5q0 -98 67.5 -166t164.5 -68q96 0 163 67t72 165v403q-2 94 -71 161.5t-164 67.5q-80 0 -148 -49q-24 -20 -41.5 -14.5t-17.5 23.5t12 32 q82 72 195 72q89 0 165 -53t103 -138q27 78 103.5 133.5t164.5 55.5q123 0 209 -86.5t86 -210.5q0 -125 -87 -210t-208 -85h-166q-13 0 -21.5 10t-8.5 23q0 10 8.5 19t21.5 9h166q95 0 163.5 67t68.5 167q0 98 -67.5 165.5t-164.5 67.5q-99 0 -166.5 -66.5t-70.5 -162.5 v-401q0 -97 69.5 -165.5t167.5 -68.5q77 0 148 49q25 20 48 5q22 -14 7 -36q-3 -5 -8 -10q-80 -71 -195 -71q-88 0 -167 53.5t-105 136.5q-20 -78 -97.5 -133t-166.5 -55q-124 0 -209.5 86t-85.5 211z" />
<glyph unicode="&#xe7;" horiz-adv-x="735" d="M0 285v405q0 125 87 211t208 86t210 -86t89 -209q0 -17 -15.5 -24.5t-31 0t-15.5 24.5q0 96 -69.5 165t-167.5 69q-95 0 -163.5 -68.5t-68.5 -167.5v-405q0 -97 67.5 -165.5t164.5 -68.5q101 0 169 67.5t68 164.5q0 19 15.5 27t31 0t15.5 -27q0 -122 -86 -207.5 t-213 -85.5q-123 0 -209 86t-86 209zM268 16q3 16 17.5 20t27.5 -4t13 -24q-6 -39 9 -76.5t46 -62.5q36 -33 90 -33q22 0 53 8q23 7 36 -4t9 -28t-22 -23q-44 -12 -76 -12q-71 0 -127 47q-88 73 -76 192z" />
<glyph unicode="&#xe8;" horiz-adv-x="733" d="M0 281v391q0 126 86.5 214.5t212.5 88.5q124 0 209.5 -86t85.5 -211t-86 -210t-209 -85h-152q-12 0 -20 10.5t-8 22.5q0 10 8.5 19t19.5 9h152q97 0 165 67t68 167q0 98 -67.5 165.5t-165.5 67.5q-99 0 -167.5 -70t-68.5 -169v-391q0 -97 69.5 -165.5t166.5 -68.5 q79 0 147 49q21 12 37.5 5.5t18 -21t-7.5 -25.5q-80 -71 -195 -71q-121 0 -210 86t-89 211zM167 1250q9 18 27 18t39 -25l103 -190q15 -27 -4.5 -41t-38.5 4l-125 198q-10 18 -1 36z" />
<glyph unicode="&#xe9;" horiz-adv-x="727" d="M0 281v391q0 126 86.5 214.5t212.5 88.5q124 0 209.5 -86t85.5 -211t-86 -210t-209 -85h-152q-12 0 -20 10.5t-8 22.5q0 10 8.5 19t19.5 9h152q97 0 165 67t68 167q0 98 -67.5 165.5t-165.5 67.5q-99 0 -167.5 -70t-68.5 -169v-391q0 -97 69.5 -165.5t166.5 -68.5 q79 0 147 49q21 12 37.5 5.5t18 -21t-7.5 -25.5q-80 -71 -195 -71q-121 0 -210 86t-89 211zM262 1055l100 184q18 23 38 21.5t26 -18t0 -34.5l-123 -188q-18 -20 -37 -5t-2 40h-2z" />
<glyph unicode="&#xea;" horiz-adv-x="727" d="M0 281v391q0 126 86.5 214.5t212.5 88.5q124 0 209.5 -86t85.5 -211t-86 -210t-209 -85h-152q-12 0 -20 10.5t-8 22.5q0 10 8.5 19t19.5 9h152q97 0 165 67t68 167q0 98 -67.5 165.5t-165.5 67.5q-99 0 -167.5 -70t-68.5 -169v-391q0 -97 69.5 -165.5t166.5 -68.5 q79 0 147 49q21 12 37.5 5.5t18 -21t-7.5 -25.5q-80 -71 -195 -71q-121 0 -210 86t-89 211zM100 984q-16 21 0 42l6 6q99 92 173 158q16 16 36 0q32 -29 101.5 -90t72.5 -64q21 -19 7 -42q-11 -19 -30 -8q-3 1 -5 3l-164 146q-26 -25 -82.5 -76.5t-83.5 -77.5q-17 -16 -31 3 z" />
<glyph unicode="&#xeb;" horiz-adv-x="722" d="M2 301v391q0 126 86.5 214.5t212.5 88.5q124 0 209.5 -86t85.5 -211t-86 -210t-209 -85h-151q-12 0 -20.5 10.5t-8.5 22.5q0 10 9 19.5t20 9.5h151q97 0 165.5 66.5t68.5 166.5q0 98 -68 166t-166 68q-99 0 -167 -70.5t-68 -169.5v-391q0 -97 69 -165t166 -68 q80 0 148 49q21 12 37.5 5.5t17.5 -21t-8 -25.5q-82 -72 -195 -72q-121 0 -210 86t-89 211zM78 1061q0 17 13 29t30 12q16 0 28.5 -12t12.5 -29q0 -15 -13 -28t-28 -13q-17 0 -30 13t-13 28zM428 1061q0 17 12 29t29 12q16 0 28.5 -12t12.5 -29q0 -15 -13 -28t-28 -13 q-17 0 -29 12.5t-12 28.5z" />
<glyph unicode="&#xec;" horiz-adv-x="233" d="M-61 1221q-9 16 2.5 32.5t28 17.5t28.5 -16l88 -190q7 -24 -14.5 -34.5t-32.5 5.5zM18 23v931q0 16 15.5 22.5t31 0t15.5 -22.5v-931q0 -11 -31 -11t-31 11z" />
<glyph unicode="&#xed;" horiz-adv-x="233" d="M2 1065l88 190q12 17 28.5 16t28.5 -17.5t3 -32.5l-101 -185q-11 -16 -32.5 -5.5t-14.5 34.5zM18 23q0 -11 31 -11t31 11v931q0 16 -15.5 22.5t-31 0t-15.5 -22.5v-931z" />
<glyph unicode="&#xee;" horiz-adv-x="231" d="M-155 1030q-14 19 5 38q1 2 3 3q87 69 178 135q7 5 18 6t19 -6q2 -2 182 -131q23 -18 7 -37t-38 -4l-168 125q-20 -16 -81.5 -62t-92.5 -71q-18 -13 -32 4zM18 23v931q0 18 16 26t32 0.5t16 -26.5v-931q0 -18 -16 -26t-32 0t-16 26z" />
<glyph unicode="&#xef;" horiz-adv-x="227" d="M-82 1057q0 17 13 30t28 13q17 0 30 -13t13 -30q0 -15 -13 -28t-30 -13q-15 0 -28 13t-13 28zM23 23q0 -18 15.5 -26t31.5 0t16 26v915q0 19 -16 26.5t-31.5 -0.5t-15.5 -26v-915zM109 1057q0 17 13 30t30 13q15 0 28 -13t13 -30q0 -15 -13 -28t-28 -13q-17 0 -30 13 t-13 28z" />
<glyph unicode="&#xf1;" horiz-adv-x="745" d="M0 23v659q0 123 89.5 213t211.5 90t211.5 -90.5t89.5 -212.5v-659q0 -16 -15 -22.5t-30.5 0t-15.5 22.5v659q0 99 -71.5 170.5t-168.5 71.5q-96 0 -167 -71.5t-71 -170.5v-659q0 -17 -15.5 -24.5t-31.5 -0.5t-16 25zM85.5 1130q-2.5 -15 8.5 -30q46 -66 115 -66 q65 0 113 51q28 25 55 25q44 0 86 -51q13 -14 28 -12t19.5 14.5t-2.5 25.5q-55 76 -131 76q-48 0 -92 -41q-32 -35 -76 -35q-47 0 -76 50q-14 16 -29.5 12t-18 -19z" />
<glyph unicode="&#xf2;" horiz-adv-x="749" d="M0 289v399q0 123 91 213t214 90t212 -90t89 -213v-399q0 -123 -89 -214t-212 -91t-214 91t-91 214zM63 289q0 -98 75.5 -171t166.5 -73t165.5 73t74.5 171v399q0 99 -72.5 170.5t-167.5 71.5q-97 0 -169.5 -71.5t-72.5 -170.5v-399zM188 1233q-9 18 0.5 35.5t26.5 17.5 t37 -24l100 -189q17 -25 -2 -40t-37 5z" />
<glyph unicode="&#xf3;" horiz-adv-x="747" d="M0 289v399q0 123 91 213t214 90t212 -90t89 -213v-399q0 -123 -89 -214t-212 -91t-214 91t-91 214zM63 289q0 -98 75.5 -171t166.5 -73t165.5 73t74.5 171v399q0 99 -72.5 170.5t-167.5 71.5q-97 0 -169.5 -71.5t-72.5 -170.5v-399zM279 1067l102 188q17 24 36.5 23 t25.5 -18t-1 -35l-123 -193q-19 -19 -38 -5t-2 40z" />
<glyph unicode="&#xf4;" horiz-adv-x="747" d="M0 289v399q0 123 91 213t214 90t212 -90t89 -213v-399q0 -123 -89 -214t-212 -91t-214 91t-91 214zM63 289q0 -98 75.5 -171t166.5 -73t165.5 73t74.5 171v399q0 99 -72.5 170.5t-167.5 71.5q-97 0 -169.5 -71.5t-72.5 -170.5v-399zM78 1023q-1 14 14 28q94 69 187 141 q20 15 38 0q63 -48 191 -137q23 -18 6 -38t-39 -5l-176 131q-28 -23 -90 -69t-90 -70q-13 -9 -26.5 -2t-14.5 21z" />
<glyph unicode="&#xf5;" horiz-adv-x="749" d="M0 289v399q0 123 91 213t214 90t212 -90t89 -213v-399q0 -123 -89 -214t-212 -91t-214 91t-91 214zM63 289q0 -98 75.5 -171t166.5 -73t165.5 73t74.5 171v399q0 99 -72.5 170.5t-167.5 71.5q-97 0 -169.5 -71.5t-72.5 -170.5v-399zM110 1107q2 -3 5 -7q43 -68 110 -68 q62 0 109 53q24 27 53 27q45 0 80 -53q13 -16 28 -13.5t19.5 15.5t-2.5 26q-52 82 -125 82q-47 0 -90 -43q-31 -39 -72 -39q-44 0 -73 54q-19 25 -37 7q-17 -17 -5 -41z" />
<glyph unicode="&#xf6;" horiz-adv-x="749" d="M2 309v400q0 123 91 213t214 90t212 -90t89 -213v-400q0 -123 -89 -214t-212 -91t-214 91t-91 214zM66 309q0 -98 75 -170.5t166 -72.5t165.5 72.5t74.5 170.5v400q0 98 -72.5 169.5t-167.5 71.5q-97 0 -169 -71t-72 -170v-400zM90 1096q0 17 13 30t30 13q15 0 28 -13 t13 -30q0 -15 -13 -28t-28 -13q-17 0 -30 13t-13 28zM457 1096q0 17 13 30t28 13q17 0 30 -13t13 -30q0 -15 -13 -28t-30 -13q-15 0 -28 13t-13 28z" />
<glyph unicode="&#xf8;" horiz-adv-x="747" d="M0 309v400q0 123 91 213t214 90q82 0 154 -43l47 110q7 17 23.5 20t28.5 -7.5t7 -26.5q-29 -78 -55 -137q45 -42 70.5 -99.5t25.5 -119.5v-400q0 -123 -89 -214t-212 -91q-95 0 -172 55q-28 -64 -35 -86q-7 -20 -24 -24.5t-29 9t-4 36.5l45 106q-86 89 -86 209zM63 309 q0 -78 52 -143l319 745q-61 39 -129 39q-98 0 -170 -71t-72 -170v-400zM158 121q68 -55 147 -55q91 0 165.5 72.5t74.5 170.5v400q0 85 -62 157q-45 -105 -163.5 -374t-161.5 -371z" />
<glyph unicode="&#xf9;" horiz-adv-x="745" d="M0 291v659q0 18 16 26t31.5 0t15.5 -26v-659q0 -99 71 -170.5t167 -71.5q97 0 168.5 71.5t71.5 170.5v659q0 17 15.5 23.5t30.5 0t15 -23.5v-659q0 -123 -89.5 -213t-211.5 -90t-211.5 90.5t-89.5 212.5zM192.5 1218q8.5 17 27.5 17t36 -25l100 -188q17 -25 -2 -39t-37 4 l-124 197q-9 17 -0.5 34z" />
<glyph unicode="&#xfa;" horiz-adv-x="747" d="M0 291v659q0 18 16 26t31.5 0t15.5 -26v-659q0 -99 71 -170.5t167 -71.5q97 0 168.5 71.5t71.5 170.5v659q0 17 15.5 23.5t30.5 0t15 -23.5v-659q0 -123 -89.5 -213t-211.5 -90t-211.5 90.5t-89.5 212.5zM266 1022l103 186q17 24 36.5 23t25.5 -18t-1 -35l-123 -191 q-18 -18 -37 -4t-2 39h-2z" />
<glyph unicode="&#xfb;" horiz-adv-x="745" d="M0 291v659q0 18 16 26t31.5 0t15.5 -26v-659q0 -99 71 -170.5t167 -71.5q97 0 168.5 71.5t71.5 170.5v659q0 17 15.5 23.5t30.5 0t15 -23.5v-659q0 -123 -89.5 -213t-211.5 -90t-211.5 90.5t-89.5 212.5zM57.5 1053q-0.5 15 14.5 30q34 25 102 77.5t102 78.5q25 15 43 0 q105 -78 209 -152q16 -12 13 -28t-17.5 -21t-31.5 4l-193 142q-32 -25 -99 -75.5t-98 -74.5q-15 -11 -29.5 -3.5t-15 22.5z" />
<glyph unicode="&#xfc;" horiz-adv-x="743" d="M-10 1085q0 17 12 29t29 12t29 -12t12 -29t-12 -29t-29 -12t-29 12t-12 29zM0 291v659q0 18 16 26t31.5 0t15.5 -26v-659q0 -99 71 -170.5t167 -71.5q97 0 168.5 71.5t71.5 170.5v659q0 17 15.5 23.5t30.5 0t15 -23.5v-659q0 -123 -89.5 -213t-211.5 -90t-211.5 90.5 t-89.5 212.5zM524 1085q0 17 13 29t30 12q16 0 28.5 -12t12.5 -29t-12.5 -29t-28.5 -12q-17 0 -30 12t-13 29z" />
<glyph unicode="&#xfd;" horiz-adv-x="729" d="M0 295q0 -124 85 -209.5t204 -85.5h137q19 0 27 15t0.5 30.5t-25.5 15.5h-139q-94 0 -160 68.5t-66 165.5v657q0 12 -10 22.5t-22 10.5q-11 0 -21 -10.5t-10 -22.5v-657zM102 -317q78 -72 187 -72q123 0 211 86t88 209v1044q0 14 -10 24.5t-23 10.5q-11 0 -21 -10.5 t-10 -22.5v-1046q0 -99 -69.5 -165.5t-165.5 -66.5q-74 0 -142 52q-23 17 -41.5 -2.5t-3.5 -40.5zM268 1030l107 193q18 25 38.5 24.5t27 -18.5t-0.5 -37l-129 -199q-19 -20 -39 -5t-2 42h-2z" />
<glyph unicode="&#xfe;" horiz-adv-x="708" d="M0 -350v1610q0 20 16 27.5t31.5 0t15.5 -25.5v-437q35 66 95.5 104t128.5 38q122 0 207.5 -85.5t85.5 -203.5v-383q0 -119 -85.5 -205t-207.5 -86q-71 0 -132 32.5t-92 94.5v-481q0 -18 -15.5 -26.5t-31.5 -1.5t-16 28zM63 281q0 -64 29 -109q30 -49 83 -76.5t112 -27.5 q95 0 162 66.5t67 160.5v383q0 89 -66 157t-163 68q-89 0 -156.5 -62.5t-67.5 -152.5v-407z" />
<glyph unicode="&#xff;" horiz-adv-x="731" d="M-8 1092q0 17 12 29t29 12t29 -12t12 -29t-12 -29t-29 -12t-29 12t-12 29zM0 295q0 -124 85 -209.5t204 -85.5h137q19 0 27 15t0.5 30.5t-25.5 15.5h-139q-94 0 -160 68.5t-66 165.5v657q0 12 -10 22.5t-22 10.5q-11 0 -21 -10.5t-10 -22.5v-657zM102 -317 q78 -72 187 -72q123 0 211 86t88 209v1044q0 14 -10 24.5t-23 10.5q-11 0 -21 -10.5t-10 -22.5v-1046q0 -99 -69.5 -165.5t-165.5 -66.5q-74 0 -142 52q-23 17 -41.5 -2.5t-3.5 -40.5zM514 1092q0 17 13 29t30 12q16 0 28.5 -12t12.5 -29t-12.5 -29t-28.5 -12q-17 0 -30 12 t-13 29z" />
<glyph unicode="&#x152;" horiz-adv-x="1214" d="M0 297v825q0 131 90.5 221.5t220.5 90.5h756q20 0 28.5 -16t0 -32t-28.5 -16h-446v-530h421q19 0 27.5 -16t1 -32t-26.5 -16h-423v-479q5 -96 74 -165t163 -69h209q20 0 28.5 -15.5t0 -31.5t-28.5 -16h-209q-90 0 -161.5 46.5t-104.5 135.5q-28 -89 -107 -147t-174 -58 q-131 0 -221 94t-90 226zM63 295q2 -100 73.5 -177t174.5 -77q105 0 175.5 76.5t70.5 179.5v1073h-246q-104 0 -176 -73t-72 -175v-827z" />
<glyph unicode="&#x153;" horiz-adv-x="1253" d="M0 289v399q0 122 90.5 211.5t214.5 91.5q92 1 170.5 -59.5t104.5 -140.5q28 77 99 130.5t163 53.5q124 0 209.5 -86t85.5 -211t-86 -210t-209 -85h-152q-12 0 -20 10.5t-8 22.5q0 10 8.5 19t19.5 9h152q97 0 165 67t68 167q0 98 -67.5 165.5t-165.5 67.5t-165.5 -66.5 t-70.5 -162.5v-393v-13q2 -95 70.5 -162t165.5 -67q79 0 147 49q21 12 37.5 5.5t17.5 -21t-8 -25.5q-80 -71 -194 -71q-90 0 -167 49.5t-104 134.5q-26 -77 -103 -130.5t-163 -53.5q-123 0 -214 91t-91 214zM63 289q0 -98 75.5 -171t166.5 -73q90 0 163 70t77 166v391v12v4 q0 99 -72.5 170.5t-167.5 71.5q-97 0 -169.5 -71.5t-72.5 -170.5v-399z" />
<glyph unicode="&#x178;" horiz-adv-x="729" d="M-20 1552q0 15 13 28t30 13q15 0 27.5 -13t12.5 -28q0 -17 -12.5 -30t-27.5 -13q-17 0 -30 13t-13 30zM-10 958v474q0 16 16 22.5t31.5 0t15.5 -22.5v-469q0 -38 14 -84t37 -74q12 -15 197 -244q29 35 94 118.5t101 125.5q51 57 51 158v469q0 13 10 21t21.5 8t21.5 -7.5 t10 -21.5v-474q0 -48 -16.5 -100.5t-46.5 -87.5q-36 -44 -107.5 -133t-107.5 -133v-473q0 -19 -16.5 -26.5t-33 0.5t-16.5 26v479q-36 42 -107.5 130t-107.5 130q-28 36 -44.5 88t-16.5 100zM537 1552q0 16 12 28.5t29 12.5t30 -13t13 -28q0 -17 -13 -30t-30 -13t-29 13 t-12 30z" />
<glyph unicode="&#x2c6;" horiz-adv-x="784" d="M47 1266q-1 17 16 34q37 27 113 84.5t113 85.5q8 7 22 7.5t25 -7.5q101 -74 229 -165q27 -21 7.5 -46t-46.5 -6l-213 158q-35 -27 -108.5 -82.5t-108.5 -83.5q-16 -12 -32 -4t-17 25z" />
<glyph unicode="&#x2dc;" horiz-adv-x="729" d="M50.5 1496.5q4.5 18.5 20 22t33.5 -13.5q37 -57 89 -57q48 0 86 41q50 47 106 47q86 0 150 -88q10 -13 2 -28t-23.5 -17t-32.5 14q-45 58 -96 58q-34 0 -63 -29q-57 -57 -129 -57q-81 0 -132 73q-15 16 -10.5 34.5z" />
<glyph unicode="&#x2000;" horiz-adv-x="894" />
<glyph unicode="&#x2001;" horiz-adv-x="1789" />
<glyph unicode="&#x2002;" horiz-adv-x="894" />
<glyph unicode="&#x2003;" horiz-adv-x="1789" />
<glyph unicode="&#x2004;" horiz-adv-x="596" />
<glyph unicode="&#x2005;" horiz-adv-x="447" />
<glyph unicode="&#x2006;" horiz-adv-x="298" />
<glyph unicode="&#x2007;" horiz-adv-x="298" />
<glyph unicode="&#x2008;" horiz-adv-x="223" />
<glyph unicode="&#x2009;" horiz-adv-x="357" />
<glyph unicode="&#x200a;" horiz-adv-x="99" />
<glyph unicode="&#x2010;" horiz-adv-x="636" d="M25 630q-8 16 0 32t26 16h418q21 0 29 -16t-1 -32t-28 -16h-418q-18 0 -26 16z" />
<glyph unicode="&#x2011;" horiz-adv-x="636" d="M25 630q-8 16 0 32t26 16h418q21 0 29 -16t-1 -32t-28 -16h-418q-18 0 -26 16z" />
<glyph unicode="&#x2012;" horiz-adv-x="636" d="M25 630q-8 16 0 32t26 16h418q21 0 29 -16t-1 -32t-28 -16h-418q-18 0 -26 16z" />
<glyph unicode="&#x2013;" horiz-adv-x="817" d="M33.5 606q-7.5 16 0.5 31.5t27 15.5h537q19 0 27.5 -15.5t0.5 -31.5t-28 -16h-537q-20 0 -27.5 16z" />
<glyph unicode="&#x2014;" horiz-adv-x="1413" d="M46 606q-8 16 0.5 31.5t27.5 15.5h1093q19 0 27.5 -15.5t0.5 -31.5t-28 -16h-1093q-20 0 -28 16z" />
<glyph unicode="&#x2018;" horiz-adv-x="362" d="M70 1276q4 18 14 58t14 59t18.5 24.5t26 -5.5t7.5 -30l-15 -88q17 -11 17 -34q0 -15 -13 -28t-28 -13q-25 0 -36 17t-5 40z" />
<glyph unicode="&#x2019;" horiz-adv-x="358" d="M74 1378q0 17 13 29t30 12q24 0 35.5 -16.5t3.5 -40.5q-3 -15 -14.5 -54.5t-14.5 -60.5q-3 -17 -17.5 -22.5t-26 3.5t-7.5 27l14 91q-16 11 -16 32z" />
<glyph unicode="&#x201a;" horiz-adv-x="247" d="M27 35v434q0 17 15.5 23.5t31.5 0t16 -23.5v-434q0 -21 -16 -29t-31.5 1t-15.5 28z" />
<glyph unicode="&#x201c;" horiz-adv-x="401" d="M43 1276q4 18 14.5 58t14.5 59q5 19 19.5 24t25.5 -6t6 -29l-14 -88q16 -11 16 -34q0 -15 -13 -28t-30 -13q-24 0 -35.5 17.5t-3.5 39.5zM164 1276q4 18 14.5 58t14.5 59q4 17 19 22t26.5 -4.5t5.5 -28.5l-15 -88q17 -11 17 -34q0 -15 -13 -28t-30 -13q-24 0 -35.5 17.5 t-3.5 39.5z" />
<glyph unicode="&#x201d;" horiz-adv-x="405" d="M43 1374q0 17 13 29t30 12q24 0 35.5 -16.5t3.5 -40.5q-4 -19 -14.5 -57.5t-14.5 -57.5q-3 -15 -17.5 -20t-26 3.5t-7.5 26.5l14 88q-16 11 -16 33zM168 1374q0 17 13 29t30 12q24 0 35.5 -16.5t3.5 -40.5q-17 -77 -29 -115q-6 -18 -20 -21.5t-24.5 6.5t-6.5 25l14 88 q-16 11 -16 33z" />
<glyph unicode="&#x201e;" horiz-adv-x="360" d="M16 25v434q0 17 16 24t32 0t16 -24v-434q0 -20 -16 -28t-32 0.5t-16 27.5zM156 25v434q0 17 15 25.5t30.5 1.5t15.5 -27v-434q0 -18 -15.5 -26t-30.5 0t-15 26z" />
<glyph unicode="&#x2022;" horiz-adv-x="653" d="M47 657q0 81 62 140t143 59t144 -59t63 -140q3 -95 -59.5 -148.5t-147.5 -53.5t-146.5 53.5t-58.5 148.5zM111 653q-3 -63 40.5 -99t102.5 -36t100.5 35t40.5 98q0 55 -42 98.5t-101 43.5q-58 0 -99.5 -42.5t-41.5 -97.5z" />
<glyph unicode="&#x2026;" horiz-adv-x="581" d="M23 43q0 19 13 32t32 13q18 0 31.5 -13.5t13.5 -31.5q0 -17 -14 -31t-31 -14q-18 0 -31.5 13.5t-13.5 31.5zM182 43q0 18 14.5 31.5t32.5 13.5q19 0 32 -13t13 -32q0 -18 -13.5 -31.5t-31.5 -13.5q-17 0 -32 14t-15 31zM348 43q0 19 13 32t32 13t33 -13t14 -32 q0 -17 -14 -31t-33 -14q-18 0 -31.5 13.5t-13.5 31.5z" />
<glyph unicode="&#x202f;" horiz-adv-x="357" />
<glyph unicode="&#x2039;" horiz-adv-x="501" d="M23 647q-20 31 0 53l241 342q13 17 31 15t23.5 -17t-5.5 -34l-235 -330q27 -39 76 -106.5t86.5 -121t72.5 -106.5q11 -14 3.5 -29.5t-22.5 -17t-30 13.5z" />
<glyph unicode="&#x203a;" horiz-adv-x="460" d="M21.5 307.5q-5.5 14.5 3.5 32.5q42 63 121 170.5t118 165.5q-27 38 -75.5 105t-87 122t-72.5 105q-17 23 5.5 42t41.5 -3q123 -173 243 -345q12 -18 11.5 -28.5t-11.5 -24.5l-241 -340q-15 -18 -33 -17t-23.5 15.5z" />
<glyph unicode="&#x205f;" horiz-adv-x="447" />
<glyph unicode="&#x2122;" horiz-adv-x="1343" d="M-21 1371q-7 15 0.5 29.5t24.5 14.5h426q13 0 21 -9t8.5 -20.5t-7.5 -20.5t-22 -9h-184v-649q0 -18 -16 -26t-32 0t-16 26v649h-178q-18 0 -25 15zM502 700v695q0 32 23 34.5t40 -22.5l254 -498q226 446 254 500v-2q4 15 18 21t26.5 -2.5t12.5 -30.5v-695q0 -18 -15 -26 t-30.5 0t-15.5 26l2 564q-37 -71 -110.5 -216t-110.5 -217q-10 -24 -29.5 -25t-32.5 21q-67 132 -227 445l4 -572q0 -18 -15.5 -26t-31.5 0t-16 26z" />
<glyph unicode="&#x25fc;" horiz-adv-x="983" d="M0 0v983h983v-983h-983z" />
<glyph unicode="&#xfb01;" horiz-adv-x="585" d="M0 18v1102q0 130 92.5 220t218.5 90q18 0 25.5 -15.5t0 -31t-25.5 -15.5q-97 0 -172.5 -74t-75.5 -174v-383h349q11 0 16.5 -0.5t13 -8t7.5 -21.5v-684q0 -18 -16 -26t-32 0t-16 26v651h-322v-656q0 -17 -15.5 -23.5t-31.5 0t-16 23.5zM377 997q0 18 12.5 31.5t32.5 13.5 q45 0 45 -45q0 -30 -10.5 -39.5t-34.5 -9.5q-9 0 -18 3t-18 14.5t-9 31.5z" />
<glyph unicode="&#xfb02;" horiz-adv-x="765" d="M2 18v1102q0 130 92.5 220t218.5 90q16 0 23 -15.5t0.5 -31t-23.5 -15.5q-97 0 -172 -74t-75 -174v-383h348q10 0 10 -31.5t-10 -31.5h-348v-656q0 -17 -16 -24.5t-32 -0.5t-16 25zM387 295v1106q0 18 16 26t32 0.5t16 -26.5v-1106q0 -105 68.5 -177.5t164.5 -72.5 q21 0 30.5 -15.5t0.5 -31.5t-31 -16q-127 0 -212 89.5t-85 223.5z" />
</font>
</defs>
</svg>
